<?xml version="1.0" encoding="utf-8"?>
<!-- Generator: Adobe Illustrator 16.2.0, SVG Export Plug-In . SVG Version: 6.00 Build 0)  -->
<!DOCTYPE svg PUBLIC "-//W3C//DTD SVG 1.1//EN" "http://www.w3.org/Graphics/SVG/1.1/DTD/svg11.dtd">
<svg version="1.1" id="Layer_1" xmlns="http://www.w3.org/2000/svg" xmlns:xlink="http://www.w3.org/1999/xlink" x="0px" y="0px"
	 width="134.305px" height="46.372px" viewBox="0 0 134.305 46.372" enable-background="new 0 0 134.305 46.372"
	 xml:space="preserve">
<g>
	<path fill="#F26522" d="M59.889,11.428c0.792-0.162,1.927-0.252,3.007-0.252c1.674,0,2.754,0.306,3.511,0.99
		c0.612,0.54,0.955,1.368,0.955,2.305c0,1.603-1.008,2.665-2.287,3.097v0.055c0.937,0.323,1.495,1.188,1.783,2.448
		c0.396,1.692,0.684,2.863,0.937,3.331h-1.621c-0.198-0.342-0.468-1.387-0.811-2.898c-0.36-1.675-1.008-2.305-2.431-2.359h-1.476
		v5.258h-1.567V11.428z M61.456,16.955h1.602c1.675,0,2.737-0.918,2.737-2.305c0-1.566-1.135-2.25-2.791-2.269
		c-0.756,0-1.296,0.072-1.548,0.145V16.955z"/>
	<path fill="#F26522" d="M77.478,18.972c0,3.224-2.232,4.628-4.339,4.628c-2.358,0-4.177-1.729-4.177-4.483
		c0-2.917,1.909-4.628,4.321-4.628C75.785,14.488,77.478,16.308,77.478,18.972z M70.563,19.063c0,1.908,1.098,3.349,2.647,3.349
		c1.512,0,2.646-1.423,2.646-3.385c0-1.477-0.738-3.35-2.61-3.35C71.374,15.677,70.563,17.405,70.563,19.063z"/>
	<path fill="#F26522" d="M84.298,23.401l-0.126-1.099h-0.054c-0.486,0.685-1.423,1.297-2.665,1.297
		c-1.765,0-2.665-1.242-2.665-2.503c0-2.106,1.873-3.259,5.239-3.241v-0.18c0-0.721-0.198-2.017-1.98-2.017
		c-0.81,0-1.657,0.252-2.269,0.648l-0.36-1.045c0.72-0.468,1.765-0.774,2.863-0.774c2.665,0,3.313,1.819,3.313,3.565v3.259
		c0,0.757,0.036,1.495,0.144,2.089H84.298z M84.064,18.954c-1.729-0.036-3.691,0.27-3.691,1.963c0,1.026,0.684,1.512,1.494,1.512
		c1.134,0,1.854-0.72,2.107-1.458c0.054-0.162,0.09-0.342,0.09-0.504V18.954z"/>
	<path fill="#F26522" d="M95.675,10.617V21.15c0,0.774,0.018,1.657,0.072,2.251h-1.422l-0.072-1.513h-0.036
		c-0.486,0.973-1.548,1.711-2.971,1.711c-2.106,0-3.727-1.782-3.727-4.43c-0.018-2.898,1.783-4.682,3.907-4.682
		c1.333,0,2.233,0.631,2.629,1.333h0.036v-5.204H95.675z M94.091,18.233c0-0.197-0.018-0.468-0.072-0.666
		c-0.234-1.008-1.098-1.836-2.287-1.836c-1.639,0-2.611,1.44-2.611,3.366c0,1.765,0.864,3.224,2.575,3.224
		c1.063,0,2.035-0.702,2.323-1.891c0.054-0.216,0.072-0.433,0.072-0.685V18.233z"/>
	<path fill="#F26522" d="M112.398,18.071c-0.09-1.692-0.198-3.727-0.18-5.239h-0.054c-0.414,1.423-0.918,2.935-1.53,4.609
		l-2.143,5.888h-1.188l-1.963-5.779c-0.576-1.711-1.062-3.277-1.404-4.718h-0.036c-0.036,1.513-0.126,3.547-0.234,5.366
		l-0.324,5.203h-1.494l0.846-12.136h1.999l2.071,5.87c0.504,1.494,0.918,2.826,1.224,4.087h0.054
		c0.306-1.225,0.738-2.557,1.278-4.087l2.161-5.87h1.999l0.756,12.136h-1.531L112.398,18.071z"/>
	<path fill="#F26522" d="M121.522,23.401l-0.126-1.099h-0.054c-0.486,0.685-1.423,1.297-2.665,1.297
		c-1.765,0-2.665-1.242-2.665-2.503c0-2.106,1.873-3.259,5.239-3.241v-0.18c0-0.721-0.198-2.017-1.98-2.017
		c-0.81,0-1.657,0.252-2.269,0.648l-0.36-1.045c0.72-0.468,1.765-0.774,2.863-0.774c2.665,0,3.313,1.819,3.313,3.565v3.259
		c0,0.757,0.036,1.495,0.144,2.089H121.522z M121.288,18.954c-1.729-0.036-3.691,0.27-3.691,1.963c0,1.026,0.684,1.512,1.494,1.512
		c1.134,0,1.854-0.72,2.107-1.458c0.054-0.162,0.09-0.342,0.09-0.504V18.954z"/>
	<path fill="#F26522" d="M125.373,17.531c0-1.116-0.036-2.017-0.072-2.845h1.423l0.072,1.495h0.036
		c0.648-1.063,1.674-1.693,3.097-1.693c2.107,0,3.691,1.783,3.691,4.43c0,3.133-1.909,4.682-3.961,4.682
		c-1.152,0-2.161-0.504-2.683-1.368h-0.036v4.735h-1.566V17.531z M126.939,19.854c0,0.234,0.036,0.45,0.072,0.648
		c0.288,1.098,1.242,1.854,2.376,1.854c1.674,0,2.647-1.369,2.647-3.367c0-1.747-0.918-3.241-2.593-3.241
		c-1.081,0-2.089,0.774-2.395,1.963c-0.054,0.198-0.108,0.432-0.108,0.648V19.854z"/>
	<path fill="#BCBEC0" d="M61.744,28.184v2.503h2.269v1.207h-2.269v4.699c0,1.08,0.306,1.692,1.188,1.692
		c0.414,0,0.72-0.054,0.918-0.108l0.072,1.188c-0.306,0.126-0.792,0.216-1.404,0.216c-0.738,0-1.332-0.233-1.71-0.666
		c-0.45-0.468-0.612-1.242-0.612-2.269v-4.753h-1.35v-1.207h1.35v-2.088L61.744,28.184z"/>
	<path fill="#BCBEC0" d="M73.572,34.972c0,3.224-2.232,4.628-4.339,4.628c-2.358,0-4.177-1.729-4.177-4.483
		c0-2.917,1.909-4.628,4.321-4.628C71.879,30.488,73.572,32.308,73.572,34.972z M66.658,35.063c0,1.908,1.099,3.349,2.647,3.349
		c1.512,0,2.646-1.423,2.646-3.385c0-1.477-0.738-3.35-2.611-3.35C67.468,31.677,66.658,33.405,66.658,35.063z"/>
	<path fill="#BCBEC0" d="M81.4,35.584l-1.26,3.817h-1.621l4.123-12.136h1.891l4.141,12.136H87l-1.296-3.817H81.4z M85.379,34.36
		l-1.188-3.493c-0.271-0.793-0.45-1.513-0.63-2.215h-0.036c-0.18,0.72-0.378,1.458-0.612,2.196l-1.188,3.512H85.379z"/>
	<path fill="#BCBEC0" d="M96.395,39.077c-0.414,0.216-1.333,0.504-2.503,0.504c-2.629,0-4.339-1.782-4.339-4.447
		c0-2.683,1.836-4.627,4.682-4.627c0.936,0,1.764,0.234,2.197,0.45l-0.36,1.225c-0.378-0.217-0.972-0.415-1.836-0.415
		c-1.999,0-3.079,1.477-3.079,3.296c0,2.017,1.296,3.259,3.025,3.259c0.9,0,1.495-0.234,1.945-0.433L96.395,39.077z"/>
	<path fill="#BCBEC0" d="M104.351,39.077c-0.414,0.216-1.333,0.504-2.503,0.504c-2.629,0-4.339-1.782-4.339-4.447
		c0-2.683,1.836-4.627,4.682-4.627c0.936,0,1.764,0.234,2.197,0.45l-0.36,1.225c-0.378-0.217-0.972-0.415-1.836-0.415
		c-1.999,0-3.079,1.477-3.079,3.296c0,2.017,1.296,3.259,3.025,3.259c0.9,0,1.495-0.234,1.945-0.433L104.351,39.077z"/>
	<path fill="#BCBEC0" d="M106.978,35.332c0.036,2.143,1.404,3.025,2.989,3.025c1.134,0,1.818-0.198,2.413-0.45l0.27,1.134
		c-0.558,0.252-1.512,0.54-2.898,0.54c-2.683,0-4.286-1.764-4.286-4.393s1.548-4.7,4.087-4.7c2.845,0,3.601,2.503,3.601,4.105
		c0,0.324-0.036,0.576-0.054,0.738H106.978z M111.623,34.198c0.018-1.009-0.414-2.575-2.196-2.575c-1.603,0-2.305,1.477-2.431,2.575
		H111.623z"/>
	<path fill="#BCBEC0" d="M114.897,37.781c0.468,0.306,1.296,0.63,2.089,0.63c1.152,0,1.692-0.576,1.692-1.297
		c0-0.756-0.45-1.17-1.621-1.602c-1.566-0.559-2.305-1.423-2.305-2.467c0-1.405,1.134-2.558,3.007-2.558
		c0.882,0,1.656,0.253,2.143,0.541l-0.396,1.152c-0.342-0.217-0.972-0.505-1.782-0.505c-0.937,0-1.458,0.54-1.458,1.188
		c0,0.721,0.522,1.045,1.656,1.477c1.513,0.576,2.287,1.332,2.287,2.629c0,1.53-1.188,2.61-3.259,2.61
		c-0.954,0-1.836-0.233-2.449-0.594L114.897,37.781z"/>
	<path fill="#BCBEC0" d="M122.025,37.781c0.468,0.306,1.296,0.63,2.089,0.63c1.152,0,1.692-0.576,1.692-1.297
		c0-0.756-0.45-1.17-1.621-1.602c-1.566-0.559-2.305-1.423-2.305-2.467c0-1.405,1.134-2.558,3.007-2.558
		c0.882,0,1.656,0.253,2.143,0.541l-0.396,1.152c-0.342-0.217-0.972-0.505-1.782-0.505c-0.937,0-1.458,0.54-1.458,1.188
		c0,0.721,0.522,1.045,1.656,1.477c1.513,0.576,2.287,1.332,2.287,2.629c0,1.53-1.188,2.61-3.259,2.61
		c-0.954,0-1.836-0.233-2.449-0.594L122.025,37.781z"/>
</g>
<g>
	<g>
		<g>
			<path fill="#BCBEC0" d="M26.519,41.655c-7.93,0-14.785-4.603-18.042-11.28c1.077,9.009,8.742,15.997,18.042,15.997
				s16.966-6.988,18.041-15.997C41.302,37.053,34.448,41.655,26.519,41.655z"/>
		</g>
	</g>
	<radialGradient id="SVGID_1_" cx="26.5049" cy="26.292" r="12.9741" gradientUnits="userSpaceOnUse">
		<stop  offset="0" style="stop-color:#FFFFFF"/>
		<stop  offset="1" style="stop-color:#F26522"/>
	</radialGradient>
	
		<circle fill="url(#SVGID_1_)" stroke="#FFFFFF" stroke-width="1.3513" stroke-miterlimit="10" cx="26.505" cy="26.291" r="12.975"/>
</g>
<g>
	<path fill="#FFFFFF" d="M33.11,29.505c-2.82-1.735-6.673-2.322-7.758-2.781c-1.085-0.458-0.545-1.11,1.519-1.831
		c2.061-0.721,5.134-1.588,3.234-2.208c-0.986-0.323-2.011-0.642-2.885-0.778l-0.709-0.029c0.195,0.06,0.444,0.165,0.74,0.27
		c1.029,0.359,2.223,0.785-1.684,1.799c-3.906,1.013-8.193,1.731-3.689,3.727s4.829,4.087,0.869,6.541
		c-1.583,0.979-3.986,1.95-6.336,2.845c2.505,1.331,5.262,2.112,8.229,2.112c2.865,0,5.166-0.586,7.688-1.77
		c0.399-0.456,0.822-1.02,1.216-1.586C35.064,33.624,35.932,31.236,33.11,29.505z"/>
</g>
<g>
	<radialGradient id="SVGID_2_" cx="26.3306" cy="14.4819" r="20.2904" gradientUnits="userSpaceOnUse">
		<stop  offset="0" style="stop-color:#FFFFFF"/>
		<stop  offset="1" style="stop-color:#F26522"/>
	</radialGradient>
	<path fill="url(#SVGID_2_)" d="M27.962,9.696c0,0.87-0.706,1.575-1.574,1.575c-0.871,0-1.573-0.705-1.573-1.575
		c0-0.871,0.702-1.576,1.573-1.576C27.256,8.12,27.962,8.825,27.962,9.696z M26.388,4.137c-0.694,0-1.261,0.563-1.261,1.26
		c0,0.697,0.566,1.261,1.261,1.261c0.695,0,1.261-0.563,1.261-1.261C27.648,4.7,27.083,4.137,26.388,4.137z M26.388,1
		c-0.557,0-1.008,0.451-1.008,1.008c0,0.558,0.451,1.009,1.008,1.009s1.008-0.451,1.008-1.009C27.396,1.451,26.944,1,26.388,1z
		 M20.759,8.995c-0.827,0.269-1.28,1.157-1.013,1.986c0.271,0.827,1.159,1.279,1.985,1.011s1.281-1.159,1.013-1.987
		C22.475,9.178,21.585,8.726,20.759,8.995z M19.527,5.206c-0.662,0.216-1.024,0.925-0.809,1.587
		c0.216,0.663,0.927,1.025,1.588,0.811s1.022-0.926,0.809-1.588C20.899,5.353,20.189,4.989,19.527,5.206z M18.558,2.222
		c-0.53,0.172-0.82,0.741-0.649,1.271c0.175,0.531,0.743,0.818,1.273,0.647c0.528-0.172,0.817-0.741,0.647-1.271
		C19.657,2.339,19.088,2.052,18.558,2.222z M15.675,11.564c-0.704,0.513-0.861,1.499-0.351,2.201
		c0.514,0.704,1.499,0.861,2.202,0.351c0.703-0.512,0.86-1.498,0.35-2.201C17.363,11.21,16.376,11.056,15.675,11.564z M13.332,8.342
		c-0.563,0.409-0.688,1.197-0.279,1.761s1.199,0.688,1.761,0.279c0.563-0.41,0.688-1.198,0.278-1.762
		C14.683,8.058,13.896,7.934,13.332,8.342z M11.488,5.805c-0.451,0.326-0.552,0.957-0.224,1.408c0.327,0.45,0.959,0.551,1.409,0.222
		c0.449-0.326,0.551-0.956,0.224-1.409C12.569,5.576,11.938,5.477,11.488,5.805z M11.632,15.581c-0.51,0.705-0.355,1.691,0.35,2.202
		c0.705,0.51,1.689,0.354,2.201-0.349c0.51-0.703,0.355-1.69-0.35-2.203C13.128,14.722,12.144,14.878,11.632,15.581z M8.41,13.238
		C8,13.803,8.125,14.591,8.689,15.001c0.562,0.409,1.35,0.283,1.76-0.28c0.409-0.562,0.284-1.352-0.28-1.759
		C9.607,12.551,8.818,12.677,8.41,13.238z M5.871,11.395c-0.327,0.451-0.229,1.082,0.223,1.41c0.45,0.327,1.082,0.228,1.41-0.223
		C7.828,12.131,7.73,11.5,7.28,11.171C6.828,10.845,6.2,10.944,5.871,11.395z M9.029,20.648c-0.268,0.829,0.185,1.719,1.012,1.986
		c0.829,0.268,1.719-0.184,1.985-1.012c0.27-0.825-0.184-1.717-1.01-1.986C10.189,19.369,9.299,19.822,9.029,20.648z M5.241,19.419
		c-0.215,0.661,0.147,1.372,0.81,1.588s1.373-0.148,1.587-0.81c0.216-0.662-0.146-1.373-0.809-1.588
		C6.166,18.395,5.457,18.757,5.241,19.419z M2.257,18.448c-0.173,0.53,0.118,1.099,0.647,1.271c0.53,0.172,1.099-0.117,1.271-0.648
		c0.172-0.529-0.118-1.097-0.646-1.27C2.997,17.629,2.429,17.92,2.257,18.448z M8.122,26.273c0,0.87,0.704,1.577,1.575,1.577
		c0.87,0,1.577-0.707,1.575-1.577c-0.001-0.868-0.705-1.574-1.575-1.576C8.828,24.699,8.122,25.405,8.122,26.273z M4.137,26.274
		c0,0.695,0.564,1.261,1.261,1.261s1.261-0.565,1.261-1.262c0.001-0.696-0.564-1.261-1.261-1.261
		C4.702,25.013,4.137,25.577,4.137,26.274z M1,26.273c0,0.558,0.451,1.009,1.009,1.009c0.557,0,1.009-0.451,1.009-1.009
		c0-0.556-0.452-1.01-1.009-1.01C1.451,25.264,1,25.718,1,26.273z M44.542,26.388c0-0.871-0.707-1.576-1.576-1.578
		c-0.87,0.002-1.576,0.71-1.576,1.578c0,0.869,0.705,1.574,1.574,1.576C43.835,27.962,44.54,27.257,44.542,26.388z M48.525,26.386
		c0-0.695-0.564-1.259-1.261-1.26c-0.696,0-1.26,0.564-1.261,1.262c0.001,0.696,0.563,1.26,1.261,1.26
		C47.959,27.647,48.525,27.085,48.525,26.386z M51.661,26.388c0-0.557-0.448-1.008-1.008-1.008c-0.557,0-1.009,0.45-1.009,1.008
		c0.003,0.558,0.453,1.01,1.009,1.01C51.211,27.397,51.661,26.942,51.661,26.388z M43.667,20.759
		c-0.269-0.829-1.158-1.282-1.986-1.014c-0.825,0.27-1.279,1.161-1.013,1.986c0.271,0.827,1.159,1.279,1.987,1.013
		C43.482,22.475,43.936,21.584,43.667,20.759z M47.456,19.525c-0.217-0.66-0.926-1.023-1.588-0.809
		c-0.663,0.214-1.025,0.927-0.811,1.59c0.217,0.661,0.928,1.022,1.589,0.807C47.308,20.899,47.671,20.189,47.456,19.525z
		 M50.441,18.557c-0.173-0.529-0.74-0.819-1.272-0.646c-0.529,0.172-0.818,0.74-0.647,1.271c0.174,0.527,0.742,0.818,1.271,0.646
		C50.323,19.656,50.611,19.084,50.441,18.557z M41.098,15.673c-0.513-0.704-1.498-0.859-2.202-0.349
		c-0.703,0.513-0.859,1.5-0.351,2.201c0.513,0.703,1.498,0.859,2.202,0.35C41.45,17.363,41.606,16.376,41.098,15.673z M44.32,13.331
		c-0.409-0.563-1.198-0.687-1.763-0.278c-0.563,0.408-0.688,1.195-0.276,1.761c0.408,0.563,1.194,0.688,1.76,0.278
		C44.602,14.684,44.729,13.896,44.32,13.331z M46.858,11.488c-0.327-0.451-0.959-0.551-1.409-0.224
		c-0.452,0.328-0.55,0.957-0.224,1.41c0.33,0.448,0.962,0.55,1.409,0.22C47.087,12.567,47.185,11.936,46.858,11.488z M37.08,11.632
		c-0.703-0.511-1.688-0.355-2.202,0.348c-0.509,0.704-0.354,1.693,0.351,2.201c0.703,0.512,1.688,0.356,2.202-0.346
		C37.94,13.128,37.783,12.144,37.08,11.632z M39.42,8.408C38.859,8,38.071,8.125,37.66,8.687c-0.408,0.563-0.281,1.352,0.28,1.762
		c0.563,0.41,1.351,0.284,1.761-0.279C40.11,9.607,39.985,8.819,39.42,8.408z M41.265,5.871c-0.448-0.328-1.08-0.229-1.407,0.223
		c-0.328,0.451-0.226,1.082,0.223,1.409c0.452,0.327,1.084,0.227,1.409-0.224C41.817,6.828,41.716,6.195,41.265,5.871z
		 M32.012,9.029c-0.827-0.269-1.716,0.186-1.987,1.012c-0.266,0.826,0.188,1.718,1.014,1.985c0.827,0.27,1.717-0.186,1.986-1.012
		C33.292,10.188,32.839,9.3,32.012,9.029z M33.242,5.241c-0.661-0.216-1.37,0.146-1.588,0.81c-0.216,0.66,0.148,1.371,0.812,1.587
		c0.661,0.215,1.371-0.147,1.585-0.81C34.267,6.167,33.906,5.456,33.242,5.241z M34.213,2.257c-0.53-0.173-1.098,0.117-1.271,0.647
		c-0.173,0.529,0.117,1.098,0.648,1.272c0.529,0.17,1.102-0.12,1.271-0.649C35.031,2.997,34.741,2.428,34.213,2.257z"/>
</g>
</svg>
