<?xml version="1.0" standalone="no"?>
<!DOCTYPE svg PUBLIC "-//W3C//DTD SVG 1.1//EN" "http://www.w3.org/Graphics/SVG/1.1/DTD/svg11.dtd" >
<svg xmlns="http://www.w3.org/2000/svg">
<metadata></metadata>
<defs>
<font id="coameibold_italic" horiz-adv-x="1001" >
<font-face units-per-em="2048" ascent="1638" descent="-410" />
<missing-glyph horiz-adv-x="699" />
<glyph horiz-adv-x="2048" />
<glyph horiz-adv-x="2048" />
<glyph unicode="&#xd;" horiz-adv-x="508" />
<glyph unicode=" "  horiz-adv-x="699" />
<glyph unicode="&#x09;" horiz-adv-x="699" />
<glyph unicode="&#xa0;" horiz-adv-x="699" />
<glyph unicode="!" horiz-adv-x="501" d="M155 -48l36 258h148l-36 -258h-148zM211 353l159 1129h148l-159 -1129h-148z" />
<glyph unicode="&#x22;" horiz-adv-x="503" d="M200 982l71 502h148l-71 -502h-148zM440 982l71 502h148l-71 -502h-148z" />
<glyph unicode="#" horiz-adv-x="1640" d="M101 376l21 149h369l150 384h-376l21 149h414l170 437l140 -37l-156 -400h379l170 437l140 -37l-156 -400h332l-21 -149h-369l-150 -384h376l-21 -149h-414l-170 -437l-140 37l156 400h-379l-170 -437l-140 37l156 400h-332zM645 525h380l149 384h-379z" />
<glyph unicode="$" horiz-adv-x="1324" d="M111 420h149q-24 -171 107 -254q112 -69 215 -76l50 359h148l-51 -365q151 0 276 74q128 76 147 212q17 119 -112 218q-84 66 -321 171q-216 96 -294 153q-143 106 -123 244q23 168 209 261q140 69 267 72l23 163h148l-22 -161q136 -2 260 -74q160 -93 130 -311h-149 q18 129 -71 181q-95 53 -191 55l-51 -364h-148l50 362q-83 -3 -186 -52q-109 -52 -120 -132q-9 -63 85 -128q66 -46 259 -132q254 -113 353 -191q179 -143 152 -335q-30 -217 -232 -336q-165 -99 -360 -99l-25 -175h-148l26 180q-152 11 -295 104q-190 126 -155 376z" />
<glyph unicode="%" horiz-adv-x="1552" d="M244 1063q25 175 139 300q118 131 264 131t229 -131q77 -125 52 -300q-24 -174 -137 -299q-119 -132 -265 -132t-228 132q-78 125 -54 299zM329 -8l971 1515l123 -67l-970 -1515zM394 1063q-17 -121 33 -205q46 -77 120 -77q75 0 143 78q72 83 89 204t-32 205 q-46 77 -121 77t-142 -76q-73 -85 -90 -206zM818 353q24 175 138 300q118 131 264 131t229 -131q77 -125 53 -300q-25 -174 -137 -299q-120 -132 -266 -132t-227 132q-79 125 -54 299zM968 353q-17 -121 32 -205q46 -77 120 -77q75 0 143 78q73 83 90 204t-33 205 q-46 77 -121 77t-141 -76q-73 -85 -90 -206z" />
<glyph unicode="&#x26;" horiz-adv-x="1602" d="M171 364q-15 153 60 295q74 140 184 211q-12 69 3 173q16 113 88 213q71 99 182 162q87 49 172 60q91 12 198 -46l-87 -132q-107 58 -224 -9q-75 -42 -123 -108t-58 -140q-11 -76 0 -152q3 -23 7 -44q54 -251 303 -474q96 -86 174 -133q67 92 88 194q20 89 -16 190 l142 65q48 -134 21 -263q-29 -140 -114 -256q160 -89 359 -89l-21 -148q-238 0 -453 121q-136 -121 -374 -121q-227 0 -369 135q-125 119 -142 296zM319 399q13 -130 106 -218q105 -100 278 -100q167 0 226 49q-63 38 -162 127q-272 245 -323 466q-46 -31 -93 -137 q-41 -91 -32 -187z" />
<glyph unicode="'" horiz-adv-x="360" d="M240 982l71 502h148l-71 -502h-148z" />
<glyph unicode="(" horiz-adv-x="815" d="M297 696q57 408 224 734q87 171 169 263l51 57l102 -85l-50 -59q-64 -72 -143 -225q-156 -306 -209 -685q-60 -429 7 -753q35 -164 78 -237l35 -56l-127 -89l-35 59q-57 92 -94 274q-72 346 -8 802z" />
<glyph unicode=")" horiz-adv-x="815" d="M150 -350l51 56q64 73 144 236q159 325 219 754q53 379 -17 685q-34 153 -79 225l-34 59l124 83l37 -54q56 -93 96 -264q74 -326 17 -734q-64 -456 -233 -802q-88 -182 -170 -274l-53 -58z" />
<glyph unicode="*" horiz-adv-x="1126" d="M307 1420l69 147l305 -104l47 337h155l-47 -337l336 104l27 -147l-336 -104l160 -273l-138 -91l-159 273l-237 -272l-113 90l237 273z" />
<glyph unicode="+" d="M166 515l21 148h326l45 325h148l-45 -325h325l-21 -148h-325l-46 -326h-148l46 326h-326z" />
<glyph unicode="," horiz-adv-x="527" d="M-24 -337l219 498l135 -43l-218 -498z" />
<glyph unicode="-" d="M166 515l21 148h799l-21 -148h-799z" />
<glyph unicode="." horiz-adv-x="503" d="M124 52q5 41 37.5 69.5t72.5 28.5q41 0 65.5 -28.5t19.5 -69.5q-6 -40 -38.5 -68.5t-73.5 -28.5q-40 0 -64.5 28.5t-18.5 68.5z" />
<glyph unicode="/" horiz-adv-x="921" d="M181 -65l629 1578l138 -37l-629 -1578z" />
<glyph unicode="0" horiz-adv-x="1240" d="M160 714q45 318 236 546q197 235 435 235q237 0 368 -235q127 -228 82 -546q-45 -319 -236 -546q-197 -236 -434 -236q-238 0 -369 236q-127 227 -82 546zM309 714q-38 -268 62 -455q96 -178 261 -178q164 0 310 178q152 187 190 455q37 267 -62 454q-96 178 -260 178 q-165 0 -311 -178q-153 -187 -190 -454z" />
<glyph unicode="1" horiz-adv-x="621" d="M248 1049l291 455l120 -29l-214 -1525h-149l164 1169l-88 -137z" />
<glyph unicode="2" horiz-adv-x="1208" d="M110 49q340 327 596 617q330 375 347 491q12 87 -61 138q-72 50 -187 50t-201 -50q-88 -51 -107 -188h-148q30 215 184 309q129 77 293 77t271 -77q128 -94 105 -259q-39 -272 -843 -1059h757l-21 -148h-954z" />
<glyph unicode="3" horiz-adv-x="1155" d="M107 343h148q-18 -131 68 -187q90 -58 224 -58q158 0 273 82q137 97 164 285q24 174 -66 263q-179 166 -438 89l-37 105l473 415h-473l21 147h684l29 -101l-461 -404q169 6 315 -139q135 -133 101 -375q-36 -255 -228 -396q-163 -119 -378 -119q-182 0 -305 86 q-143 98 -114 307z" />
<glyph unicode="4" horiz-adv-x="1207" d="M91 391l892 1105l112 -33l-143 -1014h222l-21 -149h-222l-49 -350h-149l49 350h-656zM317 449h486l103 730z" />
<glyph unicode="5" horiz-adv-x="1170" d="M97 293l11 74h148l-11 -74q-11 -81 75 -137q90 -58 224 -58q158 0 273 82q137 97 164 285q33 238 -86 333q-108 86 -279 71t-289 -54l-65 65l173 561l58 43h693l-21 -147h-613l-104 -340q68 18 234.5 19.5t315.5 -97.5q175 -140 131 -454q-36 -255 -228 -396 q-163 -119 -378 -119q-182 0 -305 86q-143 98 -121 257z" />
<glyph unicode="6" horiz-adv-x="1192" d="M168 457q52 376 254 659q261 367 707 367l-21 -148q-360 0 -569 -293l-108 -178l55 34q126 66 260 66q210 0 337 -149q128 -148 99 -358q-30 -210 -200 -358q-169 -149 -379 -149t-337 149q-128 148 -98 358zM316 457q-21 -148 69 -254q91 -105 239 -105t269 105 q120 106 141 254q20 148 -70 254q-91 105 -239 105q-146 0 -265 -103q-120 -102 -144 -256z" />
<glyph unicode="7" horiz-adv-x="1131" d="M186 0l857 1337h-805l21 149h1046l-995 -1553z" />
<glyph unicode="8" horiz-adv-x="1310" d="M143 406q22 157 151 282l170 127l-72 82q-68 99 -51 219q22 162 178 276q151 109 341 109q189 0 308 -109q125 -114 103 -276q-17 -120 -114 -219l-94 -85l133 -124q94 -125 72 -282q-28 -198 -216 -338q-183 -136 -413 -136t-376 135q-148 141 -120 339zM292 406 q-19 -131 85 -226q109 -99 283 -99q173 0 310 99q130 95 149 226q18 131 -85 226q-110 98 -283 98q-174 0 -310 -98q-131 -95 -149 -226zM490 1116q-14 -95 65 -163q82 -73 217 -73q134 0 238 73q97 68 111 163q13 94 -65 163q-83 72 -217 72q-135 0 -238 -72 q-98 -69 -111 -163z" />
<glyph unicode="9" horiz-adv-x="1210" d="M200 -50l21 148q383 0 588 199q168 165 220 300l-92 -56q-129 -69 -266 -69q-211 0 -338 149q-129 149 -99 360q29 210 200 359q169 150 380 150t338 -150q129 -149 100 -359q-55 -393 -231 -645q-269 -386 -821 -386zM382 981q-21 -149 70 -256q91 -105 240 -105 q147 0 267 103q119 102 143 254q2 3 2 4q21 148 -70 255q-92 105 -241 105t-269 -105q-121 -107 -142 -255z" />
<glyph unicode=":" horiz-adv-x="503" d="M149 232q5 41 37.5 69.5t72.5 28.5q41 0 65.5 -28.5t19.5 -69.5q-6 -40 -38.5 -68.5t-73.5 -28.5q-40 0 -64.5 28.5t-18.5 68.5zM214 699q6 41 38.5 69.5t72.5 28.5q41 0 65.5 -28.5t18.5 -69.5q-5 -40 -37.5 -68.5t-73.5 -28.5q-40 0 -64.5 28.5t-19.5 68.5z" />
<glyph unicode=";" horiz-adv-x="515" d="M-24 -337l219 498l135 -43l-218 -498zM227 699q5 41 37.5 69.5t72.5 28.5q41 0 65.5 -28.5t19.5 -69.5q-6 -40 -38.5 -68.5t-73.5 -28.5q-40 0 -64.5 28.5t-18.5 68.5z" />
<glyph unicode="&#x3c;" horiz-adv-x="1215" d="M276 561l820 532l67 -123l-647 -420l520 -506l-112 -115z" />
<glyph unicode="=" d="M141 334l21 148h799l-21 -148h-799zM199 746l21 148h799l-21 -148h-799z" />
<glyph unicode="&#x3e;" horiz-adv-x="1215" d="M203 44l662 506l-529 420l103 123l670 -532l-826 -632z" />
<glyph unicode="?" horiz-adv-x="1117" d="M214 -56l33 238h149l-33 -238h-149zM272 328l11 75q16 118 133 221q64 57 218 152q138 83 188 127q72 62 81 121q20 143 -53 223q-107 108 -233.5 81t-204.5 -138l-123 67q176 255 491 206q151 -38 224 -155q71 -117 48 -284q-17 -117 -132 -221q-65 -57 -220 -152 q-137 -83 -187 -127q-73 -62 -81 -121l-11 -75h-149z" />
<glyph unicode="@" horiz-adv-x="1732" d="M197 716q44 317 301 541q255 225 572 225t510 -225q193 -224 149 -541q-34 -242 -162 -427q-129 -184 -250 -184q-67 0 -94 57q-22 43 -10 133l-84 -44q-116 -51 -244 -51q-188 0 -308 101q-126 107 -104 261t178 261q148 102 336 102q127 0 229 -51l76 -59 q2 112 -80 192q-58 58 -204 58q-103 0 -190 -39q-62 -29 -121 -88l-90 105l60 52q133 118 361 118q202 0 298 -95q132 -132 88 -451l-57 -406q52 48 91 105q105 151 133 350q35 255 -120 437q-157 181 -412 181t-462 -181q-207 -182 -242 -437q-36 -255 119 -437 q148 -166 331 -182.5t313 39.5l17 -143q-131 -42 -270 -43q-317 0 -509 225q-194 224 -149 541zM621 562q-12 -84 65 -147q85 -67 220 -67t238 67q95 63 107 147t-65 147q-85 68 -220 68t-238 -68q-95 -63 -107 -147z" />
<glyph unicode="A" horiz-adv-x="1413" d="M22 -25l837 1528h113l408 -1529l-148 -56l-147 560h-626l-307 -560zM541 627h504l-166 618z" />
<glyph unicode="B" horiz-adv-x="1199" d="M85 -45l214 1522q144 18 252 19q28 0 54 -2q243 -13 348 -117q72 -71 72 -176q0 -24 -4 -50q-32 -197 -189 -292q130 -8 263 -145q81 -85 81 -204q0 -26 -4 -53q-28 -199 -186 -326q-235 -188 -690 -188q-80 0 -211 12zM252 92q60 -4 116 -4q343 0 532 153 q105 83 124 216q2 15 2 29q0 69 -48 118q-170 141 -455 141q-86 0 -181 -13zM364 884q232 9 362 76.5t147 190.5q2 13 2 25q0 54 -36 89q-64 64 -232 78q-59 6 -108 6q-39 0 -71 -4z" />
<glyph unicode="C" horiz-adv-x="1524" d="M195 719q45 320 291 548q247 229 551 229q306 0 488 -229l46 -53l-125 -104l-43 55q-146 182 -387 182q-240 0 -436 -183q-199 -185 -236 -445q-7 -52 -8 -102q0 -196 118 -344q146 -183 386 -183q255 0 456 200l56 58l99 -97l-56 -57q-253 -252 -576 -252 q-304 0 -487 229q-146 182 -146 424q0 60 9 124z" />
<glyph unicode="D" horiz-adv-x="1394" d="M94 -41l214 1521l69 3q39 3 96 3q348 0 582 -115q340 -166 340 -530q0 -59 -9 -123q-65 -459 -514 -652q-267 -116 -615 -116q-57 0 -96 3zM261 97q332 1 568 102q357 154 409 519q7 51 7 98q0 289 -270 421q-208 101 -539 102z" />
<glyph unicode="E" horiz-adv-x="1196" d="M87 -50l216 1534h904l-21 -148h-756l-65 -458h582l-21 -149h-582l-88 -631h842l-21 -148h-990z" />
<glyph unicode="F" horiz-adv-x="1096" d="M87 -50l216 1536h929l-21 -148h-781l-64 -459h583l-21 -148h-583l-110 -781h-148z" />
<glyph unicode="G" horiz-adv-x="1515" d="M195 713q45 326 296 557q250 233 560 233t495 -233l42 -56l-123 -103l-43 57q-148 185 -392 185q-245 0 -446 -186q-202 -188 -239 -454q-8 -54 -8 -104q0 -199 120 -349q148 -186 393 -186q254 0 443 183l53 382h-536l21 149h686l-82 -586l-21 -22q-258 -256 -585 -256 q-310 0 -494 233q-149 185 -149 431q0 61 9 125z" />
<glyph unicode="H" horiz-adv-x="1229" d="M93 -56l217 1547h149l-86 -612h725l86 612h149l-217 -1547h-149l111 787h-725l-111 -787h-149z" />
<glyph unicode="I" horiz-adv-x="453" d="M145 -50l216 1534h148l-216 -1534h-148z" />
<glyph unicode="J" horiz-adv-x="1421" d="M39 266l127 96l39 -57q143 -207 400 -207q238 0 433 180q194 183 231 440l107 767h148l-107 -767q-45 -317 -287 -542q-244 -226 -545 -226q-155 0 -289 68q-132 69 -218 192z" />
<glyph unicode="K" horiz-adv-x="1282" d="M82 -54l217 1545h148l-108 -768l892 782l90 -105l-587 -516l483 -862l-134 -86l-471 842l-302 -265l-80 -567h-148z" />
<glyph unicode="L" horiz-adv-x="1199" d="M82 -54l217 1542h149l-196 -1393h861l-21 -149h-1010z" />
<glyph unicode="M" horiz-adv-x="1764" d="M87 -44l307 1514l123 26l419 -1050l712 1050l117 -26l-119 -1514l-149 -9l95 1216l-636 -936h-103l-372 936l-246 -1216z" />
<glyph unicode="N" horiz-adv-x="1368" d="M87 -50l210 1493l113 41l743 -1240l174 1239h144l-209 -1493l-113 -41l-744 1240l-174 -1239h-144z" />
<glyph unicode="O" horiz-adv-x="1670" d="M188 715q45 325 295 555q249 232 558 232q308 0 493 -232q148 -185 148 -431q0 -60 -9 -124q-46 -325 -295 -555q-250 -232 -558 -232q-309 0 -493 232q-148 184 -148 429q0 61 9 126zM337 715q-7 -53 -7 -102q0 -199 119 -350q148 -186 392 -186q243 0 443 186 q203 188 240 452q7 52 7 101q0 200 -120 351q-148 186 -391 186q-244 0 -444 -186q-202 -188 -239 -452z" />
<glyph unicode="P" horiz-adv-x="1100" d="M87 -50l214 1522l67 7q76 8 156 8q65 0 133 -5q304 -23 431 -154q84 -87 84 -211q0 -28 -4 -58q-30 -210 -193 -340q-220 -175 -554 -175q-50 0 -102 4l-84 -598h-148zM340 697q24 -2 52 -2q71 0 167 13q215 28 334 121q107 86 127 230q2 18 2 34q0 74 -48 125 q-122 125 -418 125q-59 0 -126 -5z" />
<glyph unicode="Q" horiz-adv-x="1692" d="M198 715q45 325 295 555q249 232 558 232q308 0 493 -232q148 -185 148 -431q0 -60 -9 -124q-46 -325 -295 -555q-41 -37 -40 -37l207 -287l-132 -100l-209 293q-157 -101 -384 -101q-309 0 -493 232q-148 184 -148 429q0 61 9 126zM347 715q-7 -53 -7 -102 q0 -199 119 -350q148 -186 392 -186q177 0 280 66l-275 386l130 99l281 -391q-6 -5 28 26q202 188 239 452q7 52 7 101q0 200 -120 351q-148 186 -391 186q-244 0 -444 -186q-202 -188 -239 -452z" />
<glyph unicode="R" horiz-adv-x="1215" d="M84 -56l216 1539l68 6q76 8 158 8q65 0 134 -5q306 -24 435 -156q85 -88 85 -213q0 -28 -4 -58q-30 -213 -196 -344q-103 -83 -185 -106l348 -606l-131 -89l-374 654q-122 -28 -243 -28q-39 0 -78 3l-85 -605h-148zM338 698q51 -4 99 -4q287 0 461 138q109 87 130 233 q2 17 2 33q0 76 -50 128q-86 88 -311 113q-89 10 -164 10q-40 0 -76 -3z" />
<glyph unicode="S" horiz-adv-x="1324" d="M111 420h149q-4 -26 -3 -51q0 -133 110 -203q133 -82 331 -82q182 0 307 74q128 76 147 212q2 14 2 27q0 103 -114 191q-84 66 -321 171q-216 96 -294 153q-125 93 -125 211q0 16 2 33q23 168 209 261q153 75 349 75q198 0 327 -75q135 -78 135 -245q0 -31 -5 -66h-149 q3 22 3 41q0 97 -74 140q-99 56 -258 56q-154 0 -268 -55q-109 -52 -120 -132q-1 -6 0 -11q0 -58 85 -117q66 -46 259 -132q254 -113 353 -191q156 -124 156 -286q0 -24 -4 -49q-30 -217 -232 -336q-165 -99 -391 -99q-244 0 -411 109q-160 106 -160 301q0 36 5 75z" />
<glyph unicode="T" horiz-adv-x="1310" d="M239 1342l21 148h1192l-21 -148h-522l-196 -1392h-148l196 1392h-522z" />
<glyph unicode="U" horiz-adv-x="1383" d="M193 718l108 767h148l-108 -767q-9 -64 -9 -124q0 -182 83 -320q105 -176 285 -176t336 176q160 183 197 444l108 767h148l-108 -767q-44 -314 -244 -538q-208 -230 -458 -230t-391 230q-106 170 -106 392q0 71 11 146z" />
<glyph unicode="V" horiz-adv-x="1506" d="M252 1451l143 64l389 -1322l763 1321l128 -61l-869 -1501l-109 -3z" />
<glyph unicode="W" horiz-adv-x="2399" d="M210 1448l142 67l481 -1338l399 624l-232 647l141 67l198 -548l352 549l122 -68l-414 -647l223 -624l857 1338l124 -67l-960 -1498h-105l-245 684l-440 -684h-105z" />
<glyph unicode="X" horiz-adv-x="1582" d="M35 9l768 757l-482 657l126 97l471 -641l652 642l98 -99l-667 -656l556 -757l-126 -97l-544 741l-753 -741z" />
<glyph unicode="Y" horiz-adv-x="1477" d="M230 1432l132 86l473 -843l708 843l110 -86l-766 -910l-80 -572h-148l80 572z" />
<glyph unicode="Z" horiz-adv-x="1480" d="M52 49l1313 1292h-1041l20 148h1236l31 -99l-1312 -1292h1128l-21 -148h-1324z" />
<glyph unicode="[" horiz-adv-x="515" d="M5 -318l272 1932l372 118l26 -137l-269 -85l-242 -1724l245 -85l-65 -137z" />
<glyph unicode="\" horiz-adv-x="921" d="M397 1476l148 37l185 -1578l-148 -37z" />
<glyph unicode="]" horiz-adv-x="607" d="M-42 -299l269 85l242 1724l-245 85l65 137l339 -118l-272 -1932l-371 -118z" />
<glyph unicode="^" horiz-adv-x="1149" d="M211 690l508 794h107l285 -794l-144 -66l-227 630l-403 -630z" />
<glyph unicode="_" horiz-adv-x="1100" d="M80 -99l21 148h910l-21 -148h-910z" />
<glyph unicode="`" horiz-adv-x="767" d="M334 1671l86 134l458 -241l-86 -134z" />
<glyph unicode="a" horiz-adv-x="1284" d="M136 335q24 176 204 298q173 117 392 117q189 -3 375 -123v13q0 132 -96 226q-72 71 -252 71q-125 0 -231 -47q-49 -22 -78 -44l-59 -53l-92 110l62 51q44 38 118 71q139 64 302 64q235 0 345 -110q115 -114 115 -348q0 -79 -13 -172l-72 -512h-151l12 85 q-213 -111 -402 -111q-219 0 -358 117q-125 104 -125 247q0 24 4 50zM287 335q-2 -14 -2 -27q0 -86 83 -153q104 -83 269 -83q164 0 290 83q118 77 133 180q2 13 2 26q0 88 -84 155q-103 83 -267 83q-165 0 -292 -83q-118 -77 -132 -181z" />
<glyph unicode="b" horiz-adv-x="1229" d="M81 -59l223 1588h150l-87 -622l106 84q139 88 293 88q217 0 347 -167q104 -134 103 -309q0 -45 -6 -92q-33 -235 -209 -401q-178 -169 -395 -169q-154 0 -269 89l-82 83l-24 -172h-150zM311 511q-5 -37 -5 -72q0 -130 74 -227q93 -121 247 -121q153 0 279 120 q128 124 153 300q5 37 5 71q0 129 -74 227q-92 121 -245 121q-154 0 -281 -121q-128 -124 -153 -298z" />
<glyph unicode="c" horiz-adv-x="1086" d="M119 513q33 235 211 402q178 168 399 168q182 0 303 -98l53 -44l-102 -121l-56 44q-85 69 -219 69q-156 0 -283 -122q-131 -123 -156 -298q-5 -36 -5 -70q0 -131 77 -229q93 -121 249 -121q94 0 189 45q94 46 156 122l54 60l109 -86l-51 -61q-88 -106 -217 -167 q-130 -63 -261 -63q-221 0 -352 168q-105 133 -105 310q0 45 7 92z" />
<glyph unicode="d" horiz-adv-x="1229" d="M141 511q33 233 209 401q178 167 395 167q154 0 268 -88l83 -80l87 618h150l-223 -1588h-150l22 160l-103 -71q-140 -89 -294 -89q-217 0 -347 169q-104 132 -104 309q0 44 7 92zM292 511q-5 -37 -6 -72q0 -130 75 -228q92 -120 245 -120q154 0 281 121q128 123 153 299 q5 36 5 69q0 130 -74 229q-93 121 -247 121q-153 0 -279 -121q-129 -124 -153 -298z" />
<glyph unicode="e" horiz-adv-x="1208" d="M157 509q33 234 208 401q179 169 397 169q188 0 316 -130q126 -128 136 -325l3 -74l-916 -147q-2 -106 91 -211q92 -104 231 -104q116 0 194 25q105 35 176 120l51 60l110 -82l-50 -63q-170 -209 -502 -209q-218 0 -350 168q-102 134 -102 309q0 45 7 93zM313 554 l742 118q-8 84 -98 171q-89 86 -216 86q-153 0 -281 -122t-147 -253z" />
<glyph unicode="f" horiz-adv-x="656" d="M160 901l22 158h175l14 101q23 161 123 248q99 88 261 88h74l-21 -149h-74q-101 0 -151 -43q-50 -44 -64 -144l-14 -101h262l-22 -158h-262l-134 -951h-148l134 951h-175z" />
<glyph unicode="g" horiz-adv-x="1185" d="M137 513q33 232 206 396q175 167 391 167q151 0 264 -89l81 -76l23 165h149l-147 -1050q-43 -307 -238 -458q-193 -148 -541 -148h-76l21 150h76q298 0 442 113q134 106 167 343l15 90l-105 -77q-138 -87 -289 -87q-216 0 -344 165q-101 133 -101 306q0 44 6 90zM286 513 q-5 -35 -5 -68q0 -129 74 -225q91 -119 242 -119t275 119q127 121 151 293q5 37 5 71q0 127 -73 222q-91 120 -242 120t-275 -120q-127 -120 -152 -293z" />
<glyph unicode="h" horiz-adv-x="1185" d="M82 -50l221 1570h149l-86 -607l94 77q133 86 276 86q208 0 331 -167q94 -129 94 -299q0 -47 -7 -97l-79 -563h-149l79 563q5 37 5 72q0 127 -68 223q-85 119 -227 119q-141 0 -258 -119q-123 -122 -147 -295l-79 -563h-149z" />
<glyph unicode="i" horiz-adv-x="501" d="M155 -50l159 1129h148l-159 -1129h-148zM334 1222l36 258h148l-36 -258h-148z" />
<glyph unicode="j" horiz-adv-x="497" d="M-259 -575l21 149h75q183 0 260 106q42 59 58 173l172 1226h149l-172 -1226q-21 -152 -89 -247q-128 -181 -399 -181h-75zM354 1222l36 258h149l-36 -258h-149z" />
<glyph unicode="k" horiz-adv-x="1080" d="M83 -50l217 1542h148l-119 -847l670 427l69 -122l-415 -264l400 -678l-132 -88l-403 681l-215 -137l-72 -514h-148z" />
<glyph unicode="l" horiz-adv-x="501" d="M180 38q-4 20 -4 49q0 41 8 101l183 1300h149l-183 -1300q-7 -54 -7 -81q0 -10 1 -16q0 -3 5 -3h74l-21 -149h-74q-109 0 -131 99z" />
<glyph unicode="m" horiz-adv-x="2038" d="M86 -50l158 1126h149l-22 -159l93 73q133 86 277 86q162 0 278 -109q110 -104 112 -114q4 10 145 114q146 109 308 109q208 0 331 -167q94 -129 94 -299q0 -47 -7 -97l-79 -563h-149l79 563q5 37 5 72q0 127 -68 223q-85 119 -227 119q-141 0 -258 -119 q-123 -122 -147 -295l-79 -563h-149l79 563q5 37 5 72q0 127 -68 223q-85 119 -226 119q-142 0 -259 -119q-123 -122 -147 -295l-79 -563h-149z" />
<glyph unicode="n" horiz-adv-x="1247" d="M96 -50l159 1130h150l-24 -172l103 84q140 88 291 88q217 0 346 -167q102 -132 101 -306q0 -45 -6 -92l-79 -565h-150l79 565q5 37 5 71q0 128 -73 224q-92 121 -244 121t-277 -120q-127 -122 -152 -296l-79 -565h-150z" />
<glyph unicode="o" horiz-adv-x="1159" d="M123 519q33 234 208 399q178 169 396 169t348 -169q103 -131 103 -307q0 -45 -7 -92q-33 -236 -208 -401q-178 -169 -396 -169t-348 169q-103 131 -103 308q0 45 7 93zM273 519q-5 -37 -6 -72q0 -130 75 -226q92 -121 246 -121q153 0 280 121q129 122 154 298q5 36 5 70 q0 129 -75 226q-93 122 -246 122q-154 0 -280 -121q-128 -123 -153 -297z" />
<glyph unicode="p" horiz-adv-x="1229" d="M18 -504l223 1588h150l-23 -167l104 78q140 89 294 89q217 0 347 -169q104 -132 104 -309q0 -44 -7 -92q-33 -233 -209 -401q-178 -167 -395 -167q-154 0 -268 88l-83 79l-87 -617h-150zM311 514q-5 -36 -5 -69q0 -130 74 -229q93 -121 247 -121q153 0 279 121 q129 124 153 298q5 37 5 72q0 130 -74 228q-92 120 -245 120q-154 0 -281 -121q-128 -123 -153 -299z" />
<glyph unicode="q" horiz-adv-x="1229" d="M141 514q33 235 209 401q178 169 395 169q154 0 269 -89l82 -80l24 169h150l-223 -1588h-150l85 607l-104 -69q-139 -88 -293 -88q-217 0 -348 167q-103 134 -103 309q0 45 7 92zM292 514q-5 -37 -5 -71q0 -129 74 -227q92 -121 245 -121q154 0 281 121q128 124 153 298 q5 36 5 70q0 131 -74 229q-93 121 -247 121q-153 0 -279 -120q-129 -124 -153 -300z" />
<glyph unicode="r" horiz-adv-x="806" d="M135 -50l159 1131h150l-22 -159l102 71q139 88 291 88h75l-21 -149h-75q-152 0 -278 -120q-127 -123 -151 -296l-80 -566h-150z" />
<glyph unicode="s" horiz-adv-x="1041" d="M98 360h149q-4 -30 -4 -56q0 -107 69 -153q85 -56 218 -56q135 0 235 56q102 58 116 159q1 6 1 12q0 59 -82 111q-63 39 -235 101q-158 56 -213 92q-96 58 -96 143q0 11 2 23q20 142 157 224q111 67 254 67q144 0 236 -67q93 -66 93 -205q0 -33 -5 -69h-149q3 25 3 46 q0 76 -45 106q-60 39 -155 39t-163 -39q-77 -43 -78 -104q0 -16 54 -44q45 -26 173 -71q195 -71 273 -122q127 -87 128 -209q0 -17 -3 -34q-25 -179 -198 -281q-141 -83 -324 -83q-182 0 -300 83q-117 85 -117 252q0 37 6 79z" />
<glyph unicode="t" horiz-adv-x="659" d="M159 937l22 160h181l64 453h151l-64 -453h271l-22 -160h-271l-139 -987h-151l139 987h-181z" />
<glyph unicode="u" horiz-adv-x="1148" d="M171 517l80 571h150l-80 -570q-9 -64 -9 -117q0 -301 279 -301q329 0 388 418l80 570h150l-80 -571q-41 -254 -157 -391q-150 -176 -402 -176t-352 176q-56 98 -56 256q0 63 9 135z" />
<glyph unicode="v" horiz-adv-x="1244" d="M167 1050l144 68l338 -938l601 938l125 -68l-705 -1100h-108z" />
<glyph unicode="w" horiz-adv-x="1895" d="M166 1059l145 66l321 -940l331 535l-115 339l145 66l80 -231l142 231l128 -66l-212 -339l183 -535l583 940l128 -66l-690 -1109h-109l-202 596l-371 -596h-110z" />
<glyph unicode="x" horiz-adv-x="1256" d="M32 11l577 554l-338 445l126 99l329 -431l448 431l97 -99l-461 -445l421 -554l-126 -99l-411 541l-564 -541z" />
<glyph unicode="y" horiz-adv-x="1183" d="M123 -535l396 600l-370 980l143 70l333 -887l585 887l123 -70l-661 -1003l-11 -18l-415 -629z" />
<glyph unicode="z" horiz-adv-x="1277" d="M60 53l1005 881h-781l21 150h994l30 -103l-1004 -881h878l-21 -150h-1092z" />
<glyph unicode="{" horiz-adv-x="955" d="M88 658l276 71q53 14 110 107q137 217 108 684l-4 62l385 122l26 -137l-258 -82q20 -371 -88 -620q-74 -174 -130 -207q47 -35 70 -222q34 -269 -96 -681l236 -82l-65 -137l-350 123l21 61q167 517 93 756q-30 101 -77 114z" />
<glyph unicode="|" horiz-adv-x="453" d="M102 -355l282 2008h148l-282 -2008h-148z" />
<glyph unicode="}" horiz-adv-x="955" d="M20 -327l260 82q-16 412 93 681q77 187 133 222q-47 33 -72 207q-36 249 88 620l-236 82l65 137l350 -122l-21 -62q-159 -467 -86 -684q32 -93 81 -107l256 -71l-276 -68q-51 -13 -110 -114q-140 -239 -118 -757l2 -61l-382 -122z" />
<glyph unicode="~" horiz-adv-x="1302" d="M398 1399l71 19q173 49 355 -8q125 -39 247 -14q59 12 91 30l71 41l49 -131l-63 -36q-91 -53 -225 -61q-115 -6 -230 29q-146 45 -275 8l-75 -23z" />
<glyph unicode="&#xa1;" horiz-adv-x="501" d="M96 -470l159 1129h148l-159 -1129h-148zM275 802l36 258h148l-36 -258h-148z" />
<glyph unicode="&#xa2;" horiz-adv-x="1145" d="M139 513q33 235 211 402q178 168 399 168q93 0 127 -11l113 218l120 -49l-111 -216q10 -4 54 -40l53 -44l-102 -121l-56 44q-30 25 -22 21l-408 -784q18 -8 93 -8q94 0 189 45q94 46 156 122l54 60l109 -86l-51 -61q-88 -106 -217 -167q-130 -63 -261 -63q-105 0 -146 18 l-115 -223l-121 51l121 231q-36 21 -91 91q-131 167 -98 402zM289 513q-25 -175 72 -299q38 -50 41 -51l400 768q-7 2 -74 2q-156 0 -283 -122q-131 -123 -156 -298z" />
<glyph unicode="&#xa3;" horiz-adv-x="1061" d="M104 80q62 24 94 70q72 105 104 335h-117l21 149h98l-15 42q-20 78 -11 143q18 129 150 200q106 57 243 57q136 0 227 -57q113 -71 95 -200l-11 -74h-149l11 74q6 43 -41 73q-58 35 -153 35q-92 0 -159 -34q-58 -30 -64 -74q-5 -35 8 -86q20 -74 21 -99h274l-21 -149 h-257q-43 -298 -74 -337q301 28 596 -61l-52 -146q-379 102 -787 4z" />
<glyph unicode="&#xa4;" horiz-adv-x="1135" d="M190 342l115 100q-56 76 -35 225q21 150 98 226l-87 100l118 103l86 -101q85 67 235 67q149 0 216 -67l114 101l88 -103l-115 -100q57 -76 36 -226q-21 -149 -99 -225l87 -100l-117 -103l-86 101q-86 -67 -235 -67q-150 0 -216 67l-114 -101zM415 667q-15 -103 48 -176 t167 -73q103 0 187 73q82 73 97 176q14 104 -47 177q-64 73 -167 73q-104 0 -187 -73q-84 -73 -98 -177z" />
<glyph unicode="&#xa5;" horiz-adv-x="1219" d="M222 220l21 148h331l6 47h-331l21 148h331l-4 -30l-334 927l143 67l292 -810l519 810l123 -67l-594 -927l4 30h319l-21 -148h-319l-6 -47h319l-21 -148h-319l-38 -270h-149l38 270h-331z" />
<glyph unicode="&#xa6;" horiz-adv-x="453" d="M117 -249l107 762h148l-107 -762h-148zM271 847l107 762h148l-107 -762h-148z" />
<glyph unicode="&#xa7;" horiz-adv-x="1045" d="M94 215h151q-12 -84 49 -112q71 -32 183 -32q134 0 232 46q83 39 91 96q6 42 -49 73q-48 26 -189 65q-186 50 -263 97q-113 80 -137 162.5t12 161t138 138.5t169 67q-74 9 -134 48q-119 75 -101 205q22 153 192 237q130 65 298 65q151 0 251 -54q128 -70 103 -248h-150 q13 88 -47 117q-69 34 -178 34q-130 0 -225 -47q-84 -41 -93 -104q-6 -46 50 -80q44 -26 185 -67q166 -48 236 -89q131 -74 148 -196q12 -39 6 -84q-18 -127 -123 -187t-185 -70q71 -5 136 -43q119 -74 101 -201q-21 -150 -193 -232q-132 -61 -302 -61q-153 0 -254 52 q-133 67 -108 243zM323.5 710.5q-3.5 -53.5 60.5 -89.5q78 -42 190 -42q114 0 204 44q79 38 90.5 73t-1.5 60.5t-81 57.5q-74 35 -174 35q-118 0 -211 -47q-74 -38 -77.5 -91.5z" />
<glyph unicode="&#xa8;" horiz-adv-x="795" d="M340 1351q5 41 37.5 69.5t72.5 28.5q41 0 65.5 -28.5t19.5 -69.5q-6 -40 -38.5 -68.5t-73.5 -28.5q-40 0 -64.5 28.5t-18.5 68.5zM627 1351q5 40 37 69t73 29t65 -29t19 -69q-6 -39 -38 -68t-73 -29t-65 29t-18 68z" />
<glyph unicode="&#xa9;" horiz-adv-x="1754" d="M202 717q44 318 301 542q255 225 573 225t511 -225q193 -224 149 -542q-45 -318 -301 -542q-256 -225 -574 -225t-510 225q-194 224 -149 542zM350 717q-36 -256 119 -438q157 -181 413 -181t463 181q207 182 243 438t-120 438q-156 181 -412 181t-464 -181 q-206 -182 -242 -438zM502 703q29 208 185 357q157 150 351 150q160 0 267 -87l52 -46l-105 -116l-53 43q-70 58 -182 58q-130 0 -236 -103q-110 -106 -131 -256t59 -256q77 -103 207 -103q79 0 158 38q79 39 131 103l52 61l107 -83l-48 -61q-78 -94 -192 -150t-229 -56 q-194 0 -308 150q-115 149 -85 357z" />
<glyph unicode="&#xaa;" horiz-adv-x="928" d="M197 935q19 131 148 222q124 87 278 87q99 0 178 -38l50 -21q-6 55 -57.5 99.5t-157.5 44.5q-152 4 -257 -99l-80 93q127 139 358 155q166 0 260 -96.5t56 -361.5l-52 -369l-149 -3l7 48q-144 -70 -243 -70q-154 0 -254 87q-103 91 -85 222zM346 935q-8 -62 48 -108 q63 -52 163 -52t177 52q70 46 78 108q9 62 -47 108q-63 52 -163 52t-177 -52q-70 -46 -79 -108z" />
<glyph unicode="&#xab;" horiz-adv-x="1750" d="M276 561l820 532l67 -123l-647 -420l520 -506l-112 -115zM783 561l820 532l67 -123l-647 -420l520 -506l-112 -115z" />
<glyph unicode="&#xac;" d="M220 897l21 148h799l-46 -325h-148l25 177h-651z" />
<glyph unicode="&#xad;" d="M166 515l21 148h799l-21 -148h-799z" />
<glyph unicode="&#xae;" horiz-adv-x="1747" d="M200 716q44 317 301 541q255 225 572 225t510 -225q193 -224 149 -541q-45 -317 -301 -541q-256 -225 -573 -225t-509 225q-194 224 -149 541zM348 716q-36 -255 119 -437q157 -181 412 -181t462 181q207 182 243 437q35 255 -120 437q-157 181 -412 181t-462 -181 q-207 -182 -242 -437zM588 209l143 1018l67 7q81 9 177 2q189 -14 272 -101q76 -75 59 -195q-21 -149 -137 -241q-62 -48 -79 -54l202 -377l-134 -83l-223 415q-76 -17 -146 -13l-53 -378h-148zM810 736q169 -11 277 73q59 48 71 131q7 53 -24 84q-80 82 -274 68z" />
<glyph unicode="&#xaf;" horiz-adv-x="1100" d="M281 1334l21 148h910l-21 -148h-910z" />
<glyph unicode="&#xb0;" horiz-adv-x="508" d="M282 1314q9 65 62 110.5t117 45.5t104 -45.5t31 -110.5q-9 -66 -62 -111.5t-117 -45.5t-104 45.5t-31 111.5zM429 1313q0 -4 2.5 -7t7.5 -3t8.5 3t3.5 7q1 5 -1.5 8t-7.5 3t-8.5 -3t-4.5 -8z" />
<glyph unicode="&#xb1;" d="M104 70l21 148h799l-21 -148h-799zM183 633l21 148h326l46 325h148l-46 -325h325l-21 -148h-325l-46 -326h-148l46 326h-326z" />
<glyph unicode="&#xb2;" horiz-adv-x="811" d="M176 758q209 171 357 316q172 168 178 207q2 17 -22 31q-37 23 -101 23q-61 0 -104 -21q-32 -16 -42 -83h-147q22 152 127 208q82 43 187 43q104 0 174 -43q90 -56 76 -158q-21 -147 -417 -480h376l-21 -148h-595z" />
<glyph unicode="&#xb3;" horiz-adv-x="725" d="M192 900h147q-10 -70 19 -88q36 -23 90 -23q64 0 111 33q53 38 64 114q14 88 -55.5 135.5t-175.5 0.5l-37 105l178 157h-171l21 148h381l28 -103l-177 -156q178 -82 155 -287q-20 -142 -127 -224q-94 -70 -215 -70q-100 0 -171 48q-86 61 -65 210z" />
<glyph unicode="&#xb4;" horiz-adv-x="767" d="M319 1564l526 241l48 -134l-526 -241z" />
<glyph unicode="&#xb5;" horiz-adv-x="1148" d="M37 -464l219 1555h148l-90 -637q-27 -354 277 -354q329 0 388 418l80 570h150l-80 -571q-41 -254 -157 -391q-150 -176 -402 -176t-352 176q-21 37 31 -135l-64 -455h-148z" />
<glyph unicode="&#xb6;" horiz-adv-x="1100" d="M185 1012q28 198 146 339q124 151 275 151h603l-21 -151h-159l-204 -1449h-151l204 1449h-217l-204 -1449h-151l88 627q-95 12 -167 157q-68 140 -42 326z" />
<glyph unicode="&#xb7;" horiz-adv-x="600" d="M238 555q8 57 54 97.5t102 40.5q57 0 92 -40.5t27 -97.5q-8 -56 -54 -96.5t-103 -40.5q-56 0 -91 40.5t-27 96.5z" />
<glyph unicode="&#xb8;" horiz-adv-x="600" d="M53 -322l21 148h74q52 0 112 14q81 18 85 44q3 25 -73 44q-55 13 -108 13h-74l21 149h74q84 0 159 -22q169 -49 150 -184t-202 -184q-81 -22 -165 -22h-74z" />
<glyph unicode="&#xb9;" horiz-adv-x="625" d="M276 1248l281 246l96 -41l-111 -789h-147l81 577l-111 -97z" />
<glyph unicode="&#xba;" horiz-adv-x="883" d="M244 1063q25 175 139 300q118 131 264 131t229 -131q77 -125 52 -300q-24 -174 -137 -299q-119 -132 -265 -132t-228 132q-78 125 -54 299zM394 1063q-17 -121 33 -205q46 -77 120 -77q75 0 143 78q72 83 89 204t-32 205q-46 77 -121 77t-142 -76q-73 -85 -90 -206z" />
<glyph unicode="&#xbb;" horiz-adv-x="1750" d="M203 44l662 506l-529 420l102 123l671 -532l-826 -632zM710 44l662 506l-529 420l102 123l671 -532l-826 -632z" />
<glyph unicode="&#xbc;" horiz-adv-x="1426" d="M240 -8l970 1515l125 -67l-971 -1515zM277 1248l280 246l96 -41l-111 -789h-147l82 577l-111 -97zM684 210l491 565l107 -37l-67 -474h139l-20 -147h-139l-24 -170h-148l24 170h-329zM914 264h153l30 211z" />
<glyph unicode="&#xbd;" horiz-adv-x="1426" d="M200 -8l970 1515l125 -67l-971 -1515zM277 1248l280 246l96 -41l-111 -789h-147l82 577l-111 -97zM692 55q208 172 356 317q173 168 178 207q3 17 -22 31q-37 23 -101 23q-61 0 -104 -21q-32 -16 -42 -83h-147q22 152 128 208q82 43 186 43q105 0 174 -43q90 -56 75 -158 q-20 -147 -416 -480h377l-21 -148h-595z" />
<glyph unicode="&#xbe;" horiz-adv-x="1405" d="M222 900h147q-10 -70 19 -88q36 -23 90 -23q64 0 111 33q53 38 64 114q10 70 -34.5 114t-196.5 22l-37 105l178 157h-171l21 148h381l28 -103l-177 -156q23 -1 96 -72q78 -77 59 -215q-20 -142 -127 -224q-94 -70 -215 -70q-100 0 -171 48q-86 61 -65 210zM279 -8 l971 1515l124 -67l-971 -1515zM661 217l490 565l106 -37l-66 -474h140l-21 -147h-140l-24 -170h-147l24 170h-329zM890 271h154l29 211z" />
<glyph unicode="&#xbf;" horiz-adv-x="981" d="M62 3q17 117 133 221q65 57 219 152q138 83 188 127q72 62 81 121l10 75h149l-10 -75q-17 -118 -133 -221q-64 -57 -219 -152q-137 -83 -188 -127q-72 -62 -81 -121q-20 -143 53 -223q107 -108 234.5 -81t203.5 138l124 -67q-177 -255 -492 -206q-151 38 -223 155 t-49 284zM718 845l33 238h149l-33 -238h-149z" />
<glyph unicode="&#xc0;" horiz-adv-x="1413" d="M22 -25l837 1528h113l408 -1529l-148 -56l-147 560h-626l-307 -560zM541 627h504l-166 618zM659 1671l86 134l459 -242l-87 -132z" />
<glyph unicode="&#xc1;" horiz-adv-x="1413" d="M22 -25l837 1528h113l408 -1529l-148 -56l-147 560h-626l-307 -560zM541 627h504l-166 618zM673 1563l528 242l47 -134l-524 -240z" />
<glyph unicode="&#xc2;" horiz-adv-x="1413" d="M22 -25l837 1528h113l408 -1529l-148 -56l-147 560h-626l-307 -560zM507 1580l421 197h44l367 -197l-84 -129l-326 175l-376 -175zM541 627h504l-166 618z" />
<glyph unicode="&#xc3;" horiz-adv-x="1413" d="M22 -25l837 1528h113l408 -1529l-148 -56l-147 560h-626l-307 -560zM515 1706q209 70 425 11q246 -60 409 57l50 -131q-205 -129 -491 -75q-209 61 -376 -8zM541 627h504l-166 618z" />
<glyph unicode="&#xc4;" horiz-adv-x="1413" d="M22 -25l837 1528h113l408 -1529l-148 -56l-147 560h-626l-307 -560zM541 627h504l-166 618zM693 1667q6 41 38.5 69.5t72.5 28.5q41 0 65.5 -28.5t18.5 -69.5q-6 -40 -38.5 -68.5t-73.5 -28.5q-40 0 -64.5 28.5t-18.5 68.5zM980 1667q5 40 37.5 69t73.5 29t64.5 -29 t18.5 -69q-6 -39 -38 -68t-73 -29t-65 29t-18 68z" />
<glyph unicode="&#xc5;" horiz-adv-x="1413" d="M22 -25l837 1528h113l408 -1529l-148 -56l-147 560h-626l-307 -560zM541 627h504l-166 618zM803 1668q8 54 52 92.5t98 38.5t88 -38.5t26 -92.5q-8 -55 -52.5 -93.5t-98.5 -38.5t-87.5 38.5t-25.5 93.5zM900 1667q-2 -14 7 -24.5t24 -10.5t27 10.5t14 24.5q2 15 -7 25.5 t-24 10.5t-27 -10.5t-14 -25.5z" />
<glyph unicode="&#xc6;" horiz-adv-x="2370" d="M117 13l1390 1472h878l-21 -148h-756l-64 -459h583l-21 -148h-583l-89 -632h843l-21 -148h-991l73 520h-595l-525 -550zM884 618h475l82 584z" />
<glyph unicode="&#xc7;" horiz-adv-x="1385" d="M105 719q45 320 291 548q247 229 551 229q306 0 488 -229l46 -53l-125 -104l-43 55q-146 182 -387 182q-240 0 -436 -183q-199 -185 -236 -445q-37 -261 110 -446q146 -183 386 -183q255 0 456 200l56 58l99 -97l-56 -57q-130 -129 -278 -192q42 -47 32 -118 q-19 -135 -202 -184q-81 -22 -165 -22h-74l21 148h74q52 0 112 14q81 18 85 44q3 25 -73 44q-55 13 -108 13h-74v5q-253 24 -413 225q-182 227 -137 548z" />
<glyph unicode="&#xc8;" horiz-adv-x="1196" d="M87 -50l216 1534h904l-21 -148h-756l-65 -458h582l-21 -149h-582l-88 -631h842l-21 -148h-990zM535 1671l85 134l460 -242l-88 -132z" />
<glyph unicode="&#xc9;" horiz-adv-x="1196" d="M87 -50l216 1534h904l-21 -148h-756l-65 -458h582l-21 -149h-582l-88 -631h842l-21 -148h-990zM569 1563l528 242l47 -134l-525 -240z" />
<glyph unicode="&#xca;" horiz-adv-x="1196" d="M87 -50l216 1534h904l-21 -148h-756l-65 -458h582l-21 -149h-582l-88 -631h842l-21 -148h-990zM362 1580l422 197h44l366 -197l-83 -129l-326 175l-376 -175z" />
<glyph unicode="&#xcb;" horiz-adv-x="1196" d="M87 -50l216 1534h904l-21 -148h-756l-65 -458h582l-21 -149h-582l-88 -631h842l-21 -148h-990zM558 1667q6 41 38.5 69.5t72.5 28.5q41 0 65.5 -28.5t18.5 -69.5q-5 -40 -37.5 -68.5t-73.5 -28.5q-40 0 -64.5 28.5t-19.5 68.5zM845 1667q6 40 38 69t73 29t65 -29t18 -69 q-5 -39 -37 -68t-73 -29t-65 29t-19 68z" />
<glyph unicode="&#xcc;" horiz-adv-x="488" d="M162 -50l216 1534h148l-216 -1534h-148zM238 1671l86 134l458 -241l-86 -134z" />
<glyph unicode="&#xcd;" horiz-adv-x="488" d="M163 -50l216 1534h148l-216 -1534h-148zM223 1563l528 242l46 -134l-524 -240z" />
<glyph unicode="&#xce;" horiz-adv-x="486" d="M48 1580l422 197h44l364 -196l-80 -130l-328 175l-375 -175zM162 -50l216 1534h148l-216 -1534h-148z" />
<glyph unicode="&#xcf;" horiz-adv-x="453" d="M145 -50l216 1534h148l-216 -1534h-148zM218 1667q6 41 38.5 69.5t72.5 28.5q41 0 65.5 -28.5t18.5 -69.5q-5 -40 -37.5 -68.5t-73.5 -28.5q-40 0 -64.5 28.5t-19.5 68.5zM505 1667q6 40 38 69t73 29t65 -29t18 -69q-5 -39 -37 -68t-73 -29t-65 29t-19 68z" />
<glyph unicode="&#xd0;" horiz-adv-x="1556" d="M190 640l21 152h160l97 688l69 3q39 3 96 3q348 0 583 -115q395 -193 330 -653q-65 -459 -514 -652q-267 -116 -615 -116q-57 0 -96 3l-67 6l96 681h-160zM422 97q-18 1 16 1q315 0 551 101q358 154 409 519t-263 519q-208 101 -523 101q-34 0 -16 1l-77 -547h464 l-21 -152h-464z" />
<glyph unicode="&#xd1;" horiz-adv-x="1368" d="M87 -50l210 1493l113 41l743 -1240l174 1239h144l-209 -1493l-113 -41l-744 1240l-174 -1239h-144zM488 1686l70 19q173 49 355 -8q125 -39 248 -14q59 12 90 30l71 41l50 -131l-63 -36q-91 -53 -226 -61q-115 -6 -229 29q-147 45 -275 8l-75 -23z" />
<glyph unicode="&#xd2;" horiz-adv-x="1670" d="M188 715q45 325 295 555q249 232 558 232q308 0 493 -232q184 -230 139 -555q-46 -325 -295 -555q-250 -232 -558 -232q-309 0 -493 232q-185 230 -139 555zM337 715q-37 -264 112 -452q148 -186 392 -186q243 0 443 186q203 188 240 452t-113 452q-148 186 -391 186 q-244 0 -444 -186q-202 -188 -239 -452zM807 1671l85 134l460 -242l-88 -132z" />
<glyph unicode="&#xd3;" horiz-adv-x="1670" d="M188 715q45 325 295 555q249 232 558 232q308 0 493 -232q184 -230 139 -555q-46 -325 -295 -555q-250 -232 -558 -232q-309 0 -493 232q-185 230 -139 555zM337 715q-37 -264 112 -452q148 -186 392 -186q243 0 443 186q203 188 240 452t-113 452q-148 186 -391 186 q-244 0 -444 -186q-202 -188 -239 -452zM785 1563l528 242l47 -134l-525 -240z" />
<glyph unicode="&#xd4;" horiz-adv-x="1670" d="M188 715q45 325 295 555q249 232 558 232q308 0 493 -232q184 -230 139 -555q-46 -325 -295 -555q-250 -232 -558 -232q-309 0 -493 232q-185 230 -139 555zM337 715q-37 -264 112 -452q148 -186 392 -186q243 0 443 186q203 188 240 452t-113 452q-148 186 -391 186 q-244 0 -444 -186q-202 -188 -239 -452zM642 1580l422 197h44l366 -197l-83 -129l-326 175l-376 -175z" />
<glyph unicode="&#xd5;" horiz-adv-x="1670" d="M188 715q45 325 295 555q249 232 558 232q308 0 493 -232q184 -230 139 -555q-46 -325 -295 -555q-250 -232 -558 -232q-309 0 -493 232q-185 230 -139 555zM337 715q-37 -264 112 -452q148 -186 392 -186q243 0 443 186q203 188 240 452t-113 452q-148 186 -391 186 q-244 0 -444 -186q-202 -188 -239 -452zM639 1686l70 19q173 49 355 -8q125 -39 248 -14q59 12 90 30l71 41l50 -131l-63 -36q-91 -53 -225 -61q-116 -6 -230 29q-147 45 -275 8l-74 -23z" />
<glyph unicode="&#xd6;" horiz-adv-x="1670" d="M188 715q45 325 295 555q249 232 558 232q308 0 493 -232q184 -230 139 -555q-46 -325 -295 -555q-250 -232 -558 -232q-309 0 -493 232q-185 230 -139 555zM337 715q-37 -264 112 -452q148 -186 392 -186q243 0 443 186q203 188 240 452t-113 452q-148 186 -391 186 q-244 0 -444 -186q-202 -188 -239 -452zM828 1667q6 41 38.5 69.5t72.5 28.5q41 0 65.5 -28.5t18.5 -69.5q-5 -40 -37.5 -68.5t-73.5 -28.5q-40 0 -64.5 28.5t-19.5 68.5zM1115 1667q6 40 38 69t73 29t65 -29t18 -69q-5 -39 -37 -68t-73 -29t-65 29t-19 68z" />
<glyph unicode="&#xd7;" horiz-adv-x="1043" d="M230 358l263 231l-198 230l120 105l197 -231l262 230l91 -105l-263 -229l197 -230l-119 -105l-197 230l-263 -231z" />
<glyph unicode="&#xd8;" horiz-adv-x="1670" d="M188 715q45 325 295 555q249 232 558 232q182 0 279 -57l89 141l121 -64l-94 -150q38 -26 99 -102q183 -230 138 -555q-46 -325 -295 -555q-250 -232 -558 -232q-173 0 -266 51l-105 -165l-121 62l109 172q-46 30 -110 112q-185 230 -139 555zM337 715q-37 -264 112 -452 q52 -66 73 -80l713 1128q-71 42 -215 42q-244 0 -444 -186q-202 -188 -239 -452zM639 113q65 -36 202 -36q243 0 443 186q203 188 240 452t-112 452q-48 59 -62 69z" />
<glyph unicode="&#xd9;" horiz-adv-x="1383" d="M193 718l108 767h148l-108 -767q-36 -260 74 -444q105 -176 285 -176t336 176q160 183 197 444l108 767h148l-108 -767q-44 -314 -244 -538q-208 -230 -458 -230t-391 230q-139 224 -95 538zM625 1671l85 134l460 -242l-88 -132z" />
<glyph unicode="&#xda;" horiz-adv-x="1383" d="M193 718l108 767h148l-108 -767q-36 -260 74 -444q105 -176 285 -176t336 176q160 183 197 444l108 767h148l-108 -767q-44 -314 -244 -538q-208 -230 -458 -230t-391 230q-139 224 -95 538zM689 1563l528 242l47 -134l-525 -240z" />
<glyph unicode="&#xdb;" horiz-adv-x="1383" d="M193 718l108 767h148l-108 -767q-36 -260 74 -444q105 -176 285 -176t336 176q160 183 197 444l108 767h148l-108 -767q-44 -314 -244 -538q-208 -230 -458 -230t-391 230q-139 224 -95 538zM502 1580l422 197h44l366 -197l-83 -129l-326 175l-376 -175z" />
<glyph unicode="&#xdc;" horiz-adv-x="1383" d="M193 718l108 767h148l-108 -767q-36 -260 74 -444q105 -176 285 -176t336 176q160 183 197 444l108 767h148l-108 -767q-44 -314 -244 -538q-208 -230 -458 -230t-391 230q-139 224 -95 538zM699 1667q5 41 37.5 69.5t72.5 28.5q41 0 65.5 -28.5t19.5 -69.5 q-6 -40 -38.5 -68.5t-73.5 -28.5q-40 0 -64.5 28.5t-18.5 68.5zM986 1667q5 40 37 69t73 29t65 -29t19 -69q-6 -39 -38 -68t-73 -29t-65 29t-18 68z" />
<glyph unicode="&#xdd;" horiz-adv-x="1477" d="M230 1432l132 86l473 -843l708 843l110 -86l-766 -910l-80 -572h-148l80 572zM757 1563l528 242l49 -134l-525 -240z" />
<glyph unicode="&#xde;" horiz-adv-x="1100" d="M102 -355l282 2008h148l-70 -503h171q253 -5 376 -102q159 -125 123 -377q-35 -252 -229 -377q-150 -97 -405 -102h-171l-77 -547h-148zM348 342h170q418 0 464 329t-372 329h-170z" />
<glyph unicode="&#xdf;" horiz-adv-x="1062" d="M81 -78l162 1155q30 211 142 326q105 108 248 108q139 0 239 -95q108 -103 88 -246q-12 -86 -141 -223q-96 -102 -94 -131q1 -30 85 -85q173 -116 228 -265q36 -97 -12 -233q-49 -144 -160 -235q-118 -96 -263 -96q-142 0 -329 123l96 130q149 -98 248 -101q89 -3 160 56 q70 56 104 150q29 85 11 139q-40 110 -180 202q-64 44 -90 70q-47 49 -51 115q-4 68 48 144q26 39 94 111q91 97 95 129q11 73 -52 131q-63 59 -145 59q-81 0 -135 -66q-63 -76 -83 -217l-162 -1155h-151z" />
<glyph unicode="&#xe0;" horiz-adv-x="1284" d="M136 335q24 176 204 298q173 117 392 117q189 -3 375 -123q5 141 -96 239q-72 71 -252 71q-125 0 -231 -47q-49 -22 -78 -44l-59 -53l-92 110l62 51q44 38 118 71q139 64 302 64q235 0 345 -110q154 -152 102 -520l-72 -512h-151l12 85q-213 -111 -402 -111 q-219 0 -358 117q-146 122 -121 297zM287 335q-15 -103 81 -180q104 -83 269 -83q164 0 290 83q118 77 133 180q14 104 -82 181q-103 83 -267 83q-165 0 -292 -83q-118 -77 -132 -181zM599 1351l85 134l460 -242l-87 -132z" />
<glyph unicode="&#xe1;" horiz-adv-x="1284" d="M136 335q24 176 204 298q173 117 392 117q189 -3 375 -123q5 141 -96 239q-72 71 -252 71q-125 0 -231 -47q-49 -22 -78 -44l-59 -53l-92 110l62 51q44 38 118 71q139 64 302 64q235 0 345 -110q154 -152 102 -520l-72 -512h-151l12 85q-213 -111 -402 -111 q-219 0 -358 117q-146 122 -121 297zM287 335q-15 -103 81 -180q104 -83 269 -83q164 0 290 83q118 77 133 180q14 104 -82 181q-103 83 -267 83q-165 0 -292 -83q-118 -77 -132 -181zM613 1243l528 242l47 -134l-524 -240z" />
<glyph unicode="&#xe2;" horiz-adv-x="1284" d="M136 335q24 176 204 298q173 117 392 117q189 -3 375 -123q5 141 -96 239q-72 71 -252 71q-125 0 -231 -47q-49 -22 -78 -44l-59 -53l-92 110l62 51q44 38 118 71q139 64 302 64q235 0 345 -110q154 -152 102 -520l-72 -512h-151l12 85q-213 -111 -402 -111 q-219 0 -358 117q-146 122 -121 297zM287 335q-15 -103 81 -180q104 -83 269 -83q164 0 290 83q118 77 133 180q14 104 -82 181q-103 83 -267 83q-165 0 -292 -83q-118 -77 -132 -181zM425 1246l421 197h44l367 -197l-84 -129l-326 175l-376 -175z" />
<glyph unicode="&#xe3;" horiz-adv-x="1284" d="M136 335q24 176 204 298q173 117 392 117q189 -3 375 -123q5 141 -96 239q-72 71 -252 71q-125 0 -231 -47q-49 -22 -78 -44l-59 -53l-92 110l62 51q44 38 118 71q139 64 302 64q235 0 345 -110q154 -152 102 -520l-72 -512h-151l12 85q-213 -111 -402 -111 q-219 0 -358 117q-146 122 -121 297zM287 335q-15 -103 81 -180q104 -83 269 -83q164 0 290 83q118 77 133 180q14 104 -82 181q-103 83 -267 83q-165 0 -292 -83q-118 -77 -132 -181zM414 1374q208 70 424 11q247 -60 409 57l51 -131q-205 -129 -492 -75q-208 61 -376 -8z " />
<glyph unicode="&#xe4;" horiz-adv-x="1284" d="M136 335q24 176 204 298q173 117 392 117q189 -3 375 -123q5 141 -96 239q-72 71 -252 71q-125 0 -231 -47q-49 -22 -78 -44l-59 -53l-92 110l62 51q44 38 118 71q139 64 302 64q235 0 345 -110q154 -152 102 -520l-72 -512h-151l12 85q-213 -111 -402 -111 q-219 0 -358 117q-146 122 -121 297zM287 335q-15 -103 81 -180q104 -83 269 -83q164 0 290 83q118 77 133 180q14 104 -82 181q-103 83 -267 83q-165 0 -292 -83q-118 -77 -132 -181zM592 1342q6 41 38.5 69.5t72.5 28.5q41 0 65.5 -28.5t18.5 -69.5q-6 -40 -38.5 -68.5 t-73.5 -28.5q-40 0 -64.5 28.5t-18.5 68.5zM879 1342q6 40 38 69t73 29t65 -29t18 -69q-5 -39 -37.5 -68t-73.5 -29t-64.5 29t-18.5 68z" />
<glyph unicode="&#xe5;" horiz-adv-x="1284" d="M136 335q24 176 204 298q173 117 392 117q189 -3 375 -123q5 141 -96 239q-72 71 -252 71q-125 0 -231 -47q-49 -22 -78 -44l-59 -53l-92 110l62 51q44 38 118 71q139 64 302 64q235 0 345 -110q154 -152 102 -520l-72 -512h-151l12 85q-213 -111 -402 -111 q-219 0 -358 117q-146 122 -121 297zM287 335q-15 -103 81 -180q104 -83 269 -83q164 0 290 83q118 77 133 180q14 104 -82 181q-103 83 -267 83q-165 0 -292 -83q-118 -77 -132 -181zM686 1308q8 54 52.5 92.5t98.5 38.5t87.5 -38.5t25.5 -92.5q-7 -55 -51.5 -93.5 t-98.5 -38.5t-87.5 38.5t-26.5 93.5zM783 1307q-2 -14 7 -24.5t24 -10.5t27 10.5t14 24.5q2 15 -7 25.5t-24 10.5t-27 -10.5t-14 -25.5z" />
<glyph unicode="&#xe6;" horiz-adv-x="2192" d="M142 334q25 175 204 295q170 116 387 116q150 0 269 -60l102 -60q6 137 -95 234q-72 71 -249 71q-124 0 -228 -47q-49 -22 -78 -44l-60 -54l-90 111l62 51q43 37 117 71q138 62 298 62q292 0 438 -227q216 227 476 227q189 0 319 -131q129 -130 139 -330l1 -75l-76 -12 l-25 -4l-827 -133q-2 -109 92 -215q93 -106 236 -106q117 0 197 26q107 34 176 120l51 62l116 -84l-54 -63q-171 -211 -507 -211q-156 0 -274 90l-86 75l-20 -140h-151l13 92l-111 -57q-136 -60 -286 -60q-217 0 -355 115q-145 121 -121 295zM293 334q-14 -102 80 -178 q103 -82 266 -82q162 0 287 82q116 76 130 178q15 103 -80 178q-102 82 -264 82q-163 0 -289 -82q-115 -75 -130 -178zM1237 547l756 120q-10 86 -100 175q-91 88 -219 88q-157 0 -286 -124q-132 -125 -151 -259z" />
<glyph unicode="&#xe7;" horiz-adv-x="1086" d="M119 513q33 235 211 402q178 168 399 168q182 0 303 -98l53 -44l-102 -121l-56 44q-85 69 -219 69q-156 0 -283 -122q-131 -123 -156 -298t72 -299q93 -121 249 -121q94 0 189 45q94 46 156 122l54 60l109 -86l-51 -61q-88 -106 -217 -167l-12 -6q40 -46 31 -116 q-19 -135 -202 -184q-81 -22 -165 -22h-74l20 148h74q52 0 112 14q82 18 86 44q3 25 -73 44q-55 13 -108 13h-74l2 16q-137 35 -230 154q-131 167 -98 402z" />
<glyph unicode="&#xe8;" horiz-adv-x="1208" d="M157 509q33 234 208 401q179 169 397 169q188 0 316 -130q126 -128 136 -325l3 -74l-916 -147q-2 -106 91 -211q92 -104 231 -104q116 0 194 25q105 35 176 120l51 60l110 -82l-50 -63q-170 -209 -502 -209q-218 0 -350 168q-128 168 -95 402zM313 554l742 118 q-8 84 -98 171q-89 86 -216 86q-153 0 -281 -122t-147 -253zM550 1351l85 134l460 -242l-88 -132z" />
<glyph unicode="&#xe9;" horiz-adv-x="1208" d="M157 509q33 234 208 401q179 169 397 169q188 0 316 -130q126 -128 136 -325l3 -74l-916 -147q-2 -106 91 -211q92 -104 231 -104q116 0 194 25q105 35 176 120l51 60l110 -82l-50 -63q-170 -209 -502 -209q-218 0 -350 168q-128 168 -95 402zM313 554l742 118 q-8 84 -98 171q-89 86 -216 86q-153 0 -281 -122t-147 -253zM614 1243l528 242l47 -134l-525 -240z" />
<glyph unicode="&#xea;" horiz-adv-x="1208" d="M157 509q33 234 208 401q179 169 397 169q188 0 316 -130q126 -128 136 -325l3 -74l-916 -147q-2 -106 91 -211q92 -104 231 -104q116 0 194 25q105 35 176 120l51 60l110 -82l-50 -63q-170 -209 -502 -209q-218 0 -350 168q-128 168 -95 402zM313 554l742 118 q-8 84 -98 171q-89 86 -216 86q-153 0 -281 -122t-147 -253zM395 1246l422 197h44l366 -197l-83 -129l-326 175l-376 -175z" />
<glyph unicode="&#xeb;" horiz-adv-x="1208" d="M157 509q33 234 208 401q179 169 397 169q188 0 316 -130q126 -128 136 -325l3 -74l-916 -147q-2 -106 91 -211q92 -104 231 -104q116 0 194 25q105 35 176 120l51 60l110 -82l-50 -63q-170 -209 -502 -209q-218 0 -350 168q-128 168 -95 402zM313 554l742 118 q-8 84 -98 171q-89 86 -216 86q-153 0 -281 -122t-147 -253zM553 1342q6 41 38.5 69.5t72.5 28.5q41 0 65.5 -28.5t18.5 -69.5q-6 -40 -38.5 -68.5t-73.5 -28.5q-40 0 -64.5 28.5t-18.5 68.5zM840 1342q6 40 38 69t73 29t65 -29t18 -69q-6 -39 -38 -68t-73 -29t-65 29 t-18 68z" />
<glyph unicode="&#xec;" horiz-adv-x="536" d="M172 -50l159 1129h148l-159 -1129h-148zM199 1351l86 134l458 -241l-86 -134z" />
<glyph unicode="&#xed;" horiz-adv-x="536" d="M173 -50l159 1129h148l-159 -1129h-148zM190 1243l528 242l46 -134l-524 -240z" />
<glyph unicode="&#xee;" horiz-adv-x="534" d="M9 1246l422 197h44l364 -196l-80 -130l-328 175l-375 -175zM172 -50l159 1129h148l-159 -1129h-148z" />
<glyph unicode="&#xef;" horiz-adv-x="501" d="M155 -50l159 1129h148l-159 -1129h-148zM193 1342q5 41 37.5 69.5t72.5 28.5q41 0 65.5 -28.5t19.5 -69.5q-6 -40 -38.5 -68.5t-73.5 -28.5q-40 0 -64.5 28.5t-18.5 68.5zM480 1342q5 40 37 69t73 29t65 -29t19 -69q-6 -39 -38 -68t-73 -29t-65 29t-18 68z" />
<glyph unicode="&#xf0;" horiz-adv-x="1159" d="M122 513q32 232 206 396q176 167 392 167q107 0 -81 90q126 -130 14 -89q-43 9 -84 24q-44 9 -144 19l15 74q-7 -51 -39 -51l44 68l11 49q56 0 25 11l18 30q85 -46 125 -61q45 -11 87 -26q208 -45 493 86l46 -130q-256 -115 -253 -115q-7 3 81 -164q113 -158 82 -378 q-33 -233 -207 -397q-176 -167 -392 -167t-344 167q-128 164 -95 397zM271 513q-25 -173 68 -294q92 -120 244 -120q151 0 276 120q127 121 152 294q24 172 -69 293q-92 121 -243 121q-152 0 -277 -120q-127 -122 -151 -294z" />
<glyph unicode="&#xf1;" horiz-adv-x="1247" d="M96 -50l159 1130h150l-24 -172l103 84q140 88 291 88q217 0 346 -167q128 -166 95 -398l-79 -565h-150l79 565q25 174 -68 295q-92 121 -244 121t-277 -120q-127 -122 -152 -296l-79 -565h-150zM374 1374q209 70 425 11q246 -60 409 57l50 -131q-205 -129 -491 -75 q-209 61 -376 -8z" />
<glyph unicode="&#xf2;" horiz-adv-x="1159" d="M122 513q32 232 206 396q176 167 392 167t344 -167q128 -164 96 -396q-33 -233 -207 -397q-176 -167 -392 -167t-344 167q-128 164 -95 397zM271 513q-25 -173 68 -294q92 -120 244 -120q151 0 276 120q127 121 152 294q24 172 -69 293q-92 121 -243 121 q-152 0 -277 -120q-127 -122 -151 -294zM480 1351l84 134l460 -242l-87 -132z" />
<glyph unicode="&#xf3;" horiz-adv-x="1159" d="M122 513q32 232 206 396q176 167 392 167t344 -167q128 -164 96 -396q-33 -233 -207 -397q-176 -167 -392 -167t-344 167q-128 164 -95 397zM271 513q-25 -173 68 -294q92 -120 244 -120q151 0 276 120q127 121 152 294q24 172 -69 293q-92 121 -243 121 q-152 0 -277 -120q-127 -122 -151 -294zM493 1243l528 242l48 -134l-525 -240z" />
<glyph unicode="&#xf4;" horiz-adv-x="1159" d="M122 513q32 232 206 396q176 167 392 167t344 -167q128 -164 96 -396q-33 -233 -207 -397q-176 -167 -392 -167t-344 167q-128 164 -95 397zM271 513q-25 -173 68 -294q92 -120 244 -120q151 0 276 120q127 121 152 294q24 172 -69 293q-92 121 -243 121 q-152 0 -277 -120q-127 -122 -151 -294zM345 1246l421 197h44l367 -197l-83 -129l-327 175l-375 -175z" />
<glyph unicode="&#xf5;" horiz-adv-x="1159" d="M122 513q32 232 206 396q176 167 392 167t344 -167q128 -164 96 -396q-33 -233 -207 -397q-176 -167 -392 -167t-344 167q-128 164 -95 397zM271 513q-25 -173 68 -294q92 -120 244 -120q151 0 276 120q127 121 152 294q24 172 -69 293q-92 121 -243 121 q-152 0 -277 -120q-127 -122 -151 -294zM344 1374q209 70 424 11q247 -60 409 57l51 -131q-205 -129 -492 -75q-208 61 -376 -8z" />
<glyph unicode="&#xf6;" horiz-adv-x="1159" d="M122 513q32 232 206 396q176 167 392 167t344 -167q128 -164 96 -396q-33 -233 -207 -397q-176 -167 -392 -167t-344 167q-128 164 -95 397zM271 513q-25 -173 68 -294q92 -120 244 -120q151 0 276 120q127 121 152 294q24 172 -69 293q-92 121 -243 121 q-152 0 -277 -120q-127 -122 -151 -294zM512 1342q6 41 38.5 69.5t72.5 28.5q41 0 65.5 -28.5t18.5 -69.5q-5 -40 -37.5 -68.5t-73.5 -28.5q-40 0 -64.5 28.5t-19.5 68.5zM799 1342q6 40 38 69t73 29t65 -29t18 -69q-5 -39 -37 -68t-73 -29t-65 29t-19 68z" />
<glyph unicode="&#xf7;" d="M166 515l21 148h799l-21 -148h-799zM451 346q6 41 38.5 69.5t72.5 28.5q41 0 65.5 -28.5t18.5 -69.5q-5 -40 -37.5 -68.5t-73.5 -28.5q-40 0 -64.5 28.5t-19.5 68.5zM518 820q6 41 38.5 69.5t72.5 28.5q41 0 65.5 -28.5t18.5 -69.5q-6 -40 -38.5 -68.5t-73.5 -28.5 q-40 0 -64.5 28.5t-18.5 68.5z" />
<glyph unicode="&#xf8;" horiz-adv-x="1240" d="M172 513q32 232 206 396q176 167 392 167q139 0 203 -43l72 103l114 -69l-80 -114q5 -4 35 -44q128 -164 96 -396q-33 -233 -207 -397q-176 -167 -392 -167q-142 0 -206 45l-89 -125l-112 66l96 140q-3 3 -33 41q-128 164 -95 397zM321 513q-25 -173 68 -294 q22 -27 5 -12l488 696q-35 24 -133 24q-152 0 -277 -120q-127 -122 -151 -294zM496 125q38 -26 137 -26q151 0 276 120q127 121 152 294q24 172 -69 293q-22 29 -6 15z" />
<glyph unicode="&#xf9;" horiz-adv-x="1148" d="M171 517l80 571h150l-80 -570q-59 -418 270 -418t388 418l80 570h150l-80 -571q-41 -254 -157 -391q-150 -176 -402 -176t-352 176q-78 137 -47 391zM480 1351l85 134l460 -242l-88 -132z" />
<glyph unicode="&#xfa;" horiz-adv-x="1148" d="M171 517l80 571h150l-80 -570q-59 -418 270 -418t388 418l80 570h150l-80 -571q-41 -254 -157 -391q-150 -176 -402 -176t-352 176q-78 137 -47 391zM564 1243l528 242l47 -134l-525 -240z" />
<glyph unicode="&#xfb;" horiz-adv-x="1148" d="M171 517l80 571h150l-80 -570q-59 -418 270 -418t388 418l80 570h150l-80 -571q-41 -254 -157 -391q-150 -176 -402 -176t-352 176q-78 137 -47 391zM335 1246l422 197h44l366 -197l-83 -129l-326 175l-376 -175z" />
<glyph unicode="&#xfc;" horiz-adv-x="1148" d="M171 517l80 571h150l-80 -570q-59 -418 270 -418t388 418l80 570h150l-80 -571q-41 -254 -157 -391q-150 -176 -402 -176t-352 176q-78 137 -47 391zM523 1342q5 41 37.5 69.5t72.5 28.5q41 0 65.5 -28.5t19.5 -69.5q-6 -40 -38.5 -68.5t-73.5 -28.5q-40 0 -64.5 28.5 t-18.5 68.5zM810 1342q5 40 37 69t73 29t65 -29t19 -69q-6 -39 -38 -68t-73 -29t-65 29t-18 68z" />
<glyph unicode="&#xfd;" horiz-adv-x="1183" d="M123 -535l396 600l-370 980l143 70l333 -887l585 887l123 -70l-661 -1003l-11 -18l-415 -629zM601 1243l528 242l48 -134l-525 -240z" />
<glyph unicode="&#xfe;" horiz-adv-x="1229" d="M18 -504l300 2132h150l-100 -709l104 76q140 89 294 89q217 0 347 -169q130 -166 97 -401q-33 -233 -209 -401q-178 -167 -395 -167q-154 0 -268 88l-83 79l-87 -617h-150zM311 514q-24 -174 69 -298q93 -121 247 -121q153 0 279 121q129 124 153 298q25 176 -69 300 q-92 120 -245 120q-154 0 -281 -121q-128 -123 -153 -299z" />
<glyph unicode="&#xff;" horiz-adv-x="1183" d="M123 -535l396 600l-370 980l143 70l333 -887l585 887l123 -70l-661 -1003l-11 -18l-415 -629zM560 1342q6 41 39 69.5t72 28.5q41 0 65.5 -28.5t18.5 -69.5q-6 -40 -38.5 -68.5t-73.5 -28.5q-39 0 -64 28.5t-19 68.5zM847 1342q5 40 37.5 69t73.5 29q42 0 65 -29t18 -69 q-6 -39 -37.5 -68t-73.5 -29q-41 0 -65 29t-18 68z" />
<glyph unicode="&#x2c6;" horiz-adv-x="1038" d="M275 1251l422 197h44l366 -197l-83 -129l-327 175l-375 -175z" />
<glyph unicode="&#x2dc;" horiz-adv-x="1302" d="M398 1399l71 19q173 49 355 -8q125 -39 247 -14q59 12 91 30l71 41l49 -131l-63 -36q-91 -53 -225 -61q-115 -6 -230 29q-146 45 -275 8l-75 -23z" />
<glyph unicode="&#x2000;" horiz-adv-x="902" />
<glyph unicode="&#x2001;" horiz-adv-x="1805" />
<glyph unicode="&#x2002;" horiz-adv-x="902" />
<glyph unicode="&#x2003;" horiz-adv-x="1805" />
<glyph unicode="&#x2004;" horiz-adv-x="601" />
<glyph unicode="&#x2005;" horiz-adv-x="451" />
<glyph unicode="&#x2006;" horiz-adv-x="300" />
<glyph unicode="&#x2007;" horiz-adv-x="300" />
<glyph unicode="&#x2008;" horiz-adv-x="225" />
<glyph unicode="&#x2009;" horiz-adv-x="361" />
<glyph unicode="&#x200a;" horiz-adv-x="100" />
<glyph unicode="&#x2010;" d="M166 515l21 148h799l-21 -148h-799z" />
<glyph unicode="&#x2011;" d="M166 515l21 148h799l-21 -148h-799z" />
<glyph unicode="&#x2012;" d="M166 515l21 148h799l-21 -148h-799z" />
<glyph unicode="&#x2013;" horiz-adv-x="1100" d="M108 100l21 148h910l-21 -148h-910z" />
<glyph unicode="&#x2014;" horiz-adv-x="1501" d="M160 467l21 148h1304l-21 -148h-1304z" />
<glyph unicode="&#x2018;" horiz-adv-x="360" d="M240 982l71 502h148l-71 -502h-148z" />
<glyph unicode="&#x2019;" horiz-adv-x="360" d="M240 982l71 502h148l-71 -502h-148z" />
<glyph unicode="&#x201a;" horiz-adv-x="527" d="M-24 -337l219 498l135 -43l-218 -498z" />
<glyph unicode="&#x201c;" horiz-adv-x="503" d="M200 982l71 502h148l-71 -502h-148zM440 982l71 502h148l-71 -502h-148z" />
<glyph unicode="&#x201d;" horiz-adv-x="503" d="M200 982l71 502h148l-71 -502h-148zM440 982l71 502h148l-71 -502h-148z" />
<glyph unicode="&#x201e;" horiz-adv-x="709" d="M-24 -337l219 498l135 -43l-218 -498zM259 -337l219 498l135 -43l-218 -498z" />
<glyph unicode="&#x2022;" horiz-adv-x="600" d="M238 555q8 57 54 97.5t102 40.5q57 0 92 -40.5t27 -97.5q-8 -56 -54 -96.5t-103 -40.5q-56 0 -91 40.5t-27 96.5z" />
<glyph unicode="&#x2026;" horiz-adv-x="1295" d="M124 52q5 41 37.5 69.5t72.5 28.5q41 0 65.5 -28.5t19.5 -69.5q-6 -40 -38.5 -68.5t-73.5 -28.5q-40 0 -64.5 28.5t-18.5 68.5zM510 52q5 41 37.5 69.5t72.5 28.5q41 0 65.5 -28.5t19.5 -69.5q-6 -40 -38.5 -68.5t-73.5 -28.5q-40 0 -64.5 28.5t-18.5 68.5zM914 52 q5 41 37.5 69.5t72.5 28.5q41 0 65.5 -28.5t19.5 -69.5q-6 -40 -38.5 -68.5t-73.5 -28.5q-40 0 -64.5 28.5t-18.5 68.5z" />
<glyph unicode="&#x202f;" horiz-adv-x="361" />
<glyph unicode="&#x2039;" horiz-adv-x="1215" d="M276 561l820 532l67 -123l-647 -420l520 -506l-112 -115z" />
<glyph unicode="&#x203a;" horiz-adv-x="1215" d="M203 44l662 506l-529 420l103 123l670 -532l-826 -632z" />
<glyph unicode="&#x205f;" horiz-adv-x="451" />
<glyph unicode="&#x20ac;" horiz-adv-x="1200" d="M167 507l21 148h154l12 95h-153l21 148h173q58 188 257 361q255 225 623 225l-20 -148q-306 0 -514 -181q-156 -137 -195 -257h329l-21 -148h-352l-11 -95h350l-21 -148h-320q9 -101 118 -228q157 -181 463 -181l-21 -148q-368 0 -561 225q-139 161 -151 332h-181z" />
<glyph unicode="&#x2122;" horiz-adv-x="1640" d="M288 1335l21 148h715l-21 -148h-284l-96 -686h-147l96 686h-284zM867 654l143 713l123 26l153 -397l265 397l115 -26l-57 -713l-149 -6l34 408l-188 -280h-102l-108 280l-82 -408z" />
<glyph unicode="&#xe000;" horiz-adv-x="1110" d="M0 0v1110h1110v-1110h-1110z" />
</font>
</defs>
</svg>
