<?xml version="1.0" standalone="no"?>
<!DOCTYPE svg PUBLIC "-//W3C//DTD SVG 1.1//EN" "http://www.w3.org/Graphics/SVG/1.1/DTD/svg11.dtd" >
<svg xmlns="http://www.w3.org/2000/svg">
<metadata></metadata>
<defs>
<font id="coameiregular_italic" horiz-adv-x="951" >
<font-face units-per-em="2048" ascent="1638" descent="-410" />
<missing-glyph horiz-adv-x="699" />
<glyph horiz-adv-x="2048" />
<glyph horiz-adv-x="2048" />
<glyph unicode="&#xd;" horiz-adv-x="508" />
<glyph unicode=" "  horiz-adv-x="699" />
<glyph unicode="&#x09;" horiz-adv-x="699" />
<glyph unicode="&#xa0;" horiz-adv-x="699" />
<glyph unicode="!" horiz-adv-x="451" d="M159 -23l29 208h98l-29 -208h-98zM215 378l152 1079h98l-152 -1079h-98z" />
<glyph unicode="&#x22;" horiz-adv-x="453" d="M204 1007l64 452h98l-64 -452h-98zM444 1007l64 452h98l-64 -452h-98z" />
<glyph unicode="#" horiz-adv-x="1590" d="M104 401l14 99h363l170 434h-383l14 99h408l168 431l93 -24l-158 -407h430l168 431l93 -24l-158 -407h339l-14 -99h-363l-170 -434h383l-14 -99h-408l-169 -431l-92 24l158 407h-430l-169 -431l-92 24l158 407h-339zM584 500h431l169 434h-430z" />
<glyph unicode="$" horiz-adv-x="1274" d="M108 395h99q-23 -161 120 -250q115 -72 251 -82l51 361h98l-52 -365h-6q190 0 321 78q141 84 162 233q19 132 -119 239q-87 67 -327 173q-213 95 -289 151q-133 99 -115 223q21 153 193 239q133 66 280 70l23 162h98l-23 -160q155 -3 274 -72q148 -86 123 -264h-99 q17 119 -85 178q-98 56 -227 59l-51 -365h-98l51 363q-115 -4 -224 -55q-123 -59 -136 -155q-11 -76 93 -149q69 -48 264 -134q251 -112 348 -189q169 -135 144 -314q-29 -204 -217 -315q-159 -95 -377 -95h6l-25 -175h-98l25 179q-169 11 -307 102q-179 118 -149 329z" />
<glyph unicode="%" horiz-adv-x="1502" d="M244 1063q24 166 131 285q110 121 243 121t210 -121q74 -119 50 -285q-23 -165 -130 -284q-111 -122 -244 -122t-209 122q-74 119 -51 284zM338 3l943 1471l83 -45l-943 -1471zM344 1063q-18 -129 35 -219q52 -88 139 -88t164 88q79 90 97 219t-35 220q-53 87 -140 87 t-163 -87q-79 -91 -97 -220zM817 353q24 166 131 285q110 121 243 121t210 -121q74 -119 50 -285q-23 -165 -130 -284q-111 -122 -244 -122t-209 122q-74 119 -51 284zM917 353q-18 -129 36 -219q51 -88 138 -88t165 88q78 90 96 219q19 129 -35 220q-52 87 -139 87 t-164 -87q-78 -91 -97 -220z" />
<glyph unicode="&#x26;" horiz-adv-x="1551" d="M170 370q-14 146 57 280q71 133 189 210q-13 82 1 183q15 107 82 201q68 93 173 152q82 47 162 57q82 11 162 -32l-57 -87q-99 52 -228 -21q-80 -46 -133 -118q-52 -71 -63 -152q-11 -80 0 -159q3 -23 8 -46q54 -257 309 -484q97 -88 194 -146q4 4 21 27q68 89 90 197 q22 96 -10 180l95 43q39 -105 12 -228q-27 -133 -112 -244l-16 -22q189 -105 369 -105l-13 -98q-207 0 -433 127q-141 -127 -369 -127q-218 0 -354 129q-119 114 -136 283zM268 393q13 -138 112 -231q111 -106 293 -106q177 0 272 79q-88 54 -185 141q-268 241 -324 487 q-83 -56 -134 -169q-44 -98 -34 -201z" />
<glyph unicode="'" horiz-adv-x="310" d="M244 1007l64 452h98l-64 -452h-98z" />
<glyph unicode="(" horiz-adv-x="755" d="M297 696q56 403 222 726q84 167 164 256l33 37l67 -56l-33 -38q-67 -75 -148 -232q-158 -309 -211 -693q-61 -433 7 -762q35 -167 80 -243l23 -37l-83 -58l-23 39q-54 89 -91 267q-71 342 -7 794z" />
<glyph unicode=")" horiz-adv-x="755" d="M150 -346l33 37q68 76 148 243q162 329 222 762q54 384 -16 693q-36 157 -83 232l-22 38l82 55l24 -36q54 -89 92 -256q74 -323 17 -726q-63 -452 -229 -794q-88 -178 -167 -267l-35 -38z" />
<glyph unicode="*" horiz-adv-x="1063" d="M309 1436l47 99l314 -107l49 347h105l-49 -347l345 107l18 -99l-345 -107l163 -281l-92 -61l-164 280l-243 -280l-78 61l245 281z" />
<glyph unicode="+" d="M170 540l14 98h326l45 325h98l-45 -325h325l-14 -98h-325l-46 -326h-98l46 326h-326z" />
<glyph unicode="," horiz-adv-x="465" d="M-22 -321l197 451l90 -28l-197 -451z" />
<glyph unicode="-" d="M170 540l14 98h749l-14 -98h-749z" />
<glyph unicode="." horiz-adv-x="453" d="M123 52q4 30 28.5 51.5t53.5 21.5q30 0 48.5 -21.5t14.5 -51.5q-4 -29 -28.5 -50.5t-54.5 -21.5q-29 0 -47.5 21.5t-14.5 50.5z" />
<glyph unicode="/" horiz-adv-x="860" d="M183 -47l609 1530l92 -25l-611 -1530z" />
<glyph unicode="0" horiz-adv-x="1190" d="M160 714q43 310 228 531q189 225 414 225q224 0 349 -225q123 -221 80 -531q-44 -311 -229 -531q-189 -226 -413 -226q-225 0 -350 226q-123 220 -79 531zM259 714q-39 -275 65 -469q101 -189 279 -189q177 0 332 189q158 194 197 469q38 274 -66 468q-101 189 -278 189 q-178 0 -333 -189q-158 -194 -196 -468z" />
<glyph unicode="1" horiz-adv-x="563" d="M250 1060l265 415l84 -20l-208 -1480h-99l175 1250l-134 -210z" />
<glyph unicode="2" horiz-adv-x="1153" d="M109 45q328 315 584 606q337 382 354 506q14 101 -68 159q-78 54 -201 54q-122 0 -214 -54q-102 -58 -119 -184h-98q25 176 168 263q121 73 277 73q157 0 258 -73q118 -87 96 -238q-37 -262 -876 -1084h787l-14 -98h-913z" />
<glyph unicode="3" horiz-adv-x="1105" d="M104 318h98q-17 -121 81 -183q94 -62 235 -62q166 0 291 88q146 104 175 304q26 186 -71 282q-86 85 -261 101q-88 8 -179 -4l-25 73l508 445h-509l13 97h643l20 -71l-498 -437q222 8 362 -130q127 -126 95 -356q-35 -243 -216 -376q-155 -114 -361 -114q-174 0 -292 82 q-133 91 -109 261z" />
<glyph unicode="4" horiz-adv-x="1153" d="M91 390l869 1077l78 -23l-143 -1020h222l-14 -99h-222l-49 -350h-99l49 350h-666zM238 424h558l117 837z" />
<glyph unicode="5" horiz-adv-x="1120" d="M97 293l7 49h98l-7 -49q-13 -96 85 -158q94 -62 235 -62q166 0 291 88q146 104 175 304q35 251 -94 354q-114 91 -347 70q-121 -11 -229 -45l-46 45l166 538l42 32h659l-13 -97h-609l-122 -399q103 27 235 28q213 3 333 -93q165 -132 123 -433q-35 -243 -216 -376 q-155 -114 -361 -114q-174 0 -292 82q-133 91 -113 236z" />
<glyph unicode="6" horiz-adv-x="1142" d="M167 457q52 370 249 646q252 355 659 355l-14 -98q-350 0 -567 -305q-110 -155 -135 -235q-4 -4 112 57q118 62 246 62q199 0 321 -141q121 -142 93 -341t-189 -341q-162 -141 -361 -141t-321 141q-121 142 -93 341zM265 457q-22 -159 75 -271q96 -113 255 -113t287 113 q129 112 151 271t-75 271q-96 113 -255 113q-156 0 -284 -110q-127 -109 -152 -263q-1 -4 -2 -11z" />
<glyph unicode="7" horiz-adv-x="1065" d="M196 11l867 1351h-821l14 99h980l-957 -1495z" />
<glyph unicode="8" horiz-adv-x="1260" d="M143 406q21 148 143 266q117 115 204 139q-41 15 -101 102q-64 92 -48 203q21 150 166 256q144 104 325 104q180 0 294 -104q116 -106 95 -256q-16 -111 -105 -203q-85 -87 -131 -102q81 -24 167 -139q87 -119 66 -266q-26 -187 -204 -319q-175 -130 -396 -130t-361 130 q-140 132 -114 319zM242 406q-20 -143 93 -246q114 -104 297 -104q182 0 326 104q141 103 161 246t-92 246q-115 103 -297 103q-183 0 -326 -103q-142 -103 -162 -246zM440 1116q-15 -107 71 -182q90 -79 233 -79q142 0 254 79q108 75 123 182q15 106 -71 182 q-90 78 -232 78q-143 0 -255 -78q-108 -76 -123 -182z" />
<glyph unicode="9" horiz-adv-x="1160" d="M203 -25l14 98q370 0 582 208q175 170 224 349q-2 -3 -121 -68q-122 -65 -253 -65q-200 0 -322 141q-122 143 -94 343q28 199 190 342q162 142 362 142t322 -142q122 -143 94 -342q-54 -386 -226 -633q-259 -373 -772 -373zM331 981q-22 -160 76 -273q96 -113 256 -113 q157 0 286 110q126 110 152 268q2 4 2 8q23 159 -75 272q-97 113 -257 113t-287 -113q-130 -113 -153 -272z" />
<glyph unicode=":" horiz-adv-x="453" d="M149 232q4 30 28.5 51.5t53.5 21.5q30 0 48.5 -21.5t14.5 -51.5q-4 -29 -28.5 -50.5t-54.5 -21.5q-29 0 -47.5 21.5t-14.5 50.5zM215 699q4 30 28.5 51.5t53.5 21.5q30 0 48.5 -21.5t14.5 -51.5q-4 -29 -28.5 -50.5t-54.5 -21.5q-29 0 -47.5 21.5t-14.5 50.5z" />
<glyph unicode=";" horiz-adv-x="459" d="M-22 -321l197 451l90 -28l-197 -451zM220 699q5 30 29.5 51.5t53.5 21.5q30 0 48.5 -21.5t13.5 -51.5q-4 -29 -28.5 -50.5t-54.5 -21.5q-29 0 -47.5 21.5t-14.5 50.5z" />
<glyph unicode="&#x3c;" horiz-adv-x="1140" d="M276 559l769 499l45 -82l-654 -424l525 -511l-75 -76z" />
<glyph unicode="=" d="M144 359l14 98h749l-14 -98h-749zM202 771l14 98h749l-14 -98h-749z" />
<glyph unicode="&#x3e;" horiz-adv-x="1140" d="M203 41l669 511l-536 424l70 82l628 -499l-778 -594z" />
<glyph unicode="?" horiz-adv-x="1059" d="M210 -31l26 188h99l-26 -188h-99zM268 353l7 50q15 107 124 204q60 54 213 148q140 84 192 130q82 70 91 139q22 154 -59 241q-51 56 -134 77q-91 21 -182 -2q-87 -23 -118 -72l-29 -45l-82 45l28 44q54 85 179 120q121 35 240 6q143 -35 211 -145q67 -111 45 -269 q-15 -107 -123 -204q-63 -54 -215 -148q-140 -84 -191 -130q-81 -70 -91 -139l-7 -50h-99z" />
<glyph unicode="@" horiz-adv-x="1682" d="M197 716q-43 -306 143 -524q188 -217 494 -217q95 0 189 24l50 12l-12 95l-49 -13q-81 -20 -164 -20q-266 0 -428 189q-162 188 -125 454t253 454q214 189 480 189t428 -189q162 -188 125 -454q-29 -206 -137 -362q-41 -61 -84 -97q-34 -29 -51 -29q1 0 2 1q-7 12 -2 45 l55 393q43 307 -82 432q-90 89 -282 89q-217 0 -343 -110l-39 -35l59 -69l40 35q18 17 69 39q93 42 201 42q155 0 221 -64q87 -87 73 -235q-9 13 -103 61q-97 48 -219 48q-179 0 -321 -97q-145 -100 -165 -241q-19 -141 97 -241q115 -96 294 -96q123 0 234 48q108 48 122 64 l-9 -63q-9 -61 10 -98q22 -46 75 -46q107 0 226 171q124 180 157 415q43 306 -143 524q-188 217 -494 217t-554 -217q-248 -218 -291 -524zM571 562q-13 -96 74 -167q90 -72 233 -72t253 72q107 71 120 167q14 97 -73 167q-90 73 -233 73t-253 -73q-107 -70 -121 -167z" />
<glyph unicode="A" horiz-adv-x="1348" d="M24 -12l816 1490h78l399 -1490l-98 -38l-146 553h-661l-301 -553zM468 602h577l-188 710z" />
<glyph unicode="B" horiz-adv-x="1149" d="M88 -22l208 1477q120 15 220 15q30 0 59 -1q235 -12 333 -111q66 -65 66 -162q0 -22 -3 -45q-35 -248 -242 -308q193 -16 321 -147q75 -79 75 -189q0 -24 -4 -50q-26 -188 -175 -308q-225 -181 -671 -181q-79 0 -187 10zM199 68q64 -4 124 -4q369 0 566 159 q114 90 134 234q3 18 3 34q0 76 -53 131q-134 140 -540 140q-37 0 -77 -1q-42 -4 -61 -5zM310 857q11 1 51 2q184 18 312 74q180 79 200 218q2 16 2 30q0 62 -41 103q-71 70 -247 84q-54 5 -105.5 5t-100.5 -5z" />
<glyph unicode="C" horiz-adv-x="1464" d="M195 719q43 310 281 531q239 221 532 221q295 0 471 -222l30 -35l-82 -68l-29 36q-152 190 -404 190q-251 0 -456 -191q-206 -192 -244 -462q-8 -54 -8 -105q0 -204 122 -358q152 -191 403 -191q267 0 476 209l38 38l66 -64l-38 -38q-245 -243 -556 -243q-293 0 -470 221 q-141 176 -141 410q0 59 9 121z" />
<glyph unicode="D" horiz-adv-x="1344" d="M97 -18l207 1474l45 2q39 3 95 3q342 0 572 -112q328 -161 328 -510q0 -58 -9 -121q-62 -443 -496 -630q-262 -113 -604 -113q-56 0 -94 3zM208 73h41q321 0 562 104q373 160 426 541q8 54 8 103q0 300 -282 438q-212 104 -533 104h-41z" />
<glyph unicode="E" horiz-adv-x="1146" d="M90 -25l209 1484h854l-14 -98h-756l-72 -508h582l-14 -99h-582l-95 -681h842l-14 -98h-940z" />
<glyph unicode="F" horiz-adv-x="1046" d="M90 -25l209 1486h879l-14 -98h-781l-71 -509h583l-14 -98h-583l-110 -781h-98z" />
<glyph unicode="G" horiz-adv-x="1455" d="M194 713q45 316 287 540q242 225 541 225t477 -225l29 -37l-83 -69l-27 38q-155 193 -410 193q-256 0 -466 -194q-209 -195 -248 -471q-8 -54 -8 -106q0 -208 124 -364q155 -194 411 -194q265 0 470 199l58 416h-536l14 99h636l-77 -552l-14 -14q-250 -248 -565 -248 q-299 0 -477 225q-145 180 -145 419q0 58 9 120z" />
<glyph unicode="H" horiz-adv-x="1179" d="M97 -31l210 1497h99l-86 -612h775l86 612h99l-210 -1497h-99l111 787h-775l-111 -787h-99z" />
<glyph unicode="I" horiz-adv-x="403" d="M148 -25l209 1484h98l-209 -1484h-98z" />
<glyph unicode="J" horiz-adv-x="1361" d="M39 263l84 63l26 -37q149 -216 418 -216q248 0 452 188q202 190 240 457l104 742h98l-104 -742q-43 -307 -278 -525t-525 -218q-149 0 -279 65q-128 67 -210 186z" />
<glyph unicode="K" horiz-adv-x="1222" d="M86 -29l210 1495h98l-113 -804l921 807l59 -69l-584 -513l481 -859l-89 -57l-472 845l-335 -292l-78 -553h-98z" />
<glyph unicode="L" horiz-adv-x="1149" d="M86 -29l210 1492h99l-196 -1393h861l-14 -99h-960z" />
<glyph unicode="M" horiz-adv-x="1711" d="M90 -20l298 1469l86 18l427 -1074l729 1074l80 -18l-114 -1469l-99 -7l100 1279l-680 -1000h-72l-398 1000l-259 -1278z" />
<glyph unicode="N" horiz-adv-x="1318" d="M90 -25l204 1451l77 28l771 -1286l181 1290h94l-204 -1451l-76 -28l-772 1286l-181 -1290h-94z" />
<glyph unicode="O" horiz-adv-x="1620" d="M187 715q45 315 286 538q241 224 539 224q297 0 476 -224q143 -178 143 -415q0 -60 -9 -123q-44 -315 -285 -538q-242 -224 -539 -224q-298 0 -476 224q-144 179 -144 417q0 59 9 121zM286 715q-8 -54 -8 -105q0 -207 124 -364q155 -194 410 -194q254 0 463 194 q210 195 248 469q8 55 8 107q0 206 -124 362q-155 194 -409 194q-255 0 -464 -194q-209 -195 -248 -469z" />
<glyph unicode="P" horiz-adv-x="1050" d="M90 -25l207 1475l44 4q75 8 155 8q64 0 130 -5q295 -23 418 -147q77 -80 77 -196q0 -27 -4 -55q-28 -199 -181 -322q-209 -167 -549 -167q-56 0 -115 5l-84 -600h-98zM286 673q34 -2 71 -3q83 0 177 13q223 29 346 128q118 93 139 248q3 21 3 40q0 81 -55 137 q-127 130 -446 130q-65 0 -138 -5z" />
<glyph unicode="Q" horiz-adv-x="1642" d="M197 715q45 315 286 538q241 224 539 224q297 0 476 -224q143 -178 143 -415q0 -60 -9 -123q-44 -315 -285 -538q-39 -36 -60 -51l207 -288l-88 -67l-209 291q-170 -109 -389 -109q-298 0 -476 224q-144 179 -144 417q0 59 9 121zM296 715q-8 -54 -8 -105 q0 -208 124 -364q155 -194 410 -194q185 0 320 87l-276 387l88 67l280 -391q16 11 51 44q210 195 248 469q8 55 8 107q0 206 -124 362q-155 194 -409 194q-255 0 -464 -194q-209 -195 -248 -469z" />
<glyph unicode="R" horiz-adv-x="1156" d="M88 -31l210 1491l45 4q74 8 156 7q64 0 131 -4q297 -24 422 -149q78 -81 78 -198q0 -27 -4 -55q-28 -202 -184 -326q-100 -78 -209 -110l352 -614l-88 -59l-370 646q-128 -30 -262 -30q-47 0 -94 4l-85 -607h-98zM285 674q56 -4 108 -4q313 0 494 144q119 93 141 251 q3 19 3 38q0 84 -57 141q-92 94 -324 120q-86 9 -169 9q-50 0 -98 -3z" />
<glyph unicode="S" horiz-adv-x="1274" d="M108 395h99q-3 -22 -3 -43q0 -130 123 -207q138 -86 342 -86q190 0 321 78q141 84 162 233q2 16 2 32q0 113 -121 207q-87 67 -327 173q-213 95 -289 151q-117 87 -117 194q0 14 2 29q21 153 193 239q146 72 336 72q191 0 316 -72q127 -74 126 -214q0 -24 -3 -50h-99 q2 17 2 33q0 95 -87 145q-104 59 -269 59q-160 0 -280 -57q-123 -59 -136 -155q-1 -7 -1 -15q0 -68 94 -134q69 -48 264 -134q251 -112 348 -189q147 -118 147 -269q0 -22 -3 -45q-29 -204 -217 -315q-159 -95 -377 -95q-237 0 -399 106q-153 101 -153 270q0 29 4 59z" />
<glyph unicode="T" horiz-adv-x="1260" d="M242 1367l14 98h1142l-14 -98h-522l-196 -1392h-98l196 1392h-522z" />
<glyph unicode="U" horiz-adv-x="1333" d="M193 718l104 742h98l-104 -742q-10 -67 -9 -130q0 -187 85 -329q112 -186 304 -186t357 186q167 190 205 459l104 742h98l-104 -742q-43 -305 -238 -523q-199 -220 -436 -220t-373 220q-101 165 -101 380q0 69 10 143z" />
<glyph unicode="V" horiz-adv-x="1440" d="M250 1439l95 43l398 -1351l780 1350l84 -40l-847 -1465l-77 -1z" />
<glyph unicode="W" horiz-adv-x="2332" d="M208 1437l95 45l489 -1361l435 680l-229 636l94 45l206 -571l364 571l82 -45l-407 -636l244 -680l870 1361l83 -45l-936 -1462h-74l-257 715l-459 -715h-74z" />
<glyph unicode="X" horiz-adv-x="1512" d="M36 12l766 754l-481 654l84 65l473 -644l655 644l65 -65l-664 -654l554 -754l-84 -65l-548 744l-754 -744z" />
<glyph unicode="Y" horiz-adv-x="1407" d="M229 1426l88 57l477 -851l716 851l72 -57l-753 -896l-78 -555h-98l78 555z" />
<glyph unicode="Z" horiz-adv-x="1422" d="M51 44l1342 1322h-1071l14 98h1196l21 -69l-1343 -1322h1158l-14 -98h-1282z" />
<glyph unicode="[" horiz-adv-x="459" d="M8 -300l266 1896l330 105l18 -90l-263 -83l-247 -1760l239 -83l-43 -90z" />
<glyph unicode="\" horiz-adv-x="860" d="M395 1458l98 25l179 -1530l-98 -25z" />
<glyph unicode="]" horiz-adv-x="551" d="M-44 -315l263 83l247 1760l-239 83l42 90l301 -105l-267 -1896l-330 -105z" />
<glyph unicode="^" horiz-adv-x="1081" d="M213 702l484 757h76l272 -757l-96 -44l-234 652l-418 -652z" />
<glyph unicode="_" horiz-adv-x="1050" d="M84 -74l14 98h860l-14 -98h-860z" />
<glyph unicode="`" horiz-adv-x="699" d="M336 1683l56 88l417 -219l-57 -88z" />
<glyph unicode="a" horiz-adv-x="1234" d="M136 335q23 164 192 278q166 112 376 112q146 0 262 -58q113 -57 126 -82q3 32 3 61q0 150 -89 239q-79 77 -268 77q-130 0 -242 -50q-53 -23 -85 -48l-40 -36l-61 74l41 34q40 35 111 66q133 62 290 62q225 0 330 -104q109 -108 108 -333q0 -77 -12 -168l-68 -487h-101 l17 119q-23 -29 -154 -87q-132 -58 -278 -58q-210 0 -344 112q-117 98 -117 231q0 23 3 46zM237 335q-2 -15 -2 -30q0 -97 92 -171q108 -87 281 -87q172 0 306 87q130 85 146 201q2 15 2 30q0 98 -92 172q-108 87 -280 87q-173 0 -307 -87q-130 -85 -146 -202z" />
<glyph unicode="b" horiz-adv-x="1179" d="M84 -34l216 1538h100l-91 -648q20 33 149 115q133 83 279 83q206 0 330 -159q99 -128 99 -297q0 -42 -6 -87q-32 -225 -201 -384q-169 -161 -375 -161q-146 0 -255 84q-107 82 -117 115l-28 -199h-100zM261 511q-5 -38 -5 -75q0 -138 78 -241q99 -129 264 -129 q164 0 298 129q137 131 163 316q5 37 5 72q0 138 -79 242q-98 130 -262 130q-165 0 -300 -130q-137 -131 -162 -314z" />
<glyph unicode="c" horiz-adv-x="1027" d="M119 513q31 225 202 385q169 160 379 160q174 0 289 -93l35 -30l-67 -80l-38 30q-91 73 -233 73q-167 0 -303 -130q-138 -130 -164 -315q-5 -38 -5 -73q0 -138 80 -243q100 -129 267 -129q100 0 202 48q99 48 166 130l36 39l73 -57l-34 -40q-84 -101 -209 -160 q-123 -60 -248 -60q-210 0 -334 160q-100 128 -100 297q0 42 6 88z" />
<glyph unicode="d" horiz-adv-x="1179" d="M141 511q31 224 201 384q168 159 374 159q146 0 255 -83q107 -82 117 -115l91 648h100l-216 -1538h-100l28 199q-20 -33 -149 -115q-133 -84 -279 -84q-206 0 -329 161q-100 127 -100 295q0 43 7 89zM242 511q-5 -38 -6 -75q0 -138 79 -241q98 -129 262 -129 q165 0 300 129q137 131 163 316q5 37 5 72q0 138 -79 242q-99 130 -264 130q-164 0 -298 -130q-137 -131 -162 -314z" />
<glyph unicode="e" horiz-adv-x="1154" d="M157 509q31 225 200 384q169 161 376 161q178 0 301 -123q120 -123 130 -312l1 -49l-914 -146v-6q0 -136 96 -244q98 -111 247 -111q120 0 203 27q113 37 189 128l34 40l74 -54l-34 -42q-162 -198 -480 -198q-207 0 -331 160q-99 127 -99 295q0 44 7 90zM259 524l799 127 q-12 119 -108 211q-95 92 -231 92q-164 0 -301 -130q-135 -130 -159 -300z" />
<glyph unicode="f" horiz-adv-x="606" d="M163 926l15 108h175l18 126q21 150 112 231q92 80 243 80h49l-14 -99h-49q-112 0 -169 -51q-59 -50 -74 -161l-18 -126h262l-15 -108h-262l-134 -951h-98l134 951h-175z" />
<glyph unicode="g" horiz-adv-x="1135" d="M137 513q31 223 197 379q167 159 372 159q143 0 250 -84q107 -80 116 -109l27 193h99l-144 -1025q-42 -295 -228 -439q-185 -142 -523 -142h-51l14 100h51q308 0 459 120q144 112 179 361l20 143q-17 -29 -147 -110q-130 -82 -273 -82q-205 0 -327 157q-97 126 -97 292 q0 42 6 87zM236 513q-5 -37 -5 -71q0 -136 78 -239q98 -127 260 -127t293 127q136 129 161 310q5 38 5 73q0 136 -78 237q-96 128 -258 128t-295 -128q-135 -128 -161 -310z" />
<glyph unicode="h" horiz-adv-x="1135" d="M85 -25l214 1520h99l-89 -631q16 26 137 105q126 82 261 82q196 0 313 -159q91 -124 90 -288q0 -44 -6 -91l-76 -538h-99l76 538q5 39 5 75q0 135 -73 237q-91 127 -244 127q-152 0 -279 -127q-129 -129 -154 -312l-76 -538h-99z" />
<glyph unicode="i" horiz-adv-x="451" d="M158 -25l152 1079h98l-152 -1079h-98zM337 1247l29 208h98l-29 -208h-98z" />
<glyph unicode="j" horiz-adv-x="447" d="M-255 -550l14 99h50q198 0 283 119q47 65 64 185l168 1201h99l-168 -1201q-21 -146 -83 -234q-120 -169 -377 -169h-50zM358 1247l29 208h99l-29 -208h-99z" />
<glyph unicode="k" horiz-adv-x="1020" d="M86 -25l210 1492h98l-123 -870l691 440l46 -81l-415 -264l400 -678l-87 -59l-402 681l-249 -159l-71 -502h-98z" />
<glyph unicode="l" horiz-adv-x="451" d="M180 47q-4 17 -4 42q0 39 9 99l179 1275h99l-179 -1275q-8 -55 -8 -84q0 -13 2 -21q4 -20 26 -20h49l-14 -99h-49q-92 0 -110 83z" />
<glyph unicode="m" horiz-adv-x="1988" d="M89 -25l151 1076h99l-26 -187q16 26 137 105q126 82 262 82q153 0 263 -103q106 -100 119 -181q36 81 170 181q138 103 291 103q196 0 313 -159q91 -124 90 -288q0 -44 -6 -91l-76 -538h-99l76 538q5 39 5 75q0 135 -73 237q-91 127 -244 127q-152 0 -279 -127 q-129 -129 -154 -312l-76 -538h-99l76 538q5 39 5 75q0 135 -73 237q-91 127 -243 127q-153 0 -280 -127q-129 -129 -154 -312l-76 -538h-99z" />
<glyph unicode="n" horiz-adv-x="1197" d="M99 -25l152 1080h100l-27 -193q17 29 146 110q133 83 276 83q206 0 328 -159q98 -126 98 -294q0 -42 -6 -87l-76 -540h-100l76 540q5 38 5 74q0 136 -78 238q-98 129 -261 129t-296 -129q-135 -129 -161 -312l-76 -540h-100z" />
<glyph unicode="o" horiz-adv-x="1109" d="M123 519q31 224 199 382q169 161 376 161t330 -161q99 -126 99 -295q0 -42 -6 -87q-32 -226 -200 -384q-169 -161 -376 -161t-330 161q-99 126 -99 294q0 44 7 90zM223 519q-5 -38 -6 -75q0 -137 79 -240q98 -129 263 -129q164 0 300 129q137 130 163 315q5 37 5 72 q0 138 -79 241q-100 130 -264 130q-165 0 -299 -130q-137 -130 -162 -313z" />
<glyph unicode="p" horiz-adv-x="1179" d="M22 -479l216 1538h100l-28 -199q20 33 149 115q133 84 279 84q206 0 330 -161q99 -127 99 -297q0 -42 -6 -87q-32 -224 -201 -384q-169 -159 -375 -159q-146 0 -255 83q-107 82 -117 115l-91 -648h-100zM262 514q-5 -38 -5 -74q0 -136 78 -240q99 -130 264 -130 q164 0 298 130q137 131 163 314q5 38 5 74q0 138 -79 242q-98 129 -262 129q-165 0 -300 -129q-136 -131 -162 -316z" />
<glyph unicode="q" horiz-adv-x="1179" d="M141 514q32 225 201 384q169 161 375 161q146 0 255 -84q107 -82 117 -115l28 199h100l-216 -1538h-100l91 648q-20 -33 -149 -115q-133 -83 -279 -83q-206 0 -329 159q-100 128 -100 298q0 41 6 86zM242 514q-5 -37 -5 -72q0 -137 79 -242q98 -130 262 -130 q165 0 300 130q137 131 162 314q5 38 5 75q0 137 -78 241q-99 129 -264 129q-164 0 -298 -129q-137 -131 -163 -316z" />
<glyph unicode="r" horiz-adv-x="756" d="M138 -25l152 1081h100l-27 -195q18 31 146 112q133 83 277 83h50l-14 -99h-50q-163 0 -297 -129q-135 -130 -161 -312l-76 -541h-100z" />
<glyph unicode="s" horiz-adv-x="991" d="M94 335h99q-3 -23 -3 -44q0 -107 80 -162q91 -59 231 -59q142 0 248 59q116 66 132 181q1 8 1 15q0 70 -92 129q-64 41 -238 103q-156 56 -209 90q-86 53 -86 126q0 9 1 19q18 129 142 203q104 63 240 63t224 -63q86 -61 86 -177q0 -24 -4 -51h-99q3 18 3 35 q0 76 -57 114q-65 42 -167 42t-177 -42q-92 -52 -92 -128q0 -30 63 -65q48 -26 177 -71q193 -70 268 -121q118 -80 118 -191q0 -15 -2 -30q-23 -166 -184 -260q-135 -79 -310 -79q-174 0 -287 79q-110 81 -110 226q0 28 4 59z" />
<glyph unicode="t" horiz-adv-x="609" d="M162 962l15 110h181l64 453h101l-64 -453h271l-15 -110h-271l-139 -987h-101l139 987h-181z" />
<glyph unicode="u" horiz-adv-x="1098" d="M171 518l76 545h100l-76 -545q-10 -67 -10 -124q0 -319 301 -319q354 0 417 443l76 545h100l-76 -545q-40 -247 -151 -377q-141 -166 -380 -166t-332 166q-54 93 -54 245q0 61 9 132z" />
<glyph unicode="v" horiz-adv-x="1177" d="M165 1039l96 46l345 -961l615 961l85 -46l-682 -1064h-77z" />
<glyph unicode="w" horiz-adv-x="1828" d="M164 1048l97 43l329 -963l368 592l-112 328l97 43l87 -254l159 254l85 -43l-204 -328l202 -592l599 963l85 -43l-667 -1073h-77l-215 628l-390 -628h-78z" />
<glyph unicode="x" horiz-adv-x="1185" d="M32 13l575 552l-336 443l83 66l330 -434l451 434l66 -66l-460 -443l419 -552l-84 -66l-413 544l-566 -544z" />
<glyph unicode="y" horiz-adv-x="1115" d="M124 -525l389 590l-366 970l95 46l342 -908l598 908l81 -46l-646 -981l-11 -18l-400 -607z" />
<glyph unicode="z" horiz-adv-x="1220" d="M60 48l1039 911h-815l14 100h952l21 -73l-1039 -911h914l-14 -100h-1051z" />
<glyph unicode="{" horiz-adv-x="825" d="M88 658l181 47q64 17 127 120q141 224 113 700l-2 41l337 107l17 -90l-255 -81q20 -387 -84 -630q-71 -165 -153 -213q68 -52 91 -230q33 -263 -102 -691l232 -81l-42 -90l-308 108l14 40q170 525 95 771q-34 113 -93 128z" />
<glyph unicode="|" horiz-adv-x="403" d="M106 -330l275 1958h98l-275 -1958h-98z" />
<glyph unicode="}" horiz-adv-x="825" d="M18 -343l255 81q-14 428 91 691q74 178 156 230q-68 48 -92 213q-36 243 93 630l-232 81l42 90l308 -107l-14 -41q-162 -476 -86 -700q36 -103 95 -120l168 -47l-181 -44q-63 -15 -129 -128q-143 -246 -122 -772l2 -39l-337 -108z" />
<glyph unicode="~" horiz-adv-x="1239" d="M395 1381l46 13q165 47 341 -8q131 -41 260 -15q65 14 99 34l46 27l33 -87l-41 -24q-86 -50 -213 -57q-112 -6 -223 28q-153 47 -288 8l-48 -15z" />
<glyph unicode="&#xa1;" horiz-adv-x="451" d="M99 -445l152 1079h98l-152 -1079h-98zM278 827l29 208h98l-29 -208h-98z" />
<glyph unicode="&#xa2;" horiz-adv-x="1086" d="M139 513q31 225 202 385q169 160 379 160q89 0 141 -17l113 216l76 -31l-111 -214q28 -13 70 -47l35 -30l-67 -80l-38 30q-32 26 -49 33l-432 -830q43 -20 123 -20q100 0 202 48q99 48 166 130l36 39l73 -57l-34 -40q-84 -101 -209 -160q-123 -60 -248 -60 q-100 0 -158 26l-117 -224l-76 33l119 228q-51 30 -102 97q-126 160 -94 385zM239 513q-26 -185 75 -316q42 -53 70 -70l428 820q-35 11 -106 11q-167 0 -303 -130q-138 -130 -164 -315z" />
<glyph unicode="&#xa3;" horiz-adv-x="999" d="M102 66q48 19 84 72q76 110 105 317q6 43 6 55h-116l14 99h102q1 18 -15 77q-20 73 -11 133q16 114 135 179q99 53 229 53q129 0 215 -53q102 -65 86 -179l-7 -49h-99l7 49q8 58 -51 94q-62 39 -164 39q-98 0 -171 -37t-81 -96q-6 -40 8 -96q20 -71 20 -114h271l-14 -99 h-259q0 -11 -6 -55q-37 -261 -105 -344q222 46 578 -34l46 -10l-33 -97l-47 11q-380 84 -707 -5z" />
<glyph unicode="&#xa4;" horiz-adv-x="1064" d="M190 342l114 99q-65 87 -45 226q19 140 109 227l-87 99l78 67l85 -100q97 77 237 77t215 -77l113 100l58 -67l-113 -99q63 -87 44 -227q-20 -139 -108 -226l86 -99l-77 -67l-85 100q-97 -77 -237 -77t-215 77l-113 -100zM354 667q-16 -114 54 -193q68 -81 182 -81t207 81 q90 79 106 193q16 115 -52 194q-70 81 -184 81t-205 -81q-92 -79 -108 -194z" />
<glyph unicode="&#xa5;" horiz-adv-x="1152" d="M217 245l14 98h331l13 97h-331l14 98h331v1l-328 910l96 45l299 -833l533 833l82 -45l-583 -910v-1h319l-14 -98h-319l-13 -97h319l-14 -98h-319l-38 -270h-99l38 270h-331z" />
<glyph unicode="&#xa6;" horiz-adv-x="403" d="M121 -224l100 712h98l-100 -712h-98zM275 872l100 712h98l-100 -712h-98z" />
<glyph unicode="&#xa7;" horiz-adv-x="935" d="M90 190h101q-11 -76 64 -110q77 -34 194 -34q140 0 241 48q100 46 110 119q8 58 -61 96q-49 26 -194 66q-182 50 -256 95q-106 75 -128 150t10 145t146 141q123 60 237 56q-159 47 -218 84q-106 69 -90 184q20 138 174 215q124 62 287 62q145 0 240 -52q116 -63 97 -200 h-100q11 79 -64 115q-74 36 -187 36q-137 0 -238 -50q-97 -48 -108 -126q-8 -61 60 -102q46 -28 188 -69q164 -48 232 -87q122 -69 138 -182q12 -37 7 -76q-16 -113 -149 -188q-126 -73 -211 -73q134 -25 196 -61q109 -66 93 -179q-19 -134 -177 -209q-125 -59 -289 -59 q-148 0 -246 49q-118 61 -99 196zM273 710q-5 -68 70 -111q84 -45 202 -45q119 0 216 47q90 44 105.5 89.5t-1 78.5t-91.5 68q-80 37 -184 37q-125 0 -223 -50q-89 -46 -94 -114z" />
<glyph unicode="&#xa8;" horiz-adv-x="745" d="M340 1351q4 30 28.5 51.5t53.5 21.5q30 0 48.5 -21.5t14.5 -51.5q-4 -29 -28.5 -50.5t-54.5 -21.5q-29 0 -47.5 21.5t-14.5 50.5zM627 1351q4 30 27.5 51.5t54.5 21.5t48.5 -21.5t13.5 -51.5q-4 -29 -27.5 -50.5t-54.5 -21.5t-48.5 21.5t-13.5 50.5z" />
<glyph unicode="&#xa9;" horiz-adv-x="1704" d="M202 717q43 307 291 525q248 217 555 217t495 -217q186 -218 143 -525t-291 -525q-248 -217 -555 -217t-495 217q-186 218 -143 525zM300 717q-37 -267 125 -455q162 -189 429 -189t481 189q216 188 253 455q38 267 -125 455q-161 189 -428 189t-482 -189 q-215 -188 -253 -455zM502 703q28 199 176 340q149 142 332 142q152 0 252 -82l35 -31l-70 -77l-35 29q-76 63 -196 63q-141 0 -256 -112q-117 -113 -140 -272q-22 -159 64 -272q83 -112 224 -112q85 0 169 41q86 42 142 111l34 41l72 -55l-32 -41q-74 -89 -181 -142 q-109 -53 -218 -53q-183 0 -292 142q-108 141 -80 340z" />
<glyph unicode="&#xaa;" horiz-adv-x="878" d="M198 935q16 119 135 203q116 81 262 81q93 0 169 -36l74 -35q8 95 -59 159q-49 47 -164 47q-83 0 -154 -32q-35 -17 -51 -31l-39 -36l-62 69l39 36q30 27 79 49q94 44 202 44q157 0 229 -74q101 -105 66 -359l-49 -344h-99l7 51q-3 -4 -88 -40q-87 -36 -180 -36 q-146 0 -239 81q-95 84 -78 203zM297 935q-11 -74 55 -128q68 -57 177 -57t193 57q80 54 91 128q10 74 -55 128q-68 57 -177 57t-193 -57q-81 -54 -91 -128z" />
<glyph unicode="&#xab;" horiz-adv-x="1675" d="M276 559l769 499l45 -82l-654 -424l525 -511l-75 -76zM783 559l769 499l45 -82l-654 -424l525 -511l-75 -76z" />
<glyph unicode="&#xac;" d="M224 922l14 98h749l-39 -275h-98l25 177h-651z" />
<glyph unicode="&#xad;" d="M170 540l14 98h749l-14 -98h-749z" />
<glyph unicode="&#xae;" horiz-adv-x="1697" d="M200 716q43 306 291 524q248 217 554 217t494 -217q186 -218 143 -524t-291 -524q-248 -217 -554 -217t-494 217q-186 218 -143 524zM298 716q-37 -266 125 -454q162 -189 428 -189t480 189q216 188 253 454t-125 454q-162 189 -428 189t-480 -189q-216 -188 -253 -454z M592 234l137 971l43 4q79 9 173 2q180 -14 259 -94q68 -69 52 -177q-19 -138 -125 -223q-57 -44 -103 -59l206 -384l-90 -55l-218 410q-90 -21 -182 -15l-54 -380h-98zM757 712q203 -12 319 79q69 54 82 149q10 65 -30 103q-86 88 -314 73z" />
<glyph unicode="&#xaf;" horiz-adv-x="1050" d="M285 1359l14 98h860l-14 -98h-860z" />
<glyph unicode="&#xb0;" horiz-adv-x="458" d="M283 1314q7 54 51.5 92.5t98.5 38.5t87.5 -38.5t26.5 -92.5q-8 -55 -52.5 -93.5t-98.5 -38.5t-87.5 38.5t-25.5 93.5zM380 1313q-2 -14 7 -24.5t24 -10.5t27 10.5t14 24.5q2 15 -7 25.5t-24 10.5t-27 -10.5t-14 -25.5z" />
<glyph unicode="&#xb1;" d="M107 95l14 98h749l-14 -98h-749zM186 658l14 98h326l46 325h98l-46 -325h325l-14 -98h-325l-46 -326h-98l46 326h-326z" />
<glyph unicode="&#xb2;" horiz-adv-x="756" d="M175 751q196 160 346 307q178 174 184 223q5 31 -30 53q-42 26 -113 26q-66 0 -116 -24q-47 -22 -55 -80h-97q16 112 108 162q75 39 173 39t163 -39q78 -50 65 -137q-19 -137 -456 -505h413l-14 -98h-553z" />
<glyph unicode="&#xb3;" horiz-adv-x="675" d="M188 875h97q-9 -59 31 -84q43 -27 103 -27q73 0 126 39q65 45 77 133q12 82 -30 123q-63 62 -207 41l-26 72l212 187h-206l13 98h340l19 -72l-210 -185q73 -2 139 -68q71 -70 53 -196q-18 -130 -116 -205q-86 -64 -198 -64q-93 0 -156 44q-77 53 -61 164z" />
<glyph unicode="&#xb4;" horiz-adv-x="699" d="M317 1552l478 219l31 -88l-477 -219z" />
<glyph unicode="&#xb5;" horiz-adv-x="1098" d="M40 -439l212 1505h98l-87 -613q-29 -378 299 -378q354 0 416 443l77 545h100l-77 -545q-39 -247 -150 -377q-141 -166 -380 -166t-332 166q-21 35 -1 -31l-77 -549h-98z" />
<glyph unicode="&#xb6;" horiz-adv-x="1050" d="M185 1012q27 190 139 325q116 140 254 140h578l-15 -101h-159l-203 -1449h-101l203 1449h-267l-203 -1449h-101l87 624q-105 14 -172 149q-65 133 -40 312z" />
<glyph unicode="&#xb7;" horiz-adv-x="550" d="M238 555q7 46 45 79.5t83 33.5q46 0 75 -33.5t22 -79.5q-6 -45 -44 -78.5t-84 -33.5q-45 0 -74 33.5t-23 78.5z" />
<glyph unicode="&#xb8;" horiz-adv-x="550" d="M56 -297l14 98h49q55 0 117 14q102 23 108 69q7 45 -89 69q-58 13 -113 13h-49l14 99h49q80 0 153 -21q151 -44 134 -160q-16 -116 -179 -160q-79 -21 -159 -21h-49z" />
<glyph unicode="&#xb9;" horiz-adv-x="564" d="M276 1248l246 216l67 -28l-105 -747h-97l87 613l-140 -122z" />
<glyph unicode="&#xba;" horiz-adv-x="833" d="M244 1063q24 166 131 285q110 121 243 121t210 -121q74 -119 50 -285q-23 -165 -130 -284q-111 -122 -244 -122t-209 122q-74 119 -51 284zM344 1063q-18 -129 35 -219q52 -88 139 -88t164 88q79 90 97 219t-35 220q-53 87 -140 87t-163 -87q-79 -91 -97 -220z" />
<glyph unicode="&#xbb;" horiz-adv-x="1675" d="M203 41l669 511l-535 424l68 82l629 -499l-778 -594zM710 41l669 511l-535 424l68 82l629 -499l-778 -594z" />
<glyph unicode="&#xbc;" horiz-adv-x="1365" d="M239 3l942 1471l82 -45l-941 -1471zM276 1248l246 216l67 -28l-105 -747h-97l87 613l-140 -122zM677 207l467 538l74 -25l-68 -481h139l-13 -97h-139l-24 -170h-98l24 170h-338zM825 239h227l44 313z" />
<glyph unicode="&#xbd;" horiz-adv-x="1365" d="M199 3l942 1471l82 -45l-941 -1471zM276 1248l246 216l67 -28l-105 -747h-97l87 613l-140 -122zM684 49q195 160 346 307q178 174 185 223q4 31 -32 53q-42 26 -113 26q-66 0 -115 -24q-47 -22 -56 -80h-97q16 112 109 162q76 39 173 39q99 0 162 -39q78 -50 66 -137 q-19 -137 -457 -505h414l-14 -98h-553z" />
<glyph unicode="&#xbe;" horiz-adv-x="1355" d="M218 875h97q-9 -59 31 -84q43 -27 103 -27q73 0 126 39q65 45 77 133q12 82 -30 123q-63 62 -207 41l-26 72l212 187h-206l13 98h340l19 -72l-210 -185q73 -2 139 -68q71 -70 53 -196q-18 -130 -116 -205q-86 -64 -198 -64q-93 0 -156 44q-77 53 -61 164zM288 3l943 1471 l82 -45l-942 -1471zM664 214l467 539l73 -26l-68 -481h140l-13 -97h-140l-24 -170h-97l24 170h-338zM811 246h228l44 313z" />
<glyph unicode="&#xbf;" horiz-adv-x="923" d="M61 -5q15 107 124 204q62 54 214 148q140 84 191 130q82 70 92 139l7 50h99l-7 -50q-16 -108 -124 -204q-62 -55 -214 -148q-140 -85 -192 -130q-81 -70 -91 -139q-21 -155 58 -242q52 -55 136 -76q91 -22 181 2q88 23 119 71l28 45l83 -45l-29 -44q-53 -84 -179 -120 q-120 -35 -241 -5q-142 35 -209 145q-68 110 -46 269zM720 861l26 188h99l-26 -188h-99z" />
<glyph unicode="&#xc0;" horiz-adv-x="1348" d="M24 -12l816 1490h78l399 -1490l-98 -38l-146 553h-661l-301 -553zM468 602h577l-188 710zM662 1683l57 88l418 -219l-60 -88z" />
<glyph unicode="&#xc1;" horiz-adv-x="1348" d="M24 -12l816 1490h78l399 -1490l-98 -38l-146 553h-661l-301 -553zM468 602h577l-188 710zM673 1552l480 219l31 -88l-477 -219z" />
<glyph unicode="&#xc2;" horiz-adv-x="1348" d="M24 -12l816 1490h78l399 -1490l-98 -38l-146 553h-661l-301 -553zM468 602h577l-188 710zM506 1569l393 183h31l341 -183l-54 -85l-316 170l-365 -170z" />
<glyph unicode="&#xc3;" horiz-adv-x="1348" d="M24 -12l816 1490h78l399 -1490l-98 -38l-146 553h-661l-301 -553zM468 602h577l-188 710zM497 1668l47 13q166 47 341 -8q131 -41 259 -15q65 14 99 34l46 27l33 -87l-41 -24q-86 -50 -213 -57q-111 -6 -222 28q-153 47 -289 8l-48 -15z" />
<glyph unicode="&#xc4;" horiz-adv-x="1348" d="M24 -12l816 1490h78l399 -1490l-98 -38l-146 553h-661l-301 -553zM468 602h577l-188 710zM686 1667q4 30 28 51.5t54 21.5t48.5 -21.5t14.5 -51.5q-4 -29 -28.5 -50.5t-54.5 -21.5t-48 21.5t-14 50.5zM973 1667q4 30 27.5 51.5t54.5 21.5q30 0 48 -21.5t14 -51.5 q-4 -29 -28 -50.5t-54 -21.5q-31 0 -48.5 21.5t-13.5 50.5z" />
<glyph unicode="&#xc5;" horiz-adv-x="1348" d="M24 -12l816 1490h78l399 -1490l-98 -38l-146 553h-661l-301 -553zM468 602h577l-188 710zM768 1620q8 54 52 92.5t99 38.5q54 0 87.5 -38.5t25.5 -92.5q-7 -55 -51.5 -93.5t-98.5 -38.5q-55 0 -88 38.5t-26 93.5zM865 1619q-2 -14 7 -24.5t24 -10.5q14 0 26.5 10.5 t14.5 24.5q2 15 -7.5 25.5t-23.5 10.5q-15 0 -27 -10.5t-14 -25.5z" />
<glyph unicode="&#xc6;" horiz-adv-x="2310" d="M117 16l1363 1444h841l-14 -98h-756l-71 -509h583l-14 -98h-583l-96 -682h843l-14 -98h-941l73 520h-632l-515 -540zM793 593h552l96 680z" />
<glyph unicode="&#xc7;" horiz-adv-x="1325" d="M105 719q43 310 281 531q239 221 532 221q295 0 471 -222l30 -35l-82 -68l-29 36q-152 190 -404 190q-251 0 -456 -191q-206 -192 -244 -462q-38 -271 114 -463q152 -191 403 -191q267 0 476 209l38 38l66 -64l-38 -38q-245 -243 -556 -243q-293 0 -470 221 q-176 220 -132 531zM621 -297l14 98h49q55 0 117 14q102 23 108 69q7 45 -89 69q-58 13 -113 13h-49l14 99h49q80 0 153 -21q151 -44 134 -160q-16 -116 -179 -160q-79 -21 -159 -21h-49z" />
<glyph unicode="&#xc8;" horiz-adv-x="1146" d="M90 -25l209 1484h854l-14 -98h-756l-72 -508h582l-14 -99h-582l-95 -681h842l-14 -98h-940zM544 1683l57 88l418 -219l-59 -88z" />
<glyph unicode="&#xc9;" horiz-adv-x="1146" d="M90 -25l209 1484h854l-14 -98h-756l-72 -508h582l-14 -99h-582l-95 -681h842l-14 -98h-940zM576 1552l478 219l33 -88l-478 -219z" />
<glyph unicode="&#xca;" horiz-adv-x="1146" d="M90 -25l209 1484h854l-14 -98h-756l-72 -508h582l-14 -99h-582l-95 -681h842l-14 -98h-940zM368 1569l393 183h32l341 -183l-55 -85l-316 170l-364 -170z" />
<glyph unicode="&#xcb;" horiz-adv-x="1146" d="M90 -25l209 1484h854l-14 -98h-756l-72 -508h582l-14 -99h-582l-95 -681h842l-14 -98h-940zM558 1667q4 30 28.5 51.5t53.5 21.5q30 0 48.5 -21.5t14.5 -51.5q-4 -29 -28.5 -50.5t-54.5 -21.5q-29 0 -47.5 21.5t-14.5 50.5zM845 1667q4 30 27.5 51.5t54.5 21.5 t48.5 -21.5t13.5 -51.5q-4 -29 -27.5 -50.5t-54.5 -21.5t-48.5 21.5t-13.5 50.5z" />
<glyph unicode="&#xcc;" horiz-adv-x="420" d="M157 -25l209 1484h98l-209 -1484h-98zM239 1683l56 88l417 -219l-57 -88z" />
<glyph unicode="&#xcd;" horiz-adv-x="420" d="M157 -25l209 1484h98l-209 -1484h-98zM221 1552l480 220l29 -90l-476 -218z" />
<glyph unicode="&#xce;" horiz-adv-x="420" d="M47 1569l393 183h31l340 -183l-53 -85l-316 170l-365 -170zM158 -25l209 1484h98l-209 -1484h-98z" />
<glyph unicode="&#xcf;" horiz-adv-x="403" d="M148 -25l209 1484h98l-209 -1484h-98zM218 1667q4 30 28.5 51.5t53.5 21.5q30 0 48.5 -21.5t14.5 -51.5q-4 -29 -28.5 -50.5t-54.5 -21.5q-29 0 -47.5 21.5t-14.5 50.5zM505 1667q4 30 27.5 51.5t54.5 21.5t48.5 -21.5t13.5 -51.5q-4 -29 -27.5 -50.5t-54.5 -21.5 t-48.5 21.5t-13.5 50.5z" />
<glyph unicode="&#xd0;" horiz-adv-x="1506" d="M193 665l14 102h160l97 689l45 2q39 3 95 3q342 0 572 -112q382 -187 319 -631q-62 -443 -496 -630q-262 -113 -604 -113q-56 0 -94 3l-44 4l96 683h-160zM368 73h41q321 0 562 104q373 160 426 541q54 381 -274 541q-212 104 -533 104h-41l-84 -596h464l-14 -102h-464z " />
<glyph unicode="&#xd1;" horiz-adv-x="1318" d="M90 -25l204 1451l77 28l771 -1286l181 1290h94l-204 -1451l-76 -28l-772 1286l-181 -1290h-94zM490 1668l46 13q165 47 341 -8q131 -41 260 -15q63 14 99 34l46 27l33 -87l-42 -24q-86 -50 -214 -57q-110 -6 -221 28q-153 47 -288 8l-50 -15z" />
<glyph unicode="&#xd2;" horiz-adv-x="1620" d="M187 715q45 315 286 538q241 224 539 224q297 0 476 -224q179 -223 134 -538q-44 -315 -285 -538q-242 -224 -539 -224q-298 0 -476 224q-179 223 -135 538zM286 715q-38 -274 116 -469q155 -194 410 -194q254 0 463 194q210 195 248 469q39 274 -116 469 q-155 194 -409 194q-255 0 -464 -194q-209 -195 -248 -469zM816 1683l58 88l417 -219l-58 -88z" />
<glyph unicode="&#xd3;" horiz-adv-x="1620" d="M187 715q45 315 286 538q241 224 539 224q297 0 476 -224q179 -223 134 -538q-44 -315 -285 -538q-242 -224 -539 -224q-298 0 -476 224q-179 223 -135 538zM286 715q-38 -274 116 -469q155 -194 410 -194q254 0 463 194q210 195 248 469q39 274 -116 469 q-155 194 -409 194q-255 0 -464 -194q-209 -195 -248 -469zM792 1552l479 219l32 -88l-477 -219z" />
<glyph unicode="&#xd4;" horiz-adv-x="1620" d="M187 715q45 315 286 538q241 224 539 224q297 0 476 -224q179 -223 134 -538q-44 -315 -285 -538q-242 -224 -539 -224q-298 0 -476 224q-179 223 -135 538zM286 715q-38 -274 116 -469q155 -194 410 -194q254 0 463 194q210 195 248 469q39 274 -116 469 q-155 194 -409 194q-255 0 -464 -194q-209 -195 -248 -469zM648 1569l393 183h32l341 -183l-55 -85l-316 170l-364 -170z" />
<glyph unicode="&#xd5;" horiz-adv-x="1620" d="M187 715q45 315 286 538q241 224 539 224q297 0 476 -224q179 -223 134 -538q-44 -315 -285 -538q-242 -224 -539 -224q-298 0 -476 224q-179 223 -135 538zM286 715q-38 -274 116 -469q155 -194 410 -194q254 0 463 194q210 195 248 469q39 274 -116 469 q-155 194 -409 194q-255 0 -464 -194q-209 -195 -248 -469zM641 1668l46 13q166 47 341 -8q131 -41 260 -15q64 14 100 34l45 27l33 -87l-42 -24q-85 -50 -213 -57q-111 -6 -221 28q-154 47 -289 8l-49 -15z" />
<glyph unicode="&#xd6;" horiz-adv-x="1620" d="M187 715q45 315 286 538q241 224 539 224q297 0 476 -224q179 -223 134 -538q-44 -315 -285 -538q-242 -224 -539 -224q-298 0 -476 224q-179 223 -135 538zM286 715q-38 -274 116 -469q155 -194 410 -194q254 0 463 194q210 195 248 469q39 274 -116 469 q-155 194 -409 194q-255 0 -464 -194q-209 -195 -248 -469zM828 1667q4 30 28.5 51.5t53.5 21.5q30 0 48.5 -21.5t14.5 -51.5q-4 -29 -28.5 -50.5t-54.5 -21.5q-29 0 -47.5 21.5t-14.5 50.5zM1115 1667q4 30 27.5 51.5t54.5 21.5t48.5 -21.5t13.5 -51.5q-4 -29 -27.5 -50.5 t-54.5 -21.5t-48.5 21.5t-13.5 50.5z" />
<glyph unicode="&#xd7;" horiz-adv-x="972" d="M230 358l263 231l-198 230l78 69l198 -231l262 230l61 -69l-263 -229l198 -230l-80 -69l-197 230l-263 -231z" />
<glyph unicode="&#xd8;" horiz-adv-x="1620" d="M187 715q45 315 286 538q241 224 539 224q175 0 289 -66l90 142l78 -43l-93 -147q54 -37 112 -110q179 -223 134 -538q-44 -315 -285 -538q-242 -224 -539 -224q-167 0 -277 59l-104 -165l-80 40l108 171q-61 39 -123 119q-179 223 -135 538zM286 715q-38 -274 116 -469 q55 -68 101 -98l742 1174q-96 56 -247 56q-255 0 -464 -194q-209 -195 -248 -469zM578 102q91 -50 234 -50q254 0 463 194q210 195 248 469q39 274 -116 469q-49 62 -87 89z" />
<glyph unicode="&#xd9;" horiz-adv-x="1333" d="M193 718l104 742h98l-104 -742q-38 -269 76 -459q112 -186 304 -186t357 186q167 190 205 459l104 742h98l-104 -742q-43 -305 -238 -523q-199 -220 -436 -220t-373 220q-134 218 -91 523zM634 1683l58 88l417 -219l-58 -88z" />
<glyph unicode="&#xda;" horiz-adv-x="1333" d="M193 718l104 742h98l-104 -742q-38 -269 76 -459q112 -186 304 -186t357 186q167 190 205 459l104 742h98l-104 -742q-43 -305 -238 -523q-199 -220 -436 -220t-373 220q-134 218 -91 523zM696 1552l479 219l32 -88l-477 -219z" />
<glyph unicode="&#xdb;" horiz-adv-x="1333" d="M193 718l104 742h98l-104 -742q-38 -269 76 -459q112 -186 304 -186t357 186q167 190 205 459l104 742h98l-104 -742q-43 -305 -238 -523q-199 -220 -436 -220t-373 220q-134 218 -91 523zM508 1569l393 183h32l341 -183l-54 -85l-317 170l-363 -170z" />
<glyph unicode="&#xdc;" horiz-adv-x="1333" d="M193 718l104 742h98l-104 -742q-38 -269 76 -459q112 -186 304 -186t357 186q167 190 205 459l104 742h98l-104 -742q-43 -305 -238 -523q-199 -220 -436 -220t-373 220q-134 218 -91 523zM698 1667q4 30 28.5 51.5t53.5 21.5q30 0 48.5 -21.5t14.5 -51.5 q-4 -29 -28.5 -50.5t-54.5 -21.5q-29 0 -47.5 21.5t-14.5 50.5zM985 1667q4 30 27.5 51.5t54.5 21.5t48.5 -21.5t13.5 -51.5q-4 -29 -27.5 -50.5t-54.5 -21.5t-48.5 21.5t-13.5 50.5z" />
<glyph unicode="&#xdd;" horiz-adv-x="1407" d="M229 1426l88 57l477 -851l716 851l72 -57l-753 -896l-78 -555h-98l78 555zM756 1552l478 219l32 -88l-477 -219z" />
<glyph unicode="&#xde;" horiz-adv-x="1050" d="M106 -330l275 1958h98l-71 -503h195q247 -5 364 -98q149 -117 116 -356q-34 -239 -216 -356q-143 -93 -391 -98h-195l-77 -547h-98zM295 317h195q443 0 493 354q49 354 -394 354h-195z" />
<glyph unicode="&#xdf;" horiz-adv-x="1012" d="M85 -53l159 1130q28 202 133 310q96 99 228 99q130 0 224 -89q100 -95 82 -227q-11 -77 -133 -208q-105 -111 -103 -151q3 -41 94 -102q168 -111 220 -254q33 -90 -11 -217q-46 -136 -151 -221q-110 -90 -245 -90t-297 106l63 87q135 -88 241 -91q100 -4 179 62 q76 62 113 163q33 95 12 156q-43 116 -188 213q-63 42 -87 67q-42 43 -45 101q-3 59 42 127q26 37 92 108q97 103 103 144q12 85 -59 151q-69 64 -160 64q-94 0 -157 -77q-68 -82 -89 -231l-159 -1130h-101z" />
<glyph unicode="&#xe0;" horiz-adv-x="1234" d="M136 335q23 164 192 278q166 112 376 112q146 0 262 -58q113 -57 126 -82q21 194 -86 300q-79 77 -268 77q-130 0 -242 -50q-53 -23 -85 -48l-40 -36l-61 74l41 34q40 35 111 66q133 62 290 62q225 0 330 -104q146 -145 96 -501l-68 -487h-101l17 119q-23 -29 -154 -87 q-132 -58 -278 -58q-210 0 -344 112q-137 114 -114 277zM237 335q-16 -116 90 -201q108 -87 281 -87q172 0 306 87q130 85 146 201q16 117 -90 202q-108 87 -280 87q-173 0 -307 -87q-130 -85 -146 -202zM609 1363l58 88l417 -219l-58 -88z" />
<glyph unicode="&#xe1;" horiz-adv-x="1234" d="M136 335q23 164 192 278q166 112 376 112q146 0 262 -58q113 -57 126 -82q21 194 -86 300q-79 77 -268 77q-130 0 -242 -50q-53 -23 -85 -48l-40 -36l-61 74l41 34q40 35 111 66q133 62 290 62q225 0 330 -104q146 -145 96 -501l-68 -487h-101l17 119q-23 -29 -154 -87 q-132 -58 -278 -58q-210 0 -344 112q-137 114 -114 277zM237 335q-16 -116 90 -201q108 -87 281 -87q172 0 306 87q130 85 146 201q16 117 -90 202q-108 87 -280 87q-173 0 -307 -87q-130 -85 -146 -202zM621 1232l479 219l32 -88l-477 -219z" />
<glyph unicode="&#xe2;" horiz-adv-x="1234" d="M136 335q23 164 192 278q166 112 376 112q146 0 262 -58q113 -57 126 -82q21 194 -86 300q-79 77 -268 77q-130 0 -242 -50q-53 -23 -85 -48l-40 -36l-61 74l41 34q40 35 111 66q133 62 290 62q225 0 330 -104q146 -145 96 -501l-68 -487h-101l17 119q-23 -29 -154 -87 q-132 -58 -278 -58q-210 0 -344 112q-137 114 -114 277zM237 335q-16 -116 90 -201q108 -87 281 -87q172 0 306 87q130 85 146 201q16 117 -90 202q-108 87 -280 87q-173 0 -307 -87q-130 -85 -146 -202zM431 1235l393 183h32l341 -183l-55 -85l-316 170l-364 -170z" />
<glyph unicode="&#xe3;" horiz-adv-x="1234" d="M136 335q23 164 192 278q166 112 376 112q146 0 262 -58q113 -57 126 -82q21 194 -86 300q-79 77 -268 77q-130 0 -242 -50q-53 -23 -85 -48l-40 -36l-61 74l41 34q40 35 111 66q133 62 290 62q225 0 330 -104q146 -145 96 -501l-68 -487h-101l17 119q-23 -29 -154 -87 q-132 -58 -278 -58q-210 0 -344 112q-137 114 -114 277zM237 335q-16 -116 90 -201q108 -87 281 -87q172 0 306 87q130 85 146 201q16 117 -90 202q-108 87 -280 87q-173 0 -307 -87q-130 -85 -146 -202zM416 1356l46 13q166 47 341 -8q131 -41 260 -15q64 14 100 34l46 27 l32 -87l-42 -24q-85 -50 -213 -57q-111 -6 -221 28q-154 47 -289 8l-49 -15z" />
<glyph unicode="&#xe4;" horiz-adv-x="1234" d="M136 335q23 164 192 278q166 112 376 112q146 0 262 -58q113 -57 126 -82q21 194 -86 300q-79 77 -268 77q-130 0 -242 -50q-53 -23 -85 -48l-40 -36l-61 74l41 34q40 35 111 66q133 62 290 62q225 0 330 -104q146 -145 96 -501l-68 -487h-101l17 119q-23 -29 -154 -87 q-132 -58 -278 -58q-210 0 -344 112q-137 114 -114 277zM237 335q-16 -116 90 -201q108 -87 281 -87q172 0 306 87q130 85 146 201q16 117 -90 202q-108 87 -280 87q-173 0 -307 -87q-130 -85 -146 -202zM592 1342q5 30 29.5 51.5t53.5 21.5q30 0 48.5 -21.5t13.5 -51.5 q-4 -29 -28.5 -50.5t-54.5 -21.5q-29 0 -47.5 21.5t-14.5 50.5zM879 1342q5 30 28.5 51.5t54.5 21.5t48.5 -21.5t12.5 -51.5q-4 -29 -27.5 -50.5t-54.5 -21.5t-48.5 21.5t-13.5 50.5z" />
<glyph unicode="&#xe5;" horiz-adv-x="1234" d="M136 335q23 164 192 278q166 112 376 112q146 0 262 -58q113 -57 126 -82q21 194 -86 300q-79 77 -268 77q-130 0 -242 -50q-53 -23 -85 -48l-40 -36l-61 74l41 34q40 35 111 66q133 62 290 62q225 0 330 -104q146 -145 96 -501l-68 -487h-101l17 119q-23 -29 -154 -87 q-132 -58 -278 -58q-210 0 -344 112q-137 114 -114 277zM237 335q-16 -116 90 -201q108 -87 281 -87q172 0 306 87q130 85 146 201q16 117 -90 202q-108 87 -280 87q-173 0 -307 -87q-130 -85 -146 -202zM687 1308q7 54 51.5 92.5t98.5 38.5t87.5 -38.5t26.5 -92.5 q-8 -55 -52.5 -93.5t-98.5 -38.5t-87.5 38.5t-25.5 93.5zM784 1307q-2 -14 7 -24.5t24 -10.5t27 10.5t14 24.5q2 15 -7 25.5t-24 10.5t-27 -10.5t-14 -25.5z" />
<glyph unicode="&#xe6;" horiz-adv-x="2139" d="M143 334q23 163 190 275q164 111 372 111q145 0 259 -57q112 -57 125 -82q21 192 -85 297q-78 77 -265 77q-129 0 -240 -50q-52 -23 -84 -48l-40 -36l-59 74l40 34q39 35 110 67q132 59 287 59q179 0 278 -63q138 -88 148 -215q36 75 179 176q145 102 309 102 q179 0 304 -124q122 -125 132 -317l1 -50l-51 -8l-26 -4l-851 -136q-2 -142 97 -254q100 -113 253 -113q121 0 205 28q116 36 191 129l34 41l78 -55l-36 -42q-164 -201 -486 -201q-148 0 -260 85q-109 83 -120 118l-25 -178h-101l16 116q-21 -27 -149 -84q-131 -57 -276 -57 q-208 0 -341 110q-136 113 -113 275zM244 334q-16 -115 88 -199q108 -86 279 -86q170 0 302 86q128 84 144 199q16 116 -88 199q-108 86 -278 86q-171 0 -303 -86q-128 -83 -144 -199zM1183 517l813 129q-12 121 -109 215t-234 94q-168 0 -306 -132q-139 -133 -164 -306z " />
<glyph unicode="&#xe7;" horiz-adv-x="1027" d="M119 513q31 225 202 385q169 160 379 160q174 0 289 -93l35 -30l-67 -80l-38 30q-91 73 -233 73q-167 0 -303 -130q-138 -130 -164 -315t75 -316q100 -129 267 -129q100 0 202 48q99 48 166 130l36 39l73 -57l-34 -40q-84 -101 -209 -160q-123 -60 -248 -60 q-210 0 -334 160q-126 160 -94 385zM411 -297l14 98h49q55 0 117 14q102 23 108 69q7 45 -89 69q-58 13 -113 13h-49l14 99h49q80 0 153 -21q151 -44 134 -160q-16 -116 -179 -160q-79 -21 -159 -21h-49z" />
<glyph unicode="&#xe8;" horiz-adv-x="1154" d="M157 509q31 225 200 384q169 161 376 161q178 0 301 -123q120 -123 130 -312l1 -49l-914 -146q-2 -139 96 -250t247 -111q120 0 203 27q113 37 189 128l34 40l74 -54l-34 -42q-162 -198 -480 -198q-207 0 -331 160t-92 385zM259 524l799 127q-12 119 -108 211 q-95 92 -231 92q-164 0 -301 -130q-135 -130 -159 -300zM560 1363l57 88l417 -219l-58 -88z" />
<glyph unicode="&#xe9;" horiz-adv-x="1154" d="M157 509q31 225 200 384q169 161 376 161q178 0 301 -123q120 -123 130 -312l1 -49l-914 -146q-2 -139 96 -250t247 -111q120 0 203 27q113 37 189 128l34 40l74 -54l-34 -42q-162 -198 -480 -198q-207 0 -331 160t-92 385zM259 524l799 127q-12 119 -108 211 q-95 92 -231 92q-164 0 -301 -130q-135 -130 -159 -300zM621 1232l479 219l33 -88l-478 -219z" />
<glyph unicode="&#xea;" horiz-adv-x="1154" d="M157 509q31 225 200 384q169 161 376 161q178 0 301 -123q120 -123 130 -312l1 -49l-914 -146q-2 -139 96 -250t247 -111q120 0 203 27q113 37 189 128l34 40l74 -54l-34 -42q-162 -198 -480 -198q-207 0 -331 160t-92 385zM259 524l799 127q-12 119 -108 211 q-95 92 -231 92q-164 0 -301 -130q-135 -130 -159 -300zM402 1235l392 183h32l342 -183l-55 -85l-316 170l-364 -170z" />
<glyph unicode="&#xeb;" horiz-adv-x="1154" d="M157 509q31 225 200 384q169 161 376 161q178 0 301 -123q120 -123 130 -312l1 -49l-914 -146q-2 -139 96 -250t247 -111q120 0 203 27q113 37 189 128l34 40l74 -54l-34 -42q-162 -198 -480 -198q-207 0 -331 160t-92 385zM259 524l799 127q-12 119 -108 211 q-95 92 -231 92q-164 0 -301 -130q-135 -130 -159 -300zM553 1342q4 30 28.5 51.5t53.5 21.5q30 0 48.5 -21.5t14.5 -51.5q-4 -29 -28.5 -50.5t-54.5 -21.5q-29 0 -47.5 21.5t-14.5 50.5zM840 1342q4 30 27.5 51.5t54.5 21.5t48.5 -21.5t13.5 -51.5q-4 -29 -27.5 -50.5 t-54.5 -21.5t-48.5 21.5t-13.5 50.5z" />
<glyph unicode="&#xec;" horiz-adv-x="468" d="M167 -25l152 1079h98l-152 -1079h-98zM200 1363l56 88l417 -219l-57 -88z" />
<glyph unicode="&#xed;" horiz-adv-x="468" d="M167 -25l152 1079h98l-152 -1079h-98zM188 1232l480 220l29 -90l-476 -218z" />
<glyph unicode="&#xee;" horiz-adv-x="468" d="M8 1235l393 183h31l340 -183l-53 -85l-316 170l-365 -170zM168 -25l152 1079h98l-152 -1079h-98z" />
<glyph unicode="&#xef;" horiz-adv-x="451" d="M158 -25l152 1079h98l-152 -1079h-98zM192 1342q4 30 28.5 51.5t53.5 21.5q30 0 48.5 -21.5t14.5 -51.5q-4 -29 -28.5 -50.5t-54.5 -21.5q-29 0 -47.5 21.5t-14.5 50.5zM479 1342q4 30 27.5 51.5t54.5 21.5t48.5 -21.5t13.5 -51.5q-4 -29 -27.5 -50.5t-54.5 -21.5 t-48.5 21.5t-13.5 50.5z" />
<glyph unicode="&#xf0;" horiz-adv-x="1109" d="M122 513q32 222 199 379q166 159 371 159q101 0 46 27q19 -20 -100 23q-43 9 -84 24q-47 10 -124 17l11 51q-4 -25 -20 -25l22 36l8 31q29 0 16 5l15 27q64 -35 107 -51q46 -11 88 -26q217 -48 486 76l31 -85q-227 -101 -316 -99q68 -42 153 -206q109 -152 79 -363 q-31 -223 -198 -380q-166 -159 -371 -159t-327 159q-123 157 -92 380zM221 513q-25 -182 74 -311q97 -128 260 -128q162 0 296 128q135 129 160 311q26 181 -73 310q-98 129 -260 129q-163 0 -296 -129q-135 -129 -161 -310z" />
<glyph unicode="&#xf1;" horiz-adv-x="1197" d="M99 -25l152 1080h100l-27 -193q17 29 146 110q133 83 276 83q206 0 328 -159q123 -158 92 -381l-76 -540h-100l76 540q26 183 -73 312q-98 129 -261 129t-296 -129q-135 -129 -161 -312l-76 -540h-100zM400 1374l45 13q166 47 341 -8q132 -41 260 -15q64 14 100 34l46 27 l33 -87l-43 -24q-85 -50 -213 -57q-111 -6 -221 28q-153 47 -289 8l-49 -15z" />
<glyph unicode="&#xf2;" horiz-adv-x="1109" d="M122 513q32 222 199 379q166 159 371 159t327 -159q123 -157 91 -379q-31 -223 -198 -380q-166 -159 -371 -159t-327 159q-123 157 -92 380zM221 513q-25 -182 74 -311q97 -128 260 -128q162 0 296 128q135 129 160 311q26 181 -73 310q-98 129 -260 129 q-163 0 -296 -129q-135 -129 -161 -310zM490 1363l57 88l417 -219l-58 -88z" />
<glyph unicode="&#xf3;" horiz-adv-x="1109" d="M122 513q32 222 199 379q166 159 371 159t327 -159q123 -157 91 -379q-31 -223 -198 -380q-166 -159 -371 -159t-327 159q-123 157 -92 380zM221 513q-25 -182 74 -311q97 -128 260 -128q162 0 296 128q135 129 160 311q26 181 -73 310q-98 129 -260 129 q-163 0 -296 -129q-135 -129 -161 -310zM501 1232l479 219l33 -88l-478 -219z" />
<glyph unicode="&#xf4;" horiz-adv-x="1109" d="M122 513q32 222 199 379q166 159 371 159t327 -159q123 -157 91 -379q-31 -223 -198 -380q-166 -159 -371 -159t-327 159q-123 157 -92 380zM221 513q-25 -182 74 -311q97 -128 260 -128q162 0 296 128q135 129 160 311q26 181 -73 310q-98 129 -260 129 q-163 0 -296 -129q-135 -129 -161 -310zM352 1235l393 183h32l341 -183l-55 -85l-316 170l-364 -170z" />
<glyph unicode="&#xf5;" horiz-adv-x="1109" d="M122 513q32 222 199 379q166 159 371 159t327 -159q123 -157 91 -379q-31 -223 -198 -380q-166 -159 -371 -159t-327 159q-123 157 -92 380zM221 513q-25 -182 74 -311q97 -128 260 -128q162 0 296 128q135 129 160 311q26 181 -73 310q-98 129 -260 129 q-163 0 -296 -129q-135 -129 -161 -310zM330 1374l46 13q166 47 341 -8q131 -41 260 -15q64 14 100 34l46 27l32 -87l-42 -24q-85 -50 -213 -57q-111 -6 -221 28q-154 47 -289 8l-49 -15z" />
<glyph unicode="&#xf6;" horiz-adv-x="1109" d="M122 513q32 222 199 379q166 159 371 159t327 -159q123 -157 91 -379q-31 -223 -198 -380q-166 -159 -371 -159t-327 159q-123 157 -92 380zM221 513q-25 -182 74 -311q97 -128 260 -128q162 0 296 128q135 129 160 311q26 181 -73 310q-98 129 -260 129 q-163 0 -296 -129q-135 -129 -161 -310zM513 1342q4 30 28.5 51.5t53.5 21.5q30 0 48.5 -21.5t14.5 -51.5q-4 -29 -28.5 -50.5t-54.5 -21.5q-29 0 -47.5 21.5t-14.5 50.5zM800 1342q4 30 27.5 51.5t54.5 21.5t48.5 -21.5t13.5 -51.5q-4 -29 -27.5 -50.5t-54.5 -21.5 t-48.5 21.5t-13.5 50.5z" />
<glyph unicode="&#xf7;" d="M170 540l14 98h749l-14 -98h-749zM452 346q4 30 28.5 51.5t53.5 21.5q30 0 48.5 -21.5t14.5 -51.5q-4 -29 -28.5 -50.5t-54.5 -21.5q-29 0 -47.5 21.5t-14.5 50.5zM518 820q5 30 29.5 51.5t53.5 21.5q30 0 48.5 -21.5t13.5 -51.5q-4 -29 -28.5 -50.5t-54.5 -21.5 q-29 0 -47.5 21.5t-14.5 50.5z" />
<glyph unicode="&#xf8;" horiz-adv-x="1190" d="M172 513q32 222 199 379q166 159 371 159q132 0 211 -53l72 104l74 -44l-78 -111q19 -17 49 -55q122 -157 90 -379q-31 -223 -198 -380q-166 -159 -371 -159q-135 0 -215 55l-89 -127l-72 43l95 136q-18 16 -46 52q-123 157 -92 380zM271 513q-25 -182 73 -311 q23 -29 28 -33l520 742q-59 41 -164 41q-163 0 -296 -129q-135 -129 -161 -310zM437 116q61 -42 168 -42q162 0 296 128q135 129 160 311q26 181 -73 310q-23 31 -28 36z" />
<glyph unicode="&#xf9;" horiz-adv-x="1098" d="M171 518l76 545h100l-76 -545q-63 -443 291 -443t417 443l76 545h100l-76 -545q-40 -247 -151 -377q-141 -166 -380 -166t-332 166q-75 130 -45 377zM489 1363l58 88l417 -219l-58 -88z" />
<glyph unicode="&#xfa;" horiz-adv-x="1098" d="M171 518l76 545h100l-76 -545q-63 -443 291 -443t417 443l76 545h100l-76 -545q-40 -247 -151 -377q-141 -166 -380 -166t-332 166q-75 130 -45 377zM571 1232l479 219l32 -88l-477 -219z" />
<glyph unicode="&#xfb;" horiz-adv-x="1098" d="M171 518l76 545h100l-76 -545q-63 -443 291 -443t417 443l76 545h100l-76 -545q-40 -247 -151 -377q-141 -166 -380 -166t-332 166q-75 130 -45 377zM341 1235l393 183h32l341 -183l-54 -85l-317 170l-363 -170z" />
<glyph unicode="&#xfc;" horiz-adv-x="1098" d="M171 518l76 545h100l-76 -545q-63 -443 291 -443t417 443l76 545h100l-76 -545q-40 -247 -151 -377q-141 -166 -380 -166t-332 166q-75 130 -45 377zM523 1342q4 30 28.5 51.5t53.5 21.5q30 0 48.5 -21.5t14.5 -51.5q-5 -29 -29.5 -50.5t-54.5 -21.5q-29 0 -47.5 21.5 t-13.5 50.5zM810 1342q4 30 27.5 51.5t54.5 21.5t48.5 -21.5t13.5 -51.5q-5 -29 -28.5 -50.5t-54.5 -21.5t-48.5 21.5t-12.5 50.5z" />
<glyph unicode="&#xfd;" horiz-adv-x="1115" d="M124 -525l389 590l-366 970l95 46l342 -908l598 908l81 -46l-646 -981l-11 -18l-400 -607zM600 1232l479 219l31 -88l-476 -219z" />
<glyph unicode="&#xfe;" horiz-adv-x="1179" d="M22 -479l293 2082h100l-105 -743q20 33 149 115q133 84 279 84q206 0 330 -161q124 -159 93 -384q-32 -224 -201 -384q-169 -159 -375 -159q-146 0 -255 83q-107 82 -117 115l-91 -648h-100zM262 514q-26 -183 73 -314q99 -130 264 -130q164 0 298 130q137 131 163 314 q26 185 -74 316q-98 129 -262 129q-165 0 -300 -129q-136 -131 -162 -316z" />
<glyph unicode="&#xff;" horiz-adv-x="1115" d="M124 -525l389 590l-366 970l95 46l342 -908l598 908l81 -46l-646 -981l-11 -18l-400 -607zM551 1342q5 30 29 51.5t54 21.5t48.5 -21.5t13.5 -51.5q-4 -29 -28.5 -50.5t-54.5 -21.5t-48 21.5t-14 50.5zM838 1342q5 30 28.5 51.5t54.5 21.5q30 0 48 -21.5t13 -51.5 q-4 -29 -28 -50.5t-54 -21.5q-31 0 -48.5 21.5t-13.5 50.5z" />
<glyph unicode="&#x2c6;" horiz-adv-x="971" d="M273 1240l393 183h31l341 -183l-54 -85l-316 170l-365 -170z" />
<glyph unicode="&#x2dc;" horiz-adv-x="1239" d="M395 1381l46 13q165 47 341 -8q131 -41 260 -15q65 14 99 34l46 27l33 -87l-41 -24q-86 -50 -213 -57q-112 -6 -223 28q-153 47 -288 8l-48 -15z" />
<glyph unicode="&#x2000;" horiz-adv-x="887" />
<glyph unicode="&#x2001;" horiz-adv-x="1775" />
<glyph unicode="&#x2002;" horiz-adv-x="887" />
<glyph unicode="&#x2003;" horiz-adv-x="1775" />
<glyph unicode="&#x2004;" horiz-adv-x="591" />
<glyph unicode="&#x2005;" horiz-adv-x="443" />
<glyph unicode="&#x2006;" horiz-adv-x="295" />
<glyph unicode="&#x2007;" horiz-adv-x="295" />
<glyph unicode="&#x2008;" horiz-adv-x="221" />
<glyph unicode="&#x2009;" horiz-adv-x="355" />
<glyph unicode="&#x200a;" horiz-adv-x="98" />
<glyph unicode="&#x2010;" d="M170 540l14 98h749l-14 -98h-749z" />
<glyph unicode="&#x2011;" d="M170 540l14 98h749l-14 -98h-749z" />
<glyph unicode="&#x2012;" d="M170 540l14 98h749l-14 -98h-749z" />
<glyph unicode="&#x2013;" horiz-adv-x="1050" d="M112 125l14 98h860l-14 -98h-860z" />
<glyph unicode="&#x2014;" horiz-adv-x="1451" d="M163 492l14 98h1254l-14 -98h-1254z" />
<glyph unicode="&#x2018;" horiz-adv-x="310" d="M244 1007l64 452h98l-64 -452h-98z" />
<glyph unicode="&#x2019;" horiz-adv-x="310" d="M244 1007l64 452h98l-64 -452h-98z" />
<glyph unicode="&#x201a;" horiz-adv-x="465" d="M-22 -321l197 451l90 -28l-197 -451z" />
<glyph unicode="&#x201c;" horiz-adv-x="453" d="M204 1007l64 452h98l-64 -452h-98zM444 1007l64 452h98l-64 -452h-98z" />
<glyph unicode="&#x201d;" horiz-adv-x="453" d="M204 1007l64 452h98l-64 -452h-98zM444 1007l64 452h98l-64 -452h-98z" />
<glyph unicode="&#x201e;" horiz-adv-x="647" d="M-22 -321l197 451l90 -28l-197 -451zM261 -321l197 451l90 -28l-197 -451z" />
<glyph unicode="&#x2022;" horiz-adv-x="550" d="M238 555q7 46 45 79.5t83 33.5q46 0 75 -33.5t22 -79.5q-6 -45 -44 -78.5t-84 -33.5q-45 0 -74 33.5t-23 78.5z" />
<glyph unicode="&#x2026;" horiz-adv-x="1245" d="M123 52q4 30 28.5 51.5t53.5 21.5q30 0 48.5 -21.5t14.5 -51.5q-4 -29 -28.5 -50.5t-54.5 -21.5q-29 0 -47.5 21.5t-14.5 50.5zM509 52q4 30 28.5 51.5t53.5 21.5q30 0 48.5 -21.5t14.5 -51.5q-4 -29 -28.5 -50.5t-54.5 -21.5q-29 0 -47.5 21.5t-14.5 50.5zM913 52 q4 30 28.5 51.5t53.5 21.5q30 0 48.5 -21.5t14.5 -51.5q-4 -29 -28.5 -50.5t-54.5 -21.5q-29 0 -47.5 21.5t-14.5 50.5z" />
<glyph unicode="&#x202f;" horiz-adv-x="355" />
<glyph unicode="&#x2039;" horiz-adv-x="1140" d="M276 559l769 499l45 -82l-654 -424l525 -511l-75 -76z" />
<glyph unicode="&#x203a;" horiz-adv-x="1140" d="M203 41l669 511l-536 424l70 82l628 -499l-778 -594z" />
<glyph unicode="&#x205f;" horiz-adv-x="443" />
<glyph unicode="&#x20ac;" horiz-adv-x="1150" d="M171 532l14 98h158q0 27 8 87q6 43 9 58h-155l14 98h169q63 201 254 369q248 217 580 217l-13 -98q-292 0 -507 -189q-163 -142 -214 -299h334l-14 -98h-349q-4 -18 -10 -58q-8 -56 -7 -87h346l-14 -98h-327q14 -138 127 -270q161 -189 453 -189l-13 -98q-332 0 -520 217 q-134 157 -147 340h-176z" />
<glyph unicode="&#x2122;" horiz-adv-x="1589" d="M291 1360l14 98h665l-14 -98h-284l-96 -686h-97l96 686h-284zM871 678l135 668l85 19l162 -422l282 422l79 -19l-53 -668l-98 -4l37 473l-231 -346h-72l-133 346l-95 -473z" />
<glyph unicode="&#xe000;" horiz-adv-x="1075" d="M0 0v1075h1075v-1075h-1075z" />
</font>
</defs>
</svg>
