<?xml version="1.0" standalone="no"?>
<!DOCTYPE svg PUBLIC "-//W3C//DTD SVG 1.1//EN" "http://www.w3.org/Graphics/SVG/1.1/DTD/svg11.dtd" >
<svg xmlns="http://www.w3.org/2000/svg">
<metadata></metadata>
<defs>
<font id="coameilight_italic" horiz-adv-x="1283" >
<font-face units-per-em="2048" ascent="1638" descent="-410" />
<missing-glyph horiz-adv-x="699" />
<glyph horiz-adv-x="2048" />
<glyph horiz-adv-x="2048" />
<glyph unicode="&#xd;" horiz-adv-x="508" />
<glyph unicode=" "  horiz-adv-x="699" />
<glyph unicode="&#x09;" horiz-adv-x="699" />
<glyph unicode="&#xa0;" horiz-adv-x="699" />
<glyph unicode="!" horiz-adv-x="401" d="M162 2l22 158h48l-22 -158h-48zM218 403l145 1029h48l-145 -1029h-48z" />
<glyph unicode="&#x22;" horiz-adv-x="403" d="M207 1032l56 402h48l-56 -402h-48zM447 1032l56 402h48l-56 -402h-48z" />
<glyph unicode="#" horiz-adv-x="1540" d="M108 426l7 49h358l189 484h-390l7 49h403l166 426l46 -12l-161 -414h482l166 426l46 -12l-161 -414h346l-7 -49h-358l-189 -484h390l-7 -49h-403l-166 -426l-46 12l161 414h-482l-166 -426l-46 12l161 414h-346zM524 475h483l188 484h-482z" />
<glyph unicode="$" horiz-adv-x="1224" d="M104 370h49q-21 -150 133 -247q121 -75 288 -87l51 363h48l-51 -365h19q197 0 335 82q153 91 176 254q21 145 -127 259q-89 69 -331 176q-210 94 -285 149q-123 91 -107 202q19 138 177 217q128 63 293 68l22 161h48l-22 -160q173 -3 287 -69q136 -79 117 -217h-49 q15 109 -99 175q-103 59 -263 62l-51 -365h-48l51 364q-147 -5 -260 -59q-139 -66 -154 -177q-13 -90 102 -170q70 -49 267 -136q249 -111 343 -186q161 -128 137 -294q-27 -190 -203 -294q-152 -91 -363 -91h-19l-25 -175h-48l25 177q-186 13 -319 100q-168 111 -144 283z " />
<glyph unicode="%" horiz-adv-x="1452" d="M244 1063q22 158 124 270q101 111 222 111t191 -111q69 -112 47 -270q-22 -157 -123 -269t-222 -112t-191 112t-48 269zM294 1063q-19 -137 38 -234q57 -98 157 -98t186 98q85 97 104 234t-38 235q-58 97 -158 97t-185 -97q-85 -98 -104 -235zM349 14l913 1426l41 -22 l-913 -1426zM817 353q22 158 124 270q101 111 222 111t191 -111q69 -112 47 -270q-22 -157 -123 -269t-222 -112t-191 112t-48 269zM867 353q-19 -137 38 -234q58 -98 158 -98t185 98q85 97 104 234q20 137 -38 235q-58 97 -158 97t-185 -97q-84 -98 -104 -235z" />
<glyph unicode="&#x26;" horiz-adv-x="1500" d="M169 376q-14 138 53 265q67 126 195 209q-15 96 -2 193q14 100 78 188q63 88 162 144q77 44 151 53q76 10 128 -18l-28 -43q-89 48 -232 -33q-87 -49 -142 -126q-56 -77 -69 -165q-11 -83 0 -166q4 -24 8 -47q56 -264 316 -496q98 -89 213 -158q22 22 39 46q72 94 96 208 q23 103 -2 171l46 21q28 -77 4 -193q-27 -127 -107 -233q-16 -21 -36 -43q219 -122 380 -122l-7 -48q-176 0 -411 133q-149 -133 -366 -133q-209 0 -338 123q-114 109 -129 270zM216 387q15 -146 119 -244q117 -112 308 -112q187 0 318 109q-114 70 -210 156 q-262 236 -324 507q-121 -81 -175 -202q-46 -104 -36 -214z" />
<glyph unicode="'" horiz-adv-x="260" d="M247 1032l56 402h48l-56 -402h-48z" />
<glyph unicode="(" horiz-adv-x="695" d="M297 696q56 399 219 717q83 164 160 250l15 17l32 -26l-16 -18q-69 -78 -151 -238q-161 -314 -215 -702q-61 -437 8 -770q36 -171 83 -250l10 -17l-39 -27l-10 18q-53 86 -89 260q-70 338 -7 786z" />
<glyph unicode=")" horiz-adv-x="695" d="M151 -341l15 17q70 79 154 250q162 333 224 770q54 388 -18 702q-36 160 -84 238l-11 18l39 26l12 -17q52 -86 90 -250q72 -318 16 -717q-63 -448 -228 -786q-85 -174 -161 -260l-17 -18z" />
<glyph unicode="*" horiz-adv-x="1000" d="M311 1452l24 52l323 -110l50 356h55l-50 -356l354 110l10 -52l-354 -110l168 -288l-48 -32l-169 288l-249 -288l-41 32l251 288z" />
<glyph unicode="+" horiz-adv-x="901" d="M173 565l7 48h326l45 325h48l-45 -325h325l-7 -48h-325l-46 -326h-48l46 326h-326z" />
<glyph unicode="," horiz-adv-x="403" d="M-20 -304l177 403l44 -14l-177 -403z" />
<glyph unicode="-" horiz-adv-x="901" d="M173 565l7 48h699l-7 -48h-699z" />
<glyph unicode="." horiz-adv-x="403" d="M124 52q2 20 18 34t35 14q20 0 32 -14t10 -34q-3 -19 -19 -33t-36 -14q-19 0 -31 14t-9 33z" />
<glyph unicode="/" horiz-adv-x="799" d="M186 -29l590 1481l44 -12l-590 -1481z" />
<glyph unicode="0" horiz-adv-x="1140" d="M160 714q42 302 222 517q179 214 391 214q211 0 330 -214q120 -215 78 -517q-43 -303 -223 -517q-179 -215 -390 -215q-212 0 -331 215q-120 214 -77 517zM209 714q-40 -283 67 -483q108 -200 299 -200q190 0 354 200q163 200 203 483q39 282 -68 482q-108 200 -298 200 q-191 0 -355 -200q-163 -200 -202 -482z" />
<glyph unicode="1" horiz-adv-x="504" d="M252 1071l240 375l45 -11l-202 -1435h-49l188 1331l-181 -282z" />
<glyph unicode="2" horiz-adv-x="1099" d="M109 40q317 304 574 596q342 389 361 521q16 115 -78 180q-83 58 -213 58t-229 -58q-113 -65 -129 -180h-48q19 138 149 217q115 69 264 69t244 -69q108 -79 89 -217q-36 -253 -911 -1109h818l-7 -48h-872z" />
<glyph unicode="3" horiz-adv-x="1055" d="M100 293h48q-15 -110 94 -180q100 -65 248 -65q175 0 306 93q158 112 188 324q27 197 -77 301q-91 90 -274 107q-92 8 -166 -2l-15 41l542 475h-544l7 47h601l11 -40l-536 -470q276 10 410 -122q119 -118 89 -337q-33 -231 -205 -357q-147 -108 -344 -108q-167 0 -279 78 q-122 84 -104 215z" />
<glyph unicode="4" horiz-adv-x="1099" d="M91 388l848 1050l43 -13l-144 -1026h222l-7 -49h-222l-50 -350h-49l50 350h-676zM159 399h630l132 945z" />
<glyph unicode="5" horiz-adv-x="1070" d="M97 293l4 24h48l-4 -24q-15 -110 94 -180q100 -65 248 -65q175 0 306 93q158 112 188 324q37 264 -101 374q-121 97 -363 75q-125 -11 -221 -42l-27 27l158 515l27 20h625l-7 -47h-605l-140 -458q139 36 268 37q204 3 319 -88q155 -125 115 -413q-33 -231 -205 -357 q-147 -108 -344 -108q-167 0 -279 78q-122 84 -104 215z" />
<glyph unicode="6" horiz-adv-x="1092" d="M168 457q51 363 244 634q243 342 610 342l-7 -48q-339 0 -566 -318q-112 -158 -179 -369q76 99 185 157q113 59 234 59q189 0 304 -134t89 -323q-27 -189 -180 -323t-342 -134t-304 134t-88 323zM216 457q-24 -169 79 -289t272 -120t306 120t161 289q23 169 -80 289 t-272 120q-166 0 -301 -117q-137 -116 -164 -281q0 -4 -1 -11z" />
<glyph unicode="7" horiz-adv-x="1000" d="M206 22l875 1365h-836l7 49h915l-920 -1436z" />
<glyph unicode="8" horiz-adv-x="1210" d="M143 406q19 138 134 249q111 110 271 153q-106 39 -164 121q-58 85 -44 187q20 138 155 237q135 98 307 98q171 0 280 -98q108 -99 88 -237q-14 -102 -97 -187q-79 -82 -198 -121q148 -43 230 -153q82 -111 63 -249q-25 -175 -193 -300q-167 -124 -379 -124t-346 124 q-132 125 -107 300zM192 406q-22 -155 98 -265q121 -110 313 -110q191 0 342 110q152 110 174 265q21 155 -99 265q-121 109 -312 109q-192 0 -343 -109q-152 -110 -173 -265zM389 1116q-16 -119 79 -202q95 -84 247 -84q151 0 270 84q119 83 135 202q17 118 -78 202 q-96 83 -247 83q-152 0 -270 -83q-119 -84 -136 -202z" />
<glyph unicode="9" horiz-adv-x="1110" d="M207 0l7 48q356 0 577 216q181 176 265 485q-75 -104 -188 -165q-116 -62 -240 -62q-190 0 -305 134q-116 135 -89 325q26 189 180 324q153 135 343 135t305 -135q116 -135 90 -324q-54 -380 -221 -621q-251 -360 -724 -360zM282 981q-24 -170 80 -291q103 -120 273 -120 q167 0 304 117q135 117 162 283q2 4 3 11q24 169 -80 290q-104 120 -274 120t-306 -120q-138 -121 -162 -290z" />
<glyph unicode=":" horiz-adv-x="403" d="M149 232q2 20 18 34t35 14q20 0 32 -14t10 -34q-3 -19 -19 -33t-36 -14q-19 0 -31 14t-9 33zM214 699q3 20 19 34t35 14q20 0 32 -14t9 -34q-2 -19 -18 -33t-36 -14q-19 0 -31 14t-10 33z" />
<glyph unicode=";" horiz-adv-x="403" d="M-20 -304l177 403l44 -14l-177 -403zM214 699q3 20 19 34t35 14q20 0 32 -14t9 -34q-3 -19 -19 -33t-36 -14q-19 0 -31 14t-9 33z" />
<glyph unicode="&#x3c;" horiz-adv-x="1064" d="M275 557l717 466l23 -41l-660 -428l529 -516l-37 -38z" />
<glyph unicode="=" horiz-adv-x="901" d="M148 384l7 48h699l-7 -48h-699zM206 796l7 48h699l-7 -48h-699z" />
<glyph unicode="&#x3e;" horiz-adv-x="1064" d="M202 38l675 516l-540 428l34 41l586 -466l-728 -557z" />
<glyph unicode="?" horiz-adv-x="1000" d="M204 -6l19 138h49l-19 -138h-49zM262 378l3 25q14 97 115 186q59 53 209 145q142 86 196 133q90 77 101 157q23 165 -64 259q-55 61 -145 83q-97 23 -194 -2q-98 -26 -136 -85l-14 -22l-41 22l14 22q47 75 162 107q113 33 228 6q133 -33 196 -136q64 -104 43 -254 q-14 -97 -113 -186q-61 -53 -211 -145q-142 -86 -195 -133q-90 -77 -102 -157l-3 -25h-49z" />
<glyph unicode="@" horiz-adv-x="1632" d="M197 716q41 296 281 506q239 210 535 210t477 -210q180 -210 139 -506q-33 -229 -153 -403q-110 -158 -202 -158q-39 0 -55 34q-16 31 -9 85l20 142q-63 -75 -165 -120q-106 -46 -223 -46q-171 0 -279 91q-108 92 -90 221t152 221t305 92q116 0 208 -46q90 -45 134 -120 q25 242 -71 336q-72 70 -236 70q-114 0 -213 -44q-55 -25 -76 -45l-19 -17l-29 34l19 17q117 103 324 103q183 0 267 -83q117 -117 76 -413l-56 -393q-5 -41 4 -59q7 -12 19 -12q27 0 69 36q45 39 89 103q112 162 142 374q38 276 -130 472q-169 196 -445 196t-499 -196 q-224 -196 -262 -472q-39 -276 129 -472q169 -196 445 -196q86 0 171 21l24 6l5 -46l-24 -6q-91 -23 -183 -23q-296 0 -477 210q-180 210 -138 506zM521 562q-15 -109 81 -187q96 -77 247 -77t269 77q118 78 133 187q15 110 -81 187q-96 78 -247 78t-269 -78 q-118 -77 -133 -187z" />
<glyph unicode="A" d="M26 2l795 1451h45l388 -1451l-50 -19l-143 545h-694l-298 -545zM395 577h652l-214 801z" />
<glyph unicode="B" horiz-adv-x="1099" d="M91 1l201 1432q98 13 190 12q32 0 63 -1q226 -12 319 -105q60 -59 60 -148q0 -19 -3 -40q-33 -229 -354 -322q317 -26 438 -152q69 -72 70 -173q0 -23 -4 -47q-25 -177 -165 -289q-217 -175 -653 -175q-78 0 -162 8zM145 45q73 -5 140 -5q391 0 594 164q122 98 144 253 q3 20 3 39q0 85 -59 145q-141 146 -559 146q-37 0 -76 -1q-41 -4 -84 -6zM256 830q37 3 78 4q190 19 322 76q195 86 217 241q2 17 2 33q0 72 -48 119q-75 75 -259 90q-48 4 -99 4q-66 0 -135 -7z" />
<glyph unicode="C" horiz-adv-x="1404" d="M195 719q42 300 273 514q230 213 512 213q284 0 454 -214l15 -17l-41 -34l-14 18q-157 198 -420 198q-262 0 -476 -199t-254 -479q-8 -56 -7 -108q0 -212 126 -372q158 -199 420 -199q278 0 497 218l18 19l33 -32l-19 -19q-236 -234 -536 -234q-282 0 -453 213 q-136 171 -136 398q0 56 8 116z" />
<glyph unicode="D" horiz-adv-x="1294" d="M101 5l201 1427l22 1q37 3 92 3q337 0 563 -110q315 -155 316 -493q0 -55 -9 -115q-60 -427 -478 -607q-257 -111 -594 -111q-55 0 -91 3zM155 49q31 -1 66 -1q326 0 573 106q388 167 444 564q8 56 8 107q0 313 -294 457q-217 106 -543 106q-35 0 -66 -1z" />
<glyph unicode="E" horiz-adv-x="1096" d="M94 0l202 1434h804l-7 -48h-756l-79 -558h582l-7 -49h-582l-102 -731h842l-7 -48h-890z" />
<glyph unicode="F" horiz-adv-x="996" d="M94 0l202 1436h829l-7 -48h-781l-78 -559h583l-7 -48h-583l-110 -781h-48z" />
<glyph unicode="G" horiz-adv-x="1404" d="M194 713q43 306 277 523t522 217t460 -217l15 -19l-41 -34l-14 19q-161 201 -427 201q-267 0 -485 -202q-217 -202 -257 -488q-8 -57 -8 -111q0 -214 128 -376q161 -202 428 -202q276 0 497 214l63 451h-536l7 49h586l-72 -518l-7 -7q-241 -239 -545 -239 q-288 0 -460 217q-140 174 -140 405q0 57 9 117z" />
<glyph unicode="H" horiz-adv-x="1129" d="M100 -6l203 1447h49l-86 -612h825l86 612h49l-203 -1447h-49l111 787h-825l-111 -787h-49z" />
<glyph unicode="I" horiz-adv-x="353" d="M152 0l202 1434h48l-202 -1434h-48z" />
<glyph unicode="J" horiz-adv-x="1301" d="M39 260l41 31l13 -18q155 -225 436 -225q259 0 471 196q210 197 249 474l101 717h48l-101 -717q-41 -297 -268 -508q-228 -210 -507 -210q-144 0 -268 63q-123 64 -203 179z" />
<glyph unicode="K" horiz-adv-x="1162" d="M89 -4l203 1445h48l-118 -839l949 832l29 -34l-580 -510l478 -856l-44 -28l-474 849l-367 -321l-76 -538h-48z" />
<glyph unicode="L" horiz-adv-x="1099" d="M89 -4l203 1442h49l-196 -1393h861l-7 -49h-910z" />
<glyph unicode="M" horiz-adv-x="1658" d="M93 3l289 1426l48 10l437 -1099l746 1099l44 -10l-111 -1426l-48 -3l104 1341l-722 -1064h-43l-424 1064l-271 -1341z" />
<glyph unicode="N" horiz-adv-x="1268" d="M94 0l198 1409l41 15l799 -1332l188 1341h44l-198 -1409l-41 -15l-799 1332l-188 -1341h-44z" />
<glyph unicode="O" horiz-adv-x="1570" d="M188 715q43 305 276 521t520 216q286 0 459 -216q139 -173 139 -403q0 -57 -9 -118q-43 -305 -276 -521q-234 -216 -520 -216q-287 0 -459 216q-139 173 -139 403q0 57 9 118zM237 715q-8 -57 -8 -110q0 -214 129 -376q160 -202 426 -202q265 0 483 202q217 202 257 486 q8 57 8 110q0 214 -129 376q-160 202 -425 202q-266 0 -484 -202q-217 -202 -257 -486z" />
<glyph unicode="P" horiz-adv-x="1000" d="M94 0l201 1427l21 2q73 8 152 8q63 0 128 -5q287 -22 403 -141q73 -74 73 -182q0 -24 -4 -50q-27 -188 -171 -303q-200 -159 -544 -159q-61 0 -126 5l-85 -602h-48zM233 650q49 -4 98 -4q88 0 177 12q232 30 362 134q127 101 150 267q3 22 3 43q0 91 -61 153 q-132 135 -471 135q-72 0 -154 -6z" />
<glyph unicode="Q" horiz-adv-x="1592" d="M198 715q43 305 276 521t520 216q286 0 459 -216q139 -173 139 -403q0 -57 -9 -118q-43 -305 -276 -521q-38 -35 -78 -65l206 -288l-46 -35l-207 290q-184 -118 -395 -118q-287 0 -459 216q-139 173 -139 403q0 57 9 118zM247 715q-8 -57 -8 -110q0 -214 129 -376 q160 -202 426 -202q193 0 360 107l-278 389l46 35l280 -391q38 28 75 62q217 202 257 486q8 57 8 110q0 214 -129 376q-160 202 -425 202q-266 0 -484 -202q-217 -202 -257 -486z" />
<glyph unicode="R" horiz-adv-x="1096" d="M91 -6l203 1443l22 2q73 8 153 8q63 0 130 -5q289 -23 407 -143q73 -76 74 -186q0 -23 -4 -48q-27 -191 -174 -307q-94 -75 -234 -115l358 -623l-43 -29l-367 639q-136 -31 -281 -31q-54 0 -110 4l-86 -609h-48zM231 651q64 -5 123 -4q335 0 522 148q128 101 152 270 q3 21 3 40q0 93 -63 158q-97 99 -337 126q-81 9 -167 9q-63 0 -128 -5z" />
<glyph unicode="S" horiz-adv-x="1224" d="M104 370h49q-3 -18 -3 -35q0 -126 136 -212q144 -89 355 -89q197 0 335 82q153 91 176 254q3 18 3 36q0 124 -130 223q-89 69 -331 176q-210 94 -285 149q-109 81 -109 177q0 13 2 25q19 138 177 217q140 69 324 69q185 0 304 -69t120 -184q0 -16 -3 -33h-49q2 13 2 25 q0 92 -101 150q-109 62 -280 62q-166 0 -291 -60q-139 -66 -154 -177q-1 -9 -1 -18q0 -80 103 -152q70 -49 267 -136q249 -111 343 -186q140 -111 141 -252q0 -21 -4 -42q-27 -190 -203 -294q-152 -91 -363 -91q-230 0 -386 102q-147 97 -147 241q0 20 3 42z" />
<glyph unicode="T" horiz-adv-x="1210" d="M246 1392l7 48h1092l-7 -48h-522l-196 -1392h-48l196 1392h-522z" />
<glyph unicode="U" d="M193 718l101 717h48l-101 -717q-10 -69 -9 -133q0 -193 88 -341q118 -196 323 -196t378 196q173 197 212 474l101 717h48l-101 -717q-42 -297 -231 -508q-189 -210 -414 -210t-355 210q-98 159 -98 368q0 67 10 140z" />
<glyph unicode="V" horiz-adv-x="1375" d="M249 1427l47 21l406 -1380l797 1380l42 -20l-825 -1427l-45 -1z" />
<glyph unicode="W" horiz-adv-x="2265" d="M206 1426l47 22l497 -1383l470 736l-224 625l46 22l214 -593l379 593l40 -22l-400 -625l264 -736l885 1383l41 -22l-913 -1426h-43l-269 746l-478 -746h-43z" />
<glyph unicode="X" horiz-adv-x="1441" d="M36 14l764 752l-480 652l42 32l475 -647l658 647l31 -32l-661 -652l552 -752l-41 -32l-550 747l-757 -747z" />
<glyph unicode="Y" horiz-adv-x="1338" d="M229 1420l43 28l482 -860l723 860l36 -28l-742 -882l-76 -538h-48l76 538z" />
<glyph unicode="Z" horiz-adv-x="1368" d="M51 40l1372 1351h-1101l7 48h1154l12 -40l-1372 -1351h1188l-7 -48h-1241z" />
<glyph unicode="[" horiz-adv-x="402" d="M10 -282l261 1860l287 91l8 -42l-255 -81l-253 -1796l233 -81l-20 -42z" />
<glyph unicode="\" horiz-adv-x="799" d="M392 1440l48 12l174 -1481l-48 -12z" />
<glyph unicode="]" horiz-adv-x="494" d="M-47 -331l255 81l253 1796l-233 81l20 42l261 -91l-261 -1860l-287 -91z" />
<glyph unicode="^" horiz-adv-x="1014" d="M214 713l461 721h45l259 -721l-48 -22l-242 675l-433 -675z" />
<glyph unicode="_" horiz-adv-x="1000" d="M87 -49l7 48h810l-7 -48h-810z" />
<glyph unicode="`" horiz-adv-x="632" d="M337 1694l28 44l374 -197l-28 -44z" />
<glyph unicode="a" horiz-adv-x="1184" d="M136 335q21 151 179 258t360 107q140 0 252 -56q107 -54 155 -145q7 65 7 121q0 196 -89 284q-85 83 -283 83q-136 0 -254 -52q-56 -25 -91 -53l-21 -18l-30 37l20 17q38 32 104 62q128 59 279 59q216 0 314 -98q103 -102 103 -319q0 -75 -12 -163l-65 -462h-51l24 176 q-73 -91 -197 -146q-127 -56 -267 -56q-202 0 -330 107q-110 92 -110 216q0 20 3 41zM187 335q-2 -17 -2 -34q0 -107 99 -187q115 -92 296 -92q180 0 321 92t159 221q2 18 2 34q0 108 -99 188q-115 92 -295 92q-181 0 -322 -92t-159 -222z" />
<glyph unicode="b" horiz-adv-x="1129" d="M88 -9l209 1488h50l-103 -737q78 130 201 208q126 79 264 79q195 0 313 -151q94 -122 95 -283q0 -41 -7 -84q-30 -215 -191 -367q-161 -153 -356 -153q-138 0 -242 80q-101 78 -143 207l-40 -287h-50zM211 511q-6 -40 -6 -78q0 -145 83 -255q106 -137 282 -137 q175 0 318 137q144 138 171 333q6 40 6 77q0 144 -83 254q-105 138 -280 138q-176 0 -320 -138t-171 -331z" />
<glyph unicode="c" horiz-adv-x="967" d="M119 513q30 215 193 368q161 152 360 152q166 0 275 -88l18 -15l-34 -40l-19 15q-97 78 -247 78q-178 0 -322 -138q-146 -137 -174 -332q-5 -39 -5 -76q0 -147 85 -257q106 -137 284 -137q106 0 213 51q105 51 177 137l17 20l37 -29l-16 -20q-80 -96 -198 -152 q-118 -57 -237 -57q-199 0 -318 152q-95 122 -95 284q0 41 6 84z" />
<glyph unicode="d" horiz-adv-x="1129" d="M141 511q30 214 192 367q160 151 355 151q138 0 242 -79q101 -78 143 -208l103 737h50l-209 -1488h-50l40 287q-78 -129 -201 -207q-126 -80 -264 -80q-195 0 -312 153q-95 121 -95 283q0 41 6 84zM192 511q-6 -40 -6 -78q0 -145 83 -255q105 -137 280 -137 q176 0 320 137q144 138 171 333q6 40 6 77q0 144 -83 254q-106 138 -282 138q-175 0 -318 -138q-144 -138 -171 -331z" />
<glyph unicode="e" horiz-adv-x="1100" d="M156 509q30 215 191 367q161 153 357 153q169 0 285 -117q114 -117 124 -297l1 -24l-914 -146v-6q0 -168 102 -283q104 -118 263 -118q124 0 211 28q122 40 203 138l17 20l36 -27l-17 -21q-152 -187 -457 -187q-196 0 -315 152q-93 122 -93 283q0 41 6 85zM204 495 l855 136q-14 153 -116 250q-101 98 -246 98q-175 0 -320 -138q-143 -137 -171 -332z" />
<glyph unicode="f" horiz-adv-x="556" d="M167 951l8 58h175l21 151q20 140 103 213t224 73h24l-7 -49h-24q-122 0 -188 -58q-67 -58 -84 -179l-21 -151h262l-8 -58h-262l-134 -951h-48l134 951h-175z" />
<glyph unicode="g" horiz-adv-x="1085" d="M137 513q30 213 188 362q158 151 352 151q135 0 237 -80q101 -76 141 -204l40 284h49l-141 -1000q-40 -284 -216 -420q-177 -136 -506 -136h-26l7 50h26q317 0 477 126q153 120 189 380l37 259q-76 -128 -199 -205q-124 -78 -259 -78q-194 0 -310 149q-92 120 -92 278 q0 41 6 84zM186 513q-6 -39 -6 -76q0 -143 83 -251q104 -135 277 -135t314 135q142 136 169 327q6 40 6 77q0 143 -83 250q-103 136 -276 136t-315 -136q-142 -135 -169 -327z" />
<glyph unicode="h" horiz-adv-x="1085" d="M89 0l207 1470h49l-102 -723q75 127 190 202q119 77 246 77q185 0 295 -150q86 -119 87 -275q0 -43 -7 -88l-72 -513h-49l72 513q6 41 6 80q0 141 -77 248q-97 136 -262 136q-164 0 -299 -136q-136 -136 -163 -328l-72 -513h-49z" />
<glyph unicode="i" horiz-adv-x="401" d="M162 0l145 1029h48l-145 -1029h-48zM341 1272l22 158h48l-22 -158h-48z" />
<glyph unicode="j" horiz-adv-x="397" d="M-252 -525l7 49h25q212 0 306 131q51 71 69 198l165 1176h49l-165 -1176q-19 -139 -78 -222q-111 -156 -353 -156h-25zM361 1272l22 158h49l-22 -158h-49z" />
<glyph unicode="k" horiz-adv-x="960" d="M90 0l203 1442h48l-126 -893l712 453l22 -40l-415 -264l401 -679l-43 -29l-402 680l-283 -180l-69 -490h-48z" />
<glyph unicode="l" horiz-adv-x="401" d="M180 55q-4 16 -4 41q0 36 8 92l176 1250h49l-176 -1250q-8 -56 -8 -88q0 -16 2 -25q8 -37 48 -37h24l-7 -49h-24q-74 0 -88 66z" />
<glyph unicode="m" horiz-adv-x="1938" d="M93 0l144 1026h49l-39 -278q75 126 190 201q119 77 247 77q144 0 248 -97q100 -95 126 -247q67 152 195 247q130 97 274 97q185 0 295 -150q86 -119 87 -275q0 -43 -7 -88l-72 -513h-49l72 513q6 41 6 80q0 141 -77 248q-97 136 -262 136q-164 0 -299 -136 q-136 -136 -163 -328l-72 -513h-49l72 513q6 41 6 80q0 141 -77 248q-97 136 -261 136q-165 0 -300 -136q-136 -136 -163 -328l-72 -513h-49z" />
<glyph unicode="n" horiz-adv-x="1147" d="M103 0l145 1030h50l-40 -285q76 129 199 206q126 79 261 79q195 0 312 -151q92 -120 92 -279q0 -41 -6 -85l-72 -515h-50l72 515q6 41 6 79q0 143 -82 250q-105 137 -279 137t-316 -137q-142 -136 -170 -329l-72 -515h-50z" />
<glyph unicode="o" horiz-adv-x="1059" d="M123 519q30 214 191 365q160 153 356 153t314 -153q93 -120 94 -280q0 -41 -7 -85q-30 -216 -190 -367q-161 -153 -357 -153t-313 153q-94 120 -94 282q0 41 6 85zM173 519q-6 -40 -5 -77q0 -146 83 -255q104 -137 280 -137q175 0 320 137q144 137 171 332q6 39 6 77 q0 144 -84 253q-106 138 -281 138q-176 0 -319 -138q-144 -137 -171 -330z" />
<glyph unicode="p" horiz-adv-x="1129" d="M25 -454l209 1488h50l-40 -287q78 129 201 207q126 80 264 80q195 0 313 -153q94 -121 94 -282q0 -41 -6 -85q-30 -214 -192 -367q-160 -151 -355 -151q-138 0 -242 79q-101 78 -142 208l-104 -737h-50zM211 514q-6 -39 -6 -77q0 -144 84 -254q105 -138 281 -138 q175 0 319 138q143 138 170 331q6 40 6 78q0 145 -83 255q-105 137 -280 137q-176 0 -320 -137q-144 -138 -171 -333z" />
<glyph unicode="q" horiz-adv-x="1129" d="M141 514q30 215 192 367q160 153 355 153q138 0 242 -80q101 -78 143 -207l40 287h50l-209 -1488h-50l104 737q-79 -130 -202 -208q-126 -79 -264 -79q-195 0 -313 151q-94 122 -94 283q0 41 6 84zM192 514q-6 -39 -6 -77q0 -144 84 -254q104 -138 279 -138 q176 0 321 138q143 138 170 331q6 40 6 78q0 145 -83 255q-106 137 -282 137q-175 0 -318 -137q-144 -138 -171 -333z" />
<glyph unicode="r" horiz-adv-x="706" d="M142 0l145 1031h50l-40 -285q77 129 199 206q126 79 262 79h25l-7 -49h-25q-174 0 -317 -137q-142 -137 -169 -329l-73 -516h-50z" />
<glyph unicode="s" horiz-adv-x="941" d="M90 310h49q-3 -18 -2 -36q0 -104 92 -166q96 -63 243 -63q149 0 262 63q128 73 146 202q1 10 1 19q0 82 -101 147q-67 42 -243 105q-153 55 -204 88q-77 47 -77 108q0 7 1 15q16 115 128 182q98 59 226 59q129 0 210 -59q80 -57 81 -150q0 -16 -3 -32h-49q2 13 2 25 q0 74 -69 120q-70 46 -179 46t-191 -46q-94 -53 -107 -145q-1 -4 -1 -7q0 -43 75 -84q49 -27 180 -73q190 -69 263 -118q109 -74 109 -174q0 -13 -2 -26q-21 -152 -169 -239q-128 -75 -296 -75q-167 0 -274 75q-104 76 -104 196q0 21 3 43z" />
<glyph unicode="t" horiz-adv-x="559" d="M166 987l8 60h181l64 453h51l-64 -453h271l-8 -60h-271l-139 -987h-51l139 987h-181z" />
<glyph unicode="u" horiz-adv-x="1048" d="M171 518l73 520h50l-73 -520q-10 -69 -9 -129q0 -339 322 -339q379 0 445 468l73 520h50l-73 -520q-39 -239 -144 -363q-132 -155 -358 -155t-314 155q-50 88 -50 234q0 60 8 129z" />
<glyph unicode="v" horiz-adv-x="1110" d="M163 1028l48 23l354 -983l629 983l43 -23l-658 -1028h-46z" />
<glyph unicode="w" horiz-adv-x="1761" d="M163 1036l49 22l337 -988l404 650l-108 316l49 22l96 -279l173 279l43 -22l-196 -316l221 -650l614 988l43 -22l-644 -1036h-46l-225 661l-411 -661h-47z" />
<glyph unicode="x" horiz-adv-x="1114" d="M32 15l572 550l-334 441l42 33l332 -436l453 436l32 -33l-458 -441l418 -550l-42 -33l-414 546l-569 -546z" />
<glyph unicode="y" horiz-adv-x="1048" d="M126 -514l382 579l-362 959l47 23l350 -928l611 928l41 -23l-632 -959l-11 -18l-385 -584z" />
<glyph unicode="z" horiz-adv-x="1165" d="M59 42l1074 942h-851l7 50h911l13 -42l-1075 -942h949l-7 -50h-1009z" />
<glyph unicode="{" horiz-adv-x="695" d="M89 659l85 22q76 20 146 133q145 232 116 716l-1 19l291 92l8 -42l-252 -80q21 -403 -81 -640q-67 -156 -175 -220q90 -67 111 -236q33 -258 -108 -702l230 -80l-20 -42l-265 93l7 18q172 533 94 786q-37 124 -107 142z" />
<glyph unicode="|" horiz-adv-x="353" d="M109 -305l268 1908h48l-268 -1908h-48z" />
<glyph unicode="}" horiz-adv-x="695" d="M16 -359l252 80q-15 444 89 702q69 169 177 236q-90 64 -113 220q-35 237 100 640l-230 80l20 42l265 -92l-7 -19q-165 -484 -85 -716q39 -113 109 -133l79 -22l-85 -21q-75 -18 -148 -142q-147 -253 -125 -786v-18l-290 -93z" />
<glyph unicode="~" horiz-adv-x="1176" d="M393 1364l22 6q158 45 327 -8q137 -43 272 -15q69 14 108 37l20 12l17 -42l-21 -12q-80 -46 -201 -53q-106 -6 -213 27q-160 49 -304 8l-22 -7z" />
<glyph unicode="&#xa1;" horiz-adv-x="401" d="M103 -420l145 1029h48l-145 -1029h-48zM282 852l22 158h48l-22 -158h-48z" />
<glyph unicode="&#xa2;" horiz-adv-x="1026" d="M139 513q30 215 193 368q161 152 360 152q85 0 155 -23l112 215l32 -13l-111 -214q47 -21 87 -53l18 -15l-34 -40l-19 15q-35 28 -76 46l-456 -877q68 -31 153 -31q106 0 213 51q105 51 177 137l17 20l37 -29l-16 -20q-80 -96 -198 -152q-118 -57 -237 -57q-95 0 -171 34 l-117 -224l-33 14l118 226q-64 38 -115 102q-119 153 -89 368zM189 513q-27 -195 80 -333q44 -56 99 -89l454 872q-62 20 -137 20q-178 0 -322 -138q-146 -137 -174 -332z" />
<glyph unicode="&#xa3;" horiz-adv-x="938" d="M100 52q33 13 74 74q80 116 110 329q6 44 8 80h-114l7 49h107q-1 50 -18 111q-18 69 -10 124q14 100 120 157q93 50 216 50t203 -50q90 -57 76 -157l-4 -24h-49l4 24q10 72 -60 116q-68 42 -177 42q-104 0 -183 -40q-87 -44 -97 -118q-7 -45 9 -105q19 -69 20 -130h267 l-7 -49h-261q-2 -37 -8 -80q-36 -253 -140 -381q278 57 629 -21l23 -5l-16 -48l-24 5q-386 86 -694 1z" />
<glyph unicode="&#xa4;" horiz-adv-x="993" d="M190 342l113 98q-73 97 -54 227q18 131 118 228l-86 98l37 32l84 -99q109 86 240 86q130 0 215 -86l112 99l27 -32l-112 -98q72 -97 54 -228q-19 -130 -118 -227l85 -98l-36 -32l-85 99q-109 -86 -239 -86q-131 0 -216 86l-111 -99zM294 667q-18 -124 58 -211 q75 -88 200 -88q124 0 224 88q99 87 117 211q17 125 -58 212q-75 88 -199 88q-125 0 -225 -88q-100 -87 -117 -212z" />
<glyph unicode="&#xa5;" horiz-adv-x="1085" d="M212 270l7 48h331l20 147h-331l7 48h331l5 32l-322 893l47 22l308 -855l547 855l41 -22l-572 -893l-5 -32h319l-7 -48h-319l-20 -147h319l-7 -48h-319l-38 -270h-49l38 270h-331z" />
<glyph unicode="&#xa6;" horiz-adv-x="353" d="M124 -199l93 662h48l-93 -662h-48zM278 897l93 662h48l-93 -662h-48z" />
<glyph unicode="&#xa7;" horiz-adv-x="883" d="M84 165h51q-9 -67 80 -108q81 -36 203 -36q146 0 254 51q114 53 126 141q10 73 -71 118q-52 28 -199 68q-179 49 -250 92q-100 71 -119.5 138t8.5 128.5t133 127.5q119 65 274 65q56 0 107 -10q-45 18 -143 46q-157 46 -213 82q-95 61 -81 162q17 123 158 193 q118 59 274 59q139 0 229 -49q104 -56 90 -153h-50q10 70 -78 113q-79 38 -198 38q-143 0 -249 -53q-112 -55 -125 -148q-11 -76 69 -124q49 -29 194 -71q162 -47 228 -85q113 -64 128 -169q10 -33 5 -67q-14 -99 -133 -167q-120 -69 -279 -69q-41 0 -77 5q39 -13 118 -34 q159 -44 218 -79q97 -59 83 -157q-17 -119 -160 -187q-120 -56 -278 -56q-142 0 -235 47q-105 54 -92 148zM220.5 709q-5.5 -83 81.5 -132q88 -48 212 -48q126 0 228 50q102 49 121 105.5t-1 97t-102 78.5q-84 39 -194 39q-131 0 -235 -53q-105 -54 -110.5 -137z" />
<glyph unicode="&#xa8;" horiz-adv-x="695" d="M340 1351q2 20 18 34t35 14q20 0 32 -14t10 -34q-3 -19 -19 -33t-36 -14q-19 0 -31 14t-9 33zM627 1351q2 20 17.5 34t35.5 14t31.5 -14t9.5 -34q-3 -19 -18.5 -33t-35.5 -14t-31.5 14t-8.5 33z" />
<glyph unicode="&#xa9;" horiz-adv-x="1654" d="M202 717q41 297 281 507t537 210t477 -210t139 -507q-42 -297 -282 -507q-239 -210 -536 -210t-478 210q-180 210 -138 507zM250 717q-39 -277 129 -473q169 -196 446 -196t500 196q224 196 263 473t-130 473q-168 196 -445 196t-501 -196q-223 -196 -262 -473zM502 703 q26 189 167 323q140 134 312 134q144 0 238 -77l17 -15l-34 -38l-17 14q-83 68 -211 68q-152 0 -276 -120t-148 -289t67 -289q90 -120 242 -120q91 0 181 44q92 45 152 119l17 20l35 -27l-16 -20q-68 -84 -170 -134t-205 -50q-172 0 -275 134t-76 323z" />
<glyph unicode="&#xaa;" horiz-adv-x="828" d="M197 935q15 107 123 183t245 76q88 0 160 -34q68 -32 105 -88q16 183 -58 254q-56 53 -180 53q-89 0 -164 -35q-39 -18 -59 -35l-20 -18l-30 34l19 18q27 23 72 44q87 41 189 41q147 0 214 -68q94 -97 60 -340l-45 -319h-49l14 99q-52 -57 -131 -90q-81 -34 -169 -34 q-137 0 -225 76q-86 76 -71 183zM246 935q-12 -87 62 -148q75 -62 192 -62t208 62q92 61 104 148t-62 148q-74 62 -191 62t-209 -62q-92 -61 -104 -148z" />
<glyph unicode="&#xab;" horiz-adv-x="1599" d="M275 557l717 466l23 -41l-660 -428l529 -516l-37 -38zM782 557l717 466l23 -41l-660 -428l529 -516l-37 -38z" />
<glyph unicode="&#xac;" horiz-adv-x="901" d="M227 947l7 48h699l-32 -225h-48l25 177h-651z" />
<glyph unicode="&#xad;" horiz-adv-x="901" d="M173 565l7 48h699l-7 -48h-699z" />
<glyph unicode="&#xae;" horiz-adv-x="1647" d="M200 716q41 296 281 506q239 210 535 210t477 -210q180 -210 139 -506q-42 -296 -282 -506q-239 -210 -535 -210t-477 210q-180 210 -138 506zM248 716q-39 -276 129 -472q169 -196 445 -196t499 196q224 196 263 472q38 276 -130 472q-169 196 -445 196t-499 -196 q-224 -196 -262 -472zM595 259l130 923l21 2q77 9 168 2q172 -13 245 -88q61 -61 47 -158q-18 -127 -115 -204q-52 -41 -126 -65l209 -390l-43 -27l-216 403q-103 -24 -218 -16l-54 -382h-48zM704 689q236 -15 360 83q79 62 94 168q11 76 -36 122q-92 95 -355 77z" />
<glyph unicode="&#xaf;" horiz-adv-x="1000" d="M289 1384l7 48h810l-7 -48h-810z" />
<glyph unicode="&#xb0;" horiz-adv-x="408" d="M282 1314q7 44 42.5 75t79.5 31t71.5 -31t20.5 -75q-6 -45 -42 -76t-80 -31t-71 31t-21 76zM329 1313q-3 -25 12.5 -42.5t40.5 -17.5t45.5 17.5t23.5 42.5q4 26 -11.5 43.5t-40.5 17.5t-45.5 -17.5t-24.5 -43.5z" />
<glyph unicode="&#xb1;" horiz-adv-x="901" d="M111 120l7 48h699l-7 -48h-699zM190 683l7 48h326l46 325h48l-46 -325h325l-7 -48h-325l-46 -326h-48l46 326h-326z" />
<glyph unicode="&#xb2;" horiz-adv-x="702" d="M174 744q183 150 334 297q185 182 193 240q7 46 -40 75q-48 29 -125 29q-73 0 -128 -27q-61 -29 -68 -77h-47q11 73 89 115q69 36 161 36q91 0 150 -36q67 -42 56 -115q-17 -126 -498 -530h451l-7 -48h-511z" />
<glyph unicode="&#xb3;" horiz-adv-x="625" d="M184 850h47q-7 -49 45 -81q48 -30 115 -30q82 0 143 44q74 53 88 153q13 93 -36 142q-70 69 -208 49l-14 40l245 217h-241l7 48h298l11 -41l-243 -214q121 -4 181 -64q63 -62 47 -177q-17 -119 -104 -186q-78 -58 -181 -58q-86 0 -144 40q-66 46 -56 118z" />
<glyph unicode="&#xb4;" horiz-adv-x="632" d="M316 1541l430 197l16 -44l-430 -197z" />
<glyph unicode="&#xb5;" horiz-adv-x="1048" d="M44 -414l204 1455h48l-82 -589q-31 -402 320 -402q379 0 445 468l73 520h50l-73 -520q-39 -239 -144 -363q-132 -155 -358 -155t-314 155q-18 33 -31 74l-90 -643h-48z" />
<glyph unicode="&#xb6;" horiz-adv-x="1000" d="M185 1012q26 182 133 311q106 129 231 129h553l-7 -51h-159l-204 -1449h-51l204 1449h-317l-204 -1449h-51l87 621q-114 15 -177 140q-62 127 -38 299z" />
<glyph unicode="&#xb7;" horiz-adv-x="500" d="M238 555q5 36 34.5 62t64.5 26q36 0 58.5 -26t17.5 -62q-5 -35 -34.5 -61t-65.5 -26q-35 0 -57.5 26t-17.5 61z" />
<glyph unicode="&#xb8;" horiz-adv-x="500" d="M60 -272l7 48h24q58 0 123 15q122 27 131 93q9 65 -105 93q-61 14 -119 14h-24l7 49h24q77 0 146 -20q134 -39 120 -136t-158 -136q-75 -20 -152 -20h-24z" />
<glyph unicode="&#xb9;" horiz-adv-x="504" d="M276 1248l213 187l38 -16l-99 -705h-47l91 648l-168 -147z" />
<glyph unicode="&#xba;" horiz-adv-x="783" d="M244 1063q22 158 124 270q101 111 222 111t191 -111q69 -112 47 -270q-22 -157 -123 -269t-222 -112t-191 112t-48 269zM294 1063q-19 -137 38 -234q57 -98 157 -98t186 98q85 97 104 234t-38 235q-58 97 -158 97t-185 -97q-85 -98 -104 -235z" />
<glyph unicode="&#xbb;" horiz-adv-x="1599" d="M202 38l675 516l-540 428l33 41l587 -466l-728 -557zM709 38l675 516l-540 428l33 41l587 -466l-728 -557z" />
<glyph unicode="&#xbc;" horiz-adv-x="1305" d="M239 14l913 1426l41 -22l-913 -1426zM276 1248l214 187l37 -16l-99 -705h-47l91 648l-167 -147zM671 205l444 511l41 -14l-69 -488h139l-6 -47h-139l-24 -170h-48l24 170h-348zM738 214h301l58 415z" />
<glyph unicode="&#xbd;" horiz-adv-x="1305" d="M199 14l913 1426l41 -22l-913 -1426zM276 1248l214 187l37 -16l-99 -705h-47l91 648l-167 -147zM678 42q182 150 333 297q186 182 194 240q7 46 -41 75t-125 29q-73 0 -128 -27q-61 -29 -68 -77h-47q11 73 90 115q69 36 160 36q92 0 150 -36q67 -42 56 -115 q-17 -126 -498 -530h452l-7 -48h-511z" />
<glyph unicode="&#xbe;" horiz-adv-x="1305" d="M214 850h47q-7 -49 45 -81q48 -30 115 -30q82 0 143 44q74 53 88 153q13 93 -36 142q-70 69 -208 49l-14 40l245 217h-241l7 48h298l11 -41l-243 -214q121 -4 181 -64q63 -62 47 -177q-17 -119 -104 -186q-78 -58 -181 -58q-86 0 -144 40q-66 46 -56 118zM299 14 l913 1426l41 -22l-913 -1426zM667 212l444 511l40 -14l-68 -488h140l-7 -47h-140l-24 -170h-47l24 170h-348zM734 221h302l58 415z" />
<glyph unicode="&#xbf;" horiz-adv-x="864" d="M61 -5q14 97 114 186q60 53 210 145q142 86 195 133q90 77 101 157l4 25h49l-4 -25q-13 -98 -114 -186q-59 -54 -209 -145q-142 -87 -196 -133q-90 -77 -101 -157q-23 -166 64 -260q55 -60 145 -82q97 -24 194 2q99 26 136 84l14 22l41 -22l-14 -22q-47 -74 -162 -107 q-114 -33 -228 -5q-133 33 -196 136q-64 103 -43 254zM723 886l20 138h49l-20 -138h-49z" />
<glyph unicode="&#xc0;" d="M26 2l795 1451h45l388 -1451l-50 -19l-143 545h-694l-298 -545zM395 577h652l-214 801zM665 1694l28 44l375 -197l-29 -44z" />
<glyph unicode="&#xc1;" d="M26 2l795 1451h45l388 -1451l-50 -19l-143 545h-694l-298 -545zM395 577h652l-214 801zM673 1541l431 197l16 -44l-430 -197z" />
<glyph unicode="&#xc2;" d="M26 2l795 1451h45l388 -1451l-50 -19l-143 545h-694l-298 -545zM395 577h652l-214 801zM506 1558l362 169h20l316 -169l-26 -40l-306 164l-352 -164z" />
<glyph unicode="&#xc3;" d="M26 2l795 1451h45l388 -1451l-50 -19l-143 545h-694l-298 -545zM395 577h652l-214 801zM493 1651l22 6q158 45 326 -8q137 -43 272 -15q69 14 109 37l20 12l16 -42l-20 -12q-80 -46 -201 -53q-107 -6 -213 27q-160 49 -304 8l-22 -7z" />
<glyph unicode="&#xc4;" d="M26 2l795 1451h45l388 -1451l-50 -19l-143 545h-694l-298 -545zM395 577h652l-214 801zM678 1667q3 20 19 34t35 14q20 0 32 -14t9 -34q-3 -19 -19 -33t-36 -14q-19 0 -31 14t-9 33zM965 1667q3 20 18.5 34t35.5 14t31.5 -14t8.5 -34q-3 -19 -18.5 -33t-35.5 -14 t-31.5 14t-8.5 33z" />
<glyph unicode="&#xc5;" d="M26 2l795 1451h45l388 -1451l-50 -19l-143 545h-694l-298 -545zM395 577h652l-214 801zM760 1620q7 44 42.5 75t79.5 31t71.5 -31t20.5 -75q-6 -45 -42 -76t-80 -31t-71 31t-21 76zM807 1619q-3 -25 12.5 -42.5t40.5 -17.5t45.5 17.5t23.5 42.5q4 26 -11.5 43.5 t-40.5 17.5t-45.5 -17.5t-24.5 -43.5z" />
<glyph unicode="&#xc6;" horiz-adv-x="2250" d="M118 20l1336 1415h804l-7 -48h-756l-78 -559h583l-7 -48h-583l-103 -732h843l-7 -48h-891l73 520h-669l-505 -530zM702 568h630l109 775z" />
<glyph unicode="&#xc7;" horiz-adv-x="1265" d="M105 719q42 300 273 514q230 213 512 213q284 0 454 -214l15 -17l-41 -34l-14 18q-157 198 -420 198q-262 0 -476 -199t-254 -479q-39 -281 119 -480t420 -199q278 0 497 218l18 19l33 -32l-19 -19q-236 -234 -536 -234q-282 0 -453 213q-170 213 -128 514zM625 -272 l7 48h24q58 0 123 15q122 27 131 93q9 65 -105 93q-61 14 -119 14h-24l7 49h24q77 0 146 -20q134 -39 120 -136t-158 -136q-75 -20 -152 -20h-24z" />
<glyph unicode="&#xc8;" horiz-adv-x="1096" d="M94 0l202 1434h804l-7 -48h-756l-79 -558h582l-7 -49h-582l-102 -731h842l-7 -48h-890zM555 1694l28 44l376 -197l-30 -44z" />
<glyph unicode="&#xc9;" horiz-adv-x="1096" d="M94 0l202 1434h804l-7 -48h-756l-79 -558h582l-7 -49h-582l-102 -731h842l-7 -48h-890zM584 1541l430 197l16 -44l-430 -197z" />
<glyph unicode="&#xca;" horiz-adv-x="1096" d="M94 0l202 1434h804l-7 -48h-756l-79 -558h582l-7 -49h-582l-102 -731h842l-7 -48h-890zM376 1558l363 169h20l315 -169l-26 -40l-306 164l-352 -164z" />
<glyph unicode="&#xcb;" horiz-adv-x="1096" d="M94 0l202 1434h804l-7 -48h-756l-79 -558h582l-7 -49h-582l-102 -731h842l-7 -48h-890zM558 1667q3 20 19 34t35 14q20 0 32 -14t9 -34q-2 -19 -18 -33t-36 -14q-19 0 -31 14t-10 33zM845 1667q3 20 18.5 34t35.5 14t31.5 -14t8.5 -34q-2 -19 -17.5 -33t-35.5 -14 t-31.5 14t-9.5 33z" />
<glyph unicode="&#xcc;" horiz-adv-x="353" d="M152 0l202 1434h48l-202 -1434h-48zM241 1694l28 44l375 -197l-29 -44z" />
<glyph unicode="&#xcd;" horiz-adv-x="353" d="M152 0l202 1434h48l-202 -1434h-48zM220 1541l430 197l15 -44l-429 -197z" />
<glyph unicode="&#xce;" horiz-adv-x="353" d="M45 1558l363 169h20l314 -169l-25 -40l-306 164l-352 -164zM152 0l202 1434h48l-202 -1434h-48z" />
<glyph unicode="&#xcf;" horiz-adv-x="353" d="M152 0l202 1434h48l-202 -1434h-48zM218 1667q3 20 19 34t35 14q20 0 32 -14t9 -34q-2 -19 -18 -33t-36 -14q-19 0 -31 14t-10 33zM505 1667q3 20 18.5 34t35.5 14t31.5 -14t8.5 -34q-2 -19 -17.5 -33t-35.5 -14t-31.5 14t-9.5 33z" />
<glyph unicode="&#xd0;" horiz-adv-x="1456" d="M197 690l7 52h160l97 690l22 1q38 3 93 3q337 0 562 -110q368 -180 308 -608q-60 -427 -478 -607q-257 -111 -594 -111q-55 0 -92 3l-21 2l96 685h-160zM315 49q31 -1 66 -1q326 0 573 106q388 167 444 564t-286 564q-217 106 -543 106q-35 0 -66 -1l-91 -645h464l-7 -52 h-464z" />
<glyph unicode="&#xd1;" horiz-adv-x="1268" d="M94 0l198 1409l41 15l799 -1332l188 1341h44l-198 -1409l-41 -15l-799 1332l-188 -1341h-44zM493 1651l22 6q158 45 327 -8q137 -43 272 -15q69 14 108 37l21 12l16 -42l-21 -12q-80 -46 -201 -53q-106 -6 -213 27q-160 49 -304 8l-22 -7z" />
<glyph unicode="&#xd2;" horiz-adv-x="1570" d="M188 715q43 305 276 521t520 216q286 0 459 -216t130 -521t-276 -521q-234 -216 -520 -216q-287 0 -459 216q-173 216 -130 521zM237 715q-40 -284 121 -486q160 -202 426 -202q265 0 483 202q217 202 257 486t-121 486q-160 202 -425 202q-266 0 -484 -202 q-217 -202 -257 -486zM827 1694l29 44l375 -197l-29 -44z" />
<glyph unicode="&#xd3;" horiz-adv-x="1570" d="M188 715q43 305 276 521t520 216q286 0 459 -216t130 -521t-276 -521q-234 -216 -520 -216q-287 0 -459 216q-173 216 -130 521zM237 715q-40 -284 121 -486q160 -202 426 -202q265 0 483 202q217 202 257 486t-121 486q-160 202 -425 202q-266 0 -484 -202 q-217 -202 -257 -486zM800 1541l431 197l15 -44l-429 -197z" />
<glyph unicode="&#xd4;" horiz-adv-x="1570" d="M188 715q43 305 276 521t520 216q286 0 459 -216t130 -521t-276 -521q-234 -216 -520 -216q-287 0 -459 216q-173 216 -130 521zM237 715q-40 -284 121 -486q160 -202 426 -202q265 0 483 202q217 202 257 486t-121 486q-160 202 -425 202q-266 0 -484 -202 q-217 -202 -257 -486zM656 1558l363 169h20l315 -169l-25 -40l-306 164l-352 -164z" />
<glyph unicode="&#xd5;" horiz-adv-x="1570" d="M188 715q43 305 276 521t520 216q286 0 459 -216t130 -521t-276 -521q-234 -216 -520 -216q-287 0 -459 216q-173 216 -130 521zM237 715q-40 -284 121 -486q160 -202 426 -202q265 0 483 202q217 202 257 486t-121 486q-160 202 -425 202q-266 0 -484 -202 q-217 -202 -257 -486zM644 1651l22 6q159 45 327 -8q137 -43 272 -15q69 14 108 37l21 12l16 -42l-21 -12q-79 -46 -200 -53q-107 -6 -213 27q-160 49 -304 8l-22 -7z" />
<glyph unicode="&#xd6;" horiz-adv-x="1570" d="M188 715q43 305 276 521t520 216q286 0 459 -216t130 -521t-276 -521q-234 -216 -520 -216q-287 0 -459 216q-173 216 -130 521zM237 715q-40 -284 121 -486q160 -202 426 -202q265 0 483 202q217 202 257 486t-121 486q-160 202 -425 202q-266 0 -484 -202 q-217 -202 -257 -486zM829 1667q2 20 18 34t35 14q20 0 32 -14t10 -34q-3 -19 -19 -33t-36 -14q-19 0 -31 14t-9 33zM1116 1667q2 20 17.5 34t35.5 14t31.5 -14t9.5 -34q-3 -19 -18.5 -33t-35.5 -14t-31.5 14t-8.5 33z" />
<glyph unicode="&#xd7;" horiz-adv-x="901" d="M230 358l263 231l-198 230l39 34l197 -231l262 230l30 -34l-263 -229l198 -230l-39 -34l-197 230l-263 -231z" />
<glyph unicode="&#xd8;" horiz-adv-x="1570" d="M188 715q43 305 276 521t520 216q169 0 299 -75l90 142l37 -20l-91 -145q68 -47 124 -118q173 -216 130 -521t-276 -521q-234 -216 -520 -216q-161 0 -286 68l-105 -166l-38 19l107 169q-76 49 -137 126q-173 216 -130 521zM237 715q-40 -284 121 -486q56 -71 125 -117 l772 1220q-120 71 -277 71q-266 0 -484 -202q-217 -202 -257 -486zM519 91q116 -64 265 -64q265 0 483 202q217 202 257 486t-121 486q-51 64 -113 108z" />
<glyph unicode="&#xd9;" d="M193 718l101 717h48l-101 -717q-39 -277 79 -474q118 -196 323 -196t378 196q173 197 212 474l101 717h48l-101 -717q-42 -297 -231 -508q-189 -210 -414 -210t-355 210q-130 211 -88 508zM645 1694l28 44l375 -197l-29 -44z" />
<glyph unicode="&#xda;" d="M193 718l101 717h48l-101 -717q-39 -277 79 -474q118 -196 323 -196t378 196q173 197 212 474l101 717h48l-101 -717q-42 -297 -231 -508q-189 -210 -414 -210t-355 210q-130 211 -88 508zM703 1541l431 197l16 -44l-430 -197z" />
<glyph unicode="&#xdb;" d="M193 718l101 717h48l-101 -717q-39 -277 79 -474q118 -196 323 -196t378 196q173 197 212 474l101 717h48l-101 -717q-42 -297 -231 -508q-189 -210 -414 -210t-355 210q-130 211 -88 508zM516 1558l363 169h20l315 -169l-26 -40l-306 164l-352 -164z" />
<glyph unicode="&#xdc;" d="M193 718l101 717h48l-101 -717q-39 -277 79 -474q118 -196 323 -196t378 196q173 197 212 474l101 717h48l-101 -717q-42 -297 -231 -508q-189 -210 -414 -210t-355 210q-130 211 -88 508zM698 1667q3 20 19 34t35 14q20 0 32 -14t9 -34q-3 -19 -18.5 -33t-35.5 -14 q-19 0 -31.5 14t-9.5 33zM985 1667q3 20 18.5 34t35.5 14t31.5 -14t8.5 -34q-3 -19 -18 -33t-35 -14t-32 14t-9 33z" />
<glyph unicode="&#xdd;" horiz-adv-x="1338" d="M229 1420l43 28l482 -860l723 860l36 -28l-742 -882l-76 -538h-48l76 538zM754 1541l431 197l16 -44l-430 -197z" />
<glyph unicode="&#xde;" horiz-adv-x="1000" d="M109 -305l268 1908h48l-71 -503h220q239 -5 350 -93q140 -110 108 -336t-202 -336q-136 -88 -376 -93h-220l-77 -547h-48zM241 292h220q468 0 521 379t-415 379h-220z" />
<glyph unicode="&#xdf;" horiz-adv-x="962" d="M88 -28l155 1105q27 193 126 294q87 90 207 90q121 0 209 -83q92 -88 75 -208q-9 -68 -126 -192q-112 -120 -110 -172q4 -52 104 -118q162 -108 212 -244q30 -82 -12 -201q-43 -128 -141 -208q-102 -83 -227 -83q-128 0 -265 90l32 44q120 -79 231 -82q111 -4 199 69 q83 67 122 176q36 103 12 172q-45 123 -196 223q-61 41 -83 64q-36 38 -39 88t37 110q24 35 89 104q103 110 110 160q14 97 -65 170q-75 70 -175 70q-107 0 -179 -88q-74 -88 -96 -245l-155 -1105h-51z" />
<glyph unicode="&#xe0;" horiz-adv-x="1184" d="M136 335q21 151 179 258t360 107q140 0 252 -56q107 -54 155 -145q33 292 -82 405q-85 83 -283 83q-136 0 -254 -52q-56 -25 -91 -53l-21 -18l-30 37l20 17q38 32 104 62q128 59 279 59q216 0 314 -98q139 -137 91 -482l-65 -462h-51l24 176q-73 -91 -197 -146 q-127 -56 -267 -56q-202 0 -330 107t-107 257zM187 335q-18 -129 97 -221t296 -92q180 0 321 92t159 221q18 130 -97 222t-295 92q-181 0 -322 -92t-159 -222zM620 1374l28 44l376 -197l-30 -44z" />
<glyph unicode="&#xe1;" horiz-adv-x="1184" d="M136 335q21 151 179 258t360 107q140 0 252 -56q107 -54 155 -145q33 292 -82 405q-85 83 -283 83q-136 0 -254 -52q-56 -25 -91 -53l-21 -18l-30 37l20 17q38 32 104 62q128 59 279 59q216 0 314 -98q139 -137 91 -482l-65 -462h-51l24 176q-73 -91 -197 -146 q-127 -56 -267 -56q-202 0 -330 107t-107 257zM187 335q-18 -129 97 -221t296 -92q180 0 321 92t159 221q18 130 -97 222t-295 92q-181 0 -322 -92t-159 -222zM629 1221l430 197l16 -44l-430 -197z" />
<glyph unicode="&#xe2;" horiz-adv-x="1184" d="M136 335q21 151 179 258t360 107q140 0 252 -56q107 -54 155 -145q33 292 -82 405q-85 83 -283 83q-136 0 -254 -52q-56 -25 -91 -53l-21 -18l-30 37l20 17q38 32 104 62q128 59 279 59q216 0 314 -98q139 -137 91 -482l-65 -462h-51l24 176q-73 -91 -197 -146 q-127 -56 -267 -56q-202 0 -330 107t-107 257zM187 335q-18 -129 97 -221t296 -92q180 0 321 92t159 221q18 130 -97 222t-295 92q-181 0 -322 -92t-159 -222zM439 1224l363 169h20l315 -169l-26 -40l-306 164l-352 -164z" />
<glyph unicode="&#xe3;" horiz-adv-x="1184" d="M136 335q21 151 179 258t360 107q140 0 252 -56q107 -54 155 -145q33 292 -82 405q-85 83 -283 83q-136 0 -254 -52q-56 -25 -91 -53l-21 -18l-30 37l20 17q38 32 104 62q128 59 279 59q216 0 314 -98q139 -137 91 -482l-65 -462h-51l24 176q-73 -91 -197 -146 q-127 -56 -267 -56q-202 0 -330 107t-107 257zM187 335q-18 -129 97 -221t296 -92q180 0 321 92t159 221q18 130 -97 222t-295 92q-181 0 -322 -92t-159 -222zM419 1339l22 6q158 45 327 -8q137 -43 272 -15q69 14 108 37l21 12l16 -42l-21 -12q-79 -46 -200 -53 q-107 -6 -214 27q-160 49 -303 8l-22 -7z" />
<glyph unicode="&#xe4;" horiz-adv-x="1184" d="M136 335q21 151 179 258t360 107q140 0 252 -56q107 -54 155 -145q33 292 -82 405q-85 83 -283 83q-136 0 -254 -52q-56 -25 -91 -53l-21 -18l-30 37l20 17q38 32 104 62q128 59 279 59q216 0 314 -98q139 -137 91 -482l-65 -462h-51l24 176q-73 -91 -197 -146 q-127 -56 -267 -56q-202 0 -330 107t-107 257zM187 335q-18 -129 97 -221t296 -92q180 0 321 92t159 221q18 130 -97 222t-295 92q-181 0 -322 -92t-159 -222zM593 1342q2 20 18 34t35 14q20 0 32 -14t10 -34q-3 -19 -19 -33t-36 -14q-19 0 -31 14t-9 33zM880 1342 q2 20 17.5 34t35.5 14t31.5 -14t9.5 -34q-3 -19 -18.5 -33t-35.5 -14t-31.5 14t-8.5 33z" />
<glyph unicode="&#xe5;" horiz-adv-x="1184" d="M136 335q21 151 179 258t360 107q140 0 252 -56q107 -54 155 -145q33 292 -82 405q-85 83 -283 83q-136 0 -254 -52q-56 -25 -91 -53l-21 -18l-30 37l20 17q38 32 104 62q128 59 279 59q216 0 314 -98q139 -137 91 -482l-65 -462h-51l24 176q-73 -91 -197 -146 q-127 -56 -267 -56q-202 0 -330 107t-107 257zM187 335q-18 -129 97 -221t296 -92q180 0 321 92t159 221q18 130 -97 222t-295 92q-181 0 -322 -92t-159 -222zM687 1308q6 44 42 75t80 31t71 -31t21 -75q-6 -45 -42 -76t-80 -31t-71 31t-21 76zM734 1307q-4 -25 11.5 -42.5 t40.5 -17.5t45.5 17.5t24.5 42.5q3 26 -12.5 43.5t-40.5 17.5t-45.5 -17.5t-23.5 -43.5z" />
<glyph unicode="&#xe6;" horiz-adv-x="2085" d="M143 334q21 150 178 255q156 106 356 106q139 0 248 -55q106 -54 155 -144q32 289 -82 401q-84 83 -280 83q-135 0 -252 -52q-55 -25 -90 -53l-21 -18l-29 37l20 17q37 32 103 62q127 57 276 57q172 0 265 -60q130 -82 146 -287q73 154 209 250q139 97 294 97 q170 0 287 -118q117 -119 127 -302v-25l-25 -4l-26 -4l-876 -140q-2 -175 102 -293q106 -120 269 -120q125 0 213 29q125 39 206 139l17 21l39 -28l-18 -21q-155 -190 -464 -190q-140 0 -246 81q-103 79 -146 211l-37 -267h-51l24 174q-72 -90 -194 -144q-126 -55 -265 -55 q-200 0 -326 105q-127 106 -106 255zM194 334q-18 -128 95 -219q114 -91 293 -91q178 0 318 91q139 91 157 219q18 129 -95 219q-114 91 -292 91q-179 0 -319 -91q-139 -90 -157 -219zM1130 488l869 138q-16 155 -118 254q-103 100 -249 100q-179 0 -326 -140t-174 -338 q-1 -5 -2 -14z" />
<glyph unicode="&#xe7;" horiz-adv-x="967" d="M119 513q30 215 193 368q161 152 360 152q166 0 275 -88l18 -15l-34 -40l-19 15q-97 78 -247 78q-178 0 -322 -138q-146 -137 -174 -332q-27 -195 80 -333q106 -137 284 -137q106 0 213 51q105 51 177 137l17 20l37 -29l-16 -20q-80 -96 -198 -152q-118 -57 -237 -57 q-199 0 -318 152q-119 153 -89 368zM415 -272l7 48h24q58 0 123 15q122 27 131 93q9 65 -105 93q-61 14 -119 14h-24l7 49h24q77 0 146 -20q133 -39 120 -136q-14 -97 -158 -136q-75 -20 -152 -20h-24z" />
<glyph unicode="&#xe8;" horiz-adv-x="1100" d="M156 509q30 215 191 367q161 153 357 153q169 0 285 -117q114 -117 124 -297l1 -24l-914 -146q-2 -172 102 -289q104 -118 263 -118q124 0 211 28q122 40 203 138l17 20l36 -27l-17 -21q-152 -187 -457 -187q-196 0 -315 152q-117 153 -87 368zM204 495l855 136 q-14 153 -116 250q-101 98 -246 98q-175 0 -320 -138q-143 -137 -171 -332zM570 1374l28 44l375 -197l-29 -44z" />
<glyph unicode="&#xe9;" horiz-adv-x="1100" d="M156 509q30 215 191 367q161 153 357 153q169 0 285 -117q114 -117 124 -297l1 -24l-914 -146q-2 -172 102 -289q104 -118 263 -118q124 0 211 28q122 40 203 138l17 20l36 -27l-17 -21q-152 -187 -457 -187q-196 0 -315 152q-117 153 -87 368zM204 495l855 136 q-14 153 -116 250q-101 98 -246 98q-175 0 -320 -138q-143 -137 -171 -332zM628 1221l431 197l16 -44l-430 -197z" />
<glyph unicode="&#xea;" horiz-adv-x="1100" d="M156 509q30 215 191 367q161 153 357 153q169 0 285 -117q114 -117 124 -297l1 -24l-914 -146q-2 -172 102 -289q104 -118 263 -118q124 0 211 28q122 40 203 138l17 20l36 -27l-17 -21q-152 -187 -457 -187q-196 0 -315 152q-117 153 -87 368zM204 495l855 136 q-14 153 -116 250q-101 98 -246 98q-175 0 -320 -138q-143 -137 -171 -332zM409 1224l362 169h20l316 -169l-26 -40l-306 164l-352 -164z" />
<glyph unicode="&#xeb;" horiz-adv-x="1100" d="M156 509q30 215 191 367q161 153 357 153q169 0 285 -117q114 -117 124 -297l1 -24l-914 -146q-2 -172 102 -289q104 -118 263 -118q124 0 211 28q122 40 203 138l17 20l36 -27l-17 -21q-152 -187 -457 -187q-196 0 -315 152q-117 153 -87 368zM204 495l855 136 q-14 153 -116 250q-101 98 -246 98q-175 0 -320 -138q-143 -137 -171 -332zM552 1342q3 20 19 34t35 14q20 0 32 -14t9 -34q-2 -19 -18 -33t-36 -14q-19 0 -31 14t-10 33zM839 1342q3 20 18.5 34t35.5 14t31.5 -14t8.5 -34q-2 -19 -17.5 -33t-35.5 -14t-31.5 14t-9.5 33z " />
<glyph unicode="&#xec;" horiz-adv-x="401" d="M162 0l145 1029h48l-145 -1029h-48zM202 1374l28 44l375 -197l-29 -44z" />
<glyph unicode="&#xed;" horiz-adv-x="401" d="M162 0l145 1029h48l-145 -1029h-48zM187 1221l430 197l15 -44l-429 -197z" />
<glyph unicode="&#xee;" horiz-adv-x="401" d="M6 1224l363 169h20l314 -169l-25 -40l-306 164l-352 -164zM162 0l145 1029h48l-145 -1029h-48z" />
<glyph unicode="&#xef;" horiz-adv-x="401" d="M162 0l145 1029h48l-145 -1029h-48zM193 1342q2 20 18 34t35 14q20 0 32 -14t10 -34q-3 -19 -19 -33t-36 -14q-19 0 -31 14t-9 33zM480 1342q2 20 17.5 34t35.5 14t31.5 -14t9.5 -34q-3 -19 -18.5 -33t-35.5 -14t-31.5 14t-8.5 33z" />
<glyph unicode="&#xf0;" horiz-adv-x="1059" d="M122 513q30 212 189 362q158 151 352 151q96 0 173 -37q-88 91 -213 136q-43 9 -84 24q-50 11 -104 16l5 27q1 1 0 1l2 4l3 13q2 0 5 -1l14 24q44 -24 89 -41q46 -11 89 -26q226 -50 480 67l15 -40q-197 -88 -377 -84q140 -88 224 -248q104 -146 76 -348 q-30 -213 -189 -363q-158 -151 -352 -151t-310 151q-117 150 -87 363zM171 513q-27 -192 77 -328t278 -136q173 0 316 136q142 136 169 328q27 191 -77 327q-105 137 -278 137q-174 0 -316 -137q-142 -136 -169 -327z" />
<glyph unicode="&#xf1;" horiz-adv-x="1147" d="M103 0l145 1030h50l-40 -285q76 129 199 206q126 79 261 79q195 0 312 -151q116 -151 86 -364l-72 -515h-50l72 515q28 193 -76 329q-105 137 -279 137t-316 -137q-142 -136 -170 -329l-72 -515h-50zM403 1357l22 6q158 45 326 -8q137 -43 272 -15q69 14 109 37l20 12 l16 -42l-20 -12q-80 -46 -201 -53q-107 -6 -213 27q-160 49 -304 8l-22 -7z" />
<glyph unicode="&#xf2;" horiz-adv-x="1059" d="M122 513q30 212 189 362q158 151 352 151t310 -151q117 -150 87 -362q-30 -213 -189 -363q-158 -151 -352 -151t-310 151q-117 150 -87 363zM171 513q-27 -192 77 -328t278 -136q173 0 316 136q142 136 169 328q27 191 -77 327q-105 137 -278 137q-174 0 -316 -137 q-142 -136 -169 -327zM500 1374l28 44l375 -197l-29 -44z" />
<glyph unicode="&#xf3;" horiz-adv-x="1059" d="M122 513q30 212 189 362q158 151 352 151t310 -151q117 -150 87 -362q-30 -213 -189 -363q-158 -151 -352 -151t-310 151q-117 150 -87 363zM171 513q-27 -192 77 -328t278 -136q173 0 316 136q142 136 169 328q27 191 -77 327q-105 137 -278 137q-174 0 -316 -137 q-142 -136 -169 -327zM508 1221l431 197l16 -44l-430 -197z" />
<glyph unicode="&#xf4;" horiz-adv-x="1059" d="M122 513q30 212 189 362q158 151 352 151t310 -151q117 -150 87 -362q-30 -213 -189 -363q-158 -151 -352 -151t-310 151q-117 150 -87 363zM171 513q-27 -192 77 -328t278 -136q173 0 316 136q142 136 169 328q27 191 -77 327q-105 137 -278 137q-174 0 -316 -137 q-142 -136 -169 -327zM359 1224l363 169h20l315 -169l-26 -40l-306 164l-352 -164z" />
<glyph unicode="&#xf5;" horiz-adv-x="1059" d="M122 513q30 212 189 362q158 151 352 151t310 -151q117 -150 87 -362q-30 -213 -189 -363q-158 -151 -352 -151t-310 151q-117 150 -87 363zM171 513q-27 -192 77 -328t278 -136q173 0 316 136q142 136 169 328q27 191 -77 327q-105 137 -278 137q-174 0 -316 -137 q-142 -136 -169 -327zM333 1357l21 6q159 45 327 -8q137 -43 272 -15q69 14 108 37l21 12l16 -42l-21 -12q-79 -46 -200 -53q-107 -6 -213 27q-160 49 -304 8l-22 -7z" />
<glyph unicode="&#xf6;" horiz-adv-x="1059" d="M122 513q30 212 189 362q158 151 352 151t310 -151q117 -150 87 -362q-30 -213 -189 -363q-158 -151 -352 -151t-310 151q-117 150 -87 363zM171 513q-27 -192 77 -328t278 -136q173 0 316 136q142 136 169 328q27 191 -77 327q-105 137 -278 137q-174 0 -316 -137 q-142 -136 -169 -327zM512 1342q3 20 19 34t35 14q20 0 32 -14t9 -34q-2 -19 -18 -33t-36 -14q-19 0 -31 14t-10 33zM799 1342q3 20 18.5 34t35.5 14t31.5 -14t8.5 -34q-2 -19 -17.5 -33t-35.5 -14t-31.5 14t-9.5 33z" />
<glyph unicode="&#xf7;" horiz-adv-x="901" d="M173 565l7 48h699l-7 -48h-699zM451 346q3 20 19 34t35 14q20 0 32 -14t9 -34q-2 -19 -18 -33t-36 -14q-19 0 -31 14t-10 33zM518 820q3 20 19 34t35 14q20 0 32 -14t9 -34q-3 -19 -19 -33t-36 -14q-19 0 -31 14t-9 33z" />
<glyph unicode="&#xf8;" horiz-adv-x="1140" d="M172 513q30 212 189 362q158 151 352 151q125 0 218 -63l74 105l33 -20l-76 -108q33 -28 61 -65q117 -150 87 -362q-30 -213 -189 -363q-158 -151 -352 -151q-128 0 -222 65l-90 -128l-32 19l92 133q-31 27 -58 62q-117 150 -87 363zM221 513q-27 -192 77 -328 q24 -30 50 -54l553 789q-83 57 -195 57q-174 0 -316 -137q-142 -136 -169 -327zM377 108q85 -59 199 -59q173 0 316 136q142 136 169 328q27 191 -77 327q-25 32 -52 56z" />
<glyph unicode="&#xf9;" horiz-adv-x="1048" d="M171 518l73 520h50l-73 -520q-66 -468 313 -468t445 468l73 520h50l-73 -520q-39 -239 -144 -363q-132 -155 -358 -155t-314 155q-71 124 -42 363zM500 1374l28 44l375 -197l-29 -44z" />
<glyph unicode="&#xfa;" horiz-adv-x="1048" d="M171 518l73 520h50l-73 -520q-66 -468 313 -468t445 468l73 520h50l-73 -520q-39 -239 -144 -363q-132 -155 -358 -155t-314 155q-71 124 -42 363zM578 1221l431 197l16 -44l-430 -197z" />
<glyph unicode="&#xfb;" horiz-adv-x="1048" d="M171 518l73 520h50l-73 -520q-66 -468 313 -468t445 468l73 520h50l-73 -520q-39 -239 -144 -363q-132 -155 -358 -155t-314 155q-71 124 -42 363zM349 1224l363 169h20l315 -169l-26 -40l-306 164l-352 -164z" />
<glyph unicode="&#xfc;" horiz-adv-x="1048" d="M171 518l73 520h50l-73 -520q-66 -468 313 -468t445 468l73 520h50l-73 -520q-39 -239 -144 -363q-132 -155 -358 -155t-314 155q-71 124 -42 363zM522 1342q3 20 19 34t35 14q20 0 32 -14t9 -34q-2 -19 -18 -33t-36 -14q-19 0 -31 14t-10 33zM809 1342q3 20 18.5 34 t35.5 14t31.5 -14t8.5 -34q-2 -19 -17.5 -33t-35.5 -14t-31.5 14t-9.5 33z" />
<glyph unicode="&#xfd;" horiz-adv-x="1048" d="M126 -514l382 579l-362 959l47 23l350 -928l611 928l41 -23l-632 -959l-11 -18l-385 -584zM599 1221l431 197l15 -44l-429 -197z" />
<glyph unicode="&#xfe;" horiz-adv-x="1129" d="M25 -454l286 2032h50l-117 -831q78 129 201 207q126 80 264 80q195 0 313 -153q118 -152 88 -367q-30 -214 -192 -367q-160 -151 -355 -151q-138 0 -242 79q-101 78 -142 208l-104 -737h-50zM211 514q-27 -193 78 -331t281 -138q175 0 319 138q143 138 170 331 q27 195 -77 333q-105 137 -280 137q-176 0 -320 -137q-144 -138 -171 -333z" />
<glyph unicode="&#xff;" horiz-adv-x="1048" d="M126 -514l382 579l-362 959l47 23l350 -928l611 928l41 -23l-632 -959l-11 -18l-385 -584zM543 1342q3 20 19 34t35 14q20 0 32 -14t9 -34q-3 -19 -19 -33t-36 -14q-19 0 -31 14t-9 33zM830 1342q3 20 18.5 34t35.5 14t31.5 -14t8.5 -34q-3 -19 -18.5 -33t-35.5 -14 t-31.5 14t-8.5 33z" />
<glyph unicode="&#x2c6;" horiz-adv-x="904" d="M272 1229l363 169h20l315 -169l-26 -40l-306 164l-352 -164z" />
<glyph unicode="&#x2dc;" horiz-adv-x="1176" d="M393 1364l22 6q158 45 327 -8q137 -43 272 -15q69 14 108 37l20 12l17 -42l-21 -12q-80 -46 -201 -53q-106 -6 -213 27q-160 49 -304 8l-22 -7z" />
<glyph unicode="&#x2000;" horiz-adv-x="875" />
<glyph unicode="&#x2001;" horiz-adv-x="1750" />
<glyph unicode="&#x2002;" horiz-adv-x="875" />
<glyph unicode="&#x2003;" horiz-adv-x="1750" />
<glyph unicode="&#x2004;" horiz-adv-x="583" />
<glyph unicode="&#x2005;" horiz-adv-x="437" />
<glyph unicode="&#x2006;" horiz-adv-x="291" />
<glyph unicode="&#x2007;" horiz-adv-x="291" />
<glyph unicode="&#x2008;" horiz-adv-x="218" />
<glyph unicode="&#x2009;" horiz-adv-x="350" />
<glyph unicode="&#x200a;" horiz-adv-x="97" />
<glyph unicode="&#x2010;" horiz-adv-x="901" d="M173 565l7 48h699l-7 -48h-699z" />
<glyph unicode="&#x2011;" horiz-adv-x="901" d="M173 565l7 48h699l-7 -48h-699z" />
<glyph unicode="&#x2012;" horiz-adv-x="901" d="M173 565l7 48h699l-7 -48h-699z" />
<glyph unicode="&#x2013;" horiz-adv-x="1000" d="M115 150l7 48h810l-7 -48h-810z" />
<glyph unicode="&#x2014;" horiz-adv-x="1401" d="M167 517l7 48h1204l-7 -48h-1204z" />
<glyph unicode="&#x2018;" horiz-adv-x="260" d="M247 1032l56 402h48l-56 -402h-48z" />
<glyph unicode="&#x2019;" horiz-adv-x="260" d="M247 1032l56 402h48l-56 -402h-48z" />
<glyph unicode="&#x201a;" horiz-adv-x="403" d="M-20 -304l177 403l44 -14l-177 -403z" />
<glyph unicode="&#x201c;" horiz-adv-x="403" d="M207 1032l56 402h48l-56 -402h-48zM447 1032l56 402h48l-56 -402h-48z" />
<glyph unicode="&#x201d;" horiz-adv-x="403" d="M207 1032l56 402h48l-56 -402h-48zM447 1032l56 402h48l-56 -402h-48z" />
<glyph unicode="&#x201e;" horiz-adv-x="585" d="M-20 -304l177 403l44 -14l-177 -403zM263 -304l177 403l44 -14l-177 -403z" />
<glyph unicode="&#x2022;" horiz-adv-x="500" d="M238 555q5 36 34.5 62t64.5 26q36 0 58.5 -26t17.5 -62q-5 -35 -34.5 -61t-65.5 -26q-35 0 -57.5 26t-17.5 61z" />
<glyph unicode="&#x2026;" horiz-adv-x="1195" d="M124 52q2 20 18 34t35 14q20 0 32 -14t10 -34q-3 -19 -19 -33t-36 -14q-19 0 -31 14t-9 33zM510 52q2 20 18 34t35 14q20 0 32 -14t10 -34q-3 -19 -19 -33t-36 -14q-19 0 -31 14t-9 33zM914 52q2 20 18 34t35 14q20 0 32 -14t10 -34q-3 -19 -19 -33t-36 -14q-19 0 -31 14 t-9 33z" />
<glyph unicode="&#x202f;" horiz-adv-x="350" />
<glyph unicode="&#x2039;" horiz-adv-x="1064" d="M275 557l717 466l23 -41l-660 -428l529 -516l-37 -38z" />
<glyph unicode="&#x203a;" horiz-adv-x="1064" d="M202 38l675 516l-540 428l34 41l586 -466l-728 -557z" />
<glyph unicode="&#x205f;" horiz-adv-x="437" />
<glyph unicode="&#x20ac;" horiz-adv-x="1100" d="M174 557l7 48h162q-1 54 7 112q6 42 16 83h-158l7 48h165q67 214 252 376q239 210 536 210l-6 -48q-277 0 -501 -196q-169 -148 -232 -342h339l-7 -48h-346q-11 -41 -17 -83q-8 -58 -6 -112h342l-7 -48h-333q16 -176 134 -313q168 -196 445 -196l-6 -48q-297 0 -478 210 q-130 151 -144 347h-171z" />
<glyph unicode="&#x2122;" horiz-adv-x="1537" d="M295 1385l7 48h615l-7 -48h-284l-96 -686h-47l96 686h-284zM877 702l126 624l46 10l172 -447l298 447l44 -10l-50 -624l-48 -2l43 538l-275 -412h-42l-159 412l-107 -538z" />
<glyph unicode="&#xe000;" horiz-adv-x="1040" d="M0 0v1040h1040v-1040h-1040z" />
</font>
</defs>
</svg>
